<?xml version="1.0" encoding="UTF-8"?>
<svg xmlns="http://www.w3.org/2000/svg" xmlns:xlink="http://www.w3.org/1999/xlink" version="1.2" >
<font id="Bentley Light">
<font-face  font-family="Bentley" units-per-em="1000" ascent="796" descent="-204" font-style="normal" font-weight="300" font-stretch="normal" cap-height="648" x-height="440" underline-position="-75" underline-thickness="50" />
<missing-glyph  horiz-adv-x="1080" d="M1080 0 L1080 648 L0 648 L0 0 L1080 0 Z M1064 632 L1064 388 L604 388 L604 632 L1064 632 Z M16 260 L476 260 L476 16 L16 16 L16 260 Z M1064 16 L604 16 L604 260 L1064 260 L1064 16 Z M16 632 L476 632 L476 388 L16 388 L16 632 Z " />
<glyph glyph-name=".null" d="" />
<glyph glyph-name="CR" unicode="&#xd;" horiz-adv-x="250" d="" />
<glyph glyph-name="space" unicode="&#x20;" horiz-adv-x="290" d="" />
<glyph glyph-name="uni000D" horiz-adv-x="290" d="" />
<glyph glyph-name="exclam" unicode="&#x21;" horiz-adv-x="273" d="M159 178 C168 299 173 453 173 564 L173 648 L101 648 L101 564 C101 453 105 299 114 178 L159 178 Z M137 -8 C159 -8 176 9 176 32 C176 54 159 72 137 72 C114 72 97 54 97 32 C97 9 114 -8 137 -8 L137 -8 Z " />
<glyph glyph-name="quotedbl" unicode="&#x22;" horiz-adv-x="343" d="M106 408 C117 468 131 558 131 625 L131 648 L69 648 L69 625 C69 563 80 476 90 408 L106 408 Z M248 408 C260 468 274 558 274 625 L274 648 L211 648 L211 625 C211 563 223 476 233 408 L248 408 Z " />
<glyph glyph-name="numbersign" unicode="&#x23;" horiz-adv-x="572" d="M163 0 L189 177 L339 177 L313 0 L369 0 L395 177 L497 177 L507 234 L404 234 L430 412 L529 412 L539 468 L439 468 L466 648 L410 648 L383 468 L233 468 L260 648 L202 648 L175 468 L70 468 L61 412 L166 412 L140 234 L38 234 L29 177 L131 177 L105 0 L163 0 Z M224 412 L374 412 L348 234 L198 234 L224 412 Z " />
<glyph glyph-name="dollar" unicode="&#x24;" horiz-adv-x="572" d="M308 -88 L308 -7 C429 1 506 63 506 167 C506 281 423 326 299 357 C213 379 140 399 140 483 C140 551 191 591 286 591 C365 591 430 564 479 522 L479 596 C439 628 380 650 315 655 L315 736 L262 736 L262 655 C146 647 68 582 68 480 C68 360 163 319 260 296 C377 269 434 240 434 167 C434 91 376 57 277 57 C204 57 133 81 76 136 L76 58 C124 18 182 -3 254 -7 L254 -88 L308 -88 Z " />
<glyph glyph-name="percent" unicode="&#x25;" horiz-adv-x="822" d="M205 344 C137 344 97 389 97 472 C97 555 137 600 205 600 C273 600 313 555 313 472 C313 389 273 344 205 344 L205 344 Z M205 288 C305 288 374 357 374 472 C374 587 305 656 205 656 C105 656 36 587 36 472 C36 357 105 288 205 288 L205 288 Z M617 48 C549 48 510 93 510 176 C510 259 549 304 617 304 C685 304 725 259 725 176 C725 93 685 48 617 48 L617 48 Z M617 -8 C718 -8 786 61 786 176 C786 291 718 360 617 360 C517 360 448 291 448 176 C448 61 517 -8 617 -8 L617 -8 Z M268 0 L611 648 L552 648 L209 0 L268 0 Z " />
<glyph glyph-name="ampersand" unicode="&#x26;" horiz-adv-x="705" d="M674 0 L496 157 L651 300 L651 376 L453 196 L294 336 C378 402 416 444 416 509 C416 583 361 656 255 656 C149 656 95 587 95 507 C95 452 123 409 186 350 C85 270 48 223 48 153 C48 56 124 -8 220 -8 C297 -8 348 19 403 71 L451 116 L583 0 L674 0 Z M224 53 C161 53 114 95 114 155 C114 199 132 239 232 309 L407 155 L364 116 C327 81 278 53 224 53 L224 53 Z M161 509 C161 559 194 597 255 597 C313 597 350 560 349 509 C349 459 321 429 249 376 C182 438 161 469 161 509 L161 509 Z " />
<glyph glyph-name="quotesingle" unicode="&#x27;" horiz-adv-x="200" d="M106 408 C117 468 131 558 131 625 L131 648 L69 648 L69 625 C69 563 80 476 90 408 L106 408 Z " />
<glyph glyph-name="parenleft" unicode="&#x28;" horiz-adv-x="339" d="M148 304 C148 461 200 590 312 699 L269 728 C151 627 83 483 83 304 C83 125 151 -19 269 -120 L312 -91 C200 18 148 147 148 304 L148 304 Z " />
<glyph glyph-name="parenright" unicode="&#x29;" horiz-adv-x="339" d="M256 304 C256 483 188 627 70 728 L27 699 C139 590 191 461 191 304 C191 147 139 18 27 -91 L70 -120 C188 -19 256 125 256 304 L256 304 Z " />
<glyph glyph-name="asterisk" unicode="&#x2a;" horiz-adv-x="437" d="M86 570 L69 521 C108 507 150 496 192 492 C161 464 133 430 109 396 L152 364 C177 398 200 435 217 473 C234 435 258 397 283 364 L324 394 C299 429 272 463 241 491 C282 495 325 504 366 518 L349 570 C308 557 269 542 233 522 C241 562 244 606 244 648 L191 648 C191 605 194 560 202 519 C167 540 127 556 86 570 L86 570 Z " />
<glyph glyph-name="plus" unicode="&#x2b;" horiz-adv-x="572" d="M315 124 L315 293 L478 293 L478 351 L315 351 L315 520 L257 520 L257 351 L94 351 L94 293 L257 293 L257 124 L315 124 Z " />
<glyph glyph-name="comma" unicode="&#x2c;" horiz-adv-x="217" d="M96 -154 C130 -127 146 -75 146 5 L146 88 L78 88 L78 8 C78 -64 66 -117 33 -154 L96 -154 Z " />
<glyph glyph-name="hyphen" unicode="&#x2d;" horiz-adv-x="338" d="M292 216 L292 275 L46 275 L46 216 L292 216 Z " />
<glyph glyph-name="period" unicode="&#x2e;" horiz-adv-x="224" d="M112 -8 C138 -8 160 13 160 40 C160 66 138 88 112 88 C85 88 64 66 64 40 C64 13 85 -8 112 -8 L112 -8 Z " />
<glyph glyph-name="slash" unicode="&#x2f;" horiz-adv-x="336" d="M77 0 L319 648 L256 648 L14 0 L77 0 Z " />
<glyph glyph-name="zero" unicode="0" horiz-adv-x="572" d="M285 -8 C431 -8 534 98 534 324 C534 550 431 656 285 656 C140 656 38 550 38 324 C38 98 140 -8 285 -8 L285 -8 Z M285 58 C178 58 108 140 108 324 C108 508 178 590 285 590 C392 590 464 508 464 324 C464 140 392 58 285 58 L285 58 Z " />
<glyph glyph-name="one" unicode="1" horiz-adv-x="581" d="M103 476 L311 561 L311 0 L381 0 L381 660 L103 540 L103 476 Z " />
<glyph glyph-name="two" unicode="2" horiz-adv-x="572" d="M518 0 L518 66 L188 66 C363 205 476 321 476 445 C476 574 388 656 242 656 C170 656 101 634 60 590 L60 522 C107 566 166 591 240 591 C357 591 404 528 404 445 C404 345 316 237 53 35 L53 0 L518 0 Z " />
<glyph glyph-name="three" unicode="3" horiz-adv-x="572" d="M57 648 L57 582 L386 582 L136 358 L136 322 C173 333 213 336 249 336 C385 336 451 287 451 202 C451 118 391 58 257 58 C182 58 115 74 54 118 L54 46 C104 14 177 -8 261 -8 C435 -8 523 86 523 200 C523 323 421 396 268 399 L502 605 L502 648 L57 648 Z " />
<glyph glyph-name="four" unicode="4" horiz-adv-x="572" d="M449 0 L449 136 L555 136 L555 199 L449 199 L449 648 L392 648 L17 175 L17 136 L381 136 L381 0 L449 0 Z M112 199 L381 532 L381 199 L112 199 Z " />
<glyph glyph-name="five" unicode="5" horiz-adv-x="572" d="M260 -8 C418 -8 524 71 524 205 C524 334 418 404 258 404 C221 404 180 399 145 389 L160 582 L484 582 L484 648 L104 648 L74 338 L74 297 C129 330 191 340 259 340 C383 340 452 288 452 205 C452 112 380 58 257 58 C183 58 114 74 53 121 L53 49 C103 10 179 -8 260 -8 L260 -8 Z " />
<glyph glyph-name="six" unicode="6" horiz-adv-x="572" d="M241 464 L380 648 L300 648 L179 486 C88 364 38 298 38 210 C38 76 144 -8 289 -8 C430 -8 539 77 539 212 C539 344 430 426 290 426 C258 426 227 420 200 410 C212 426 226 443 241 464 L241 464 Z M289 58 C172 58 110 122 110 212 C110 304 178 361 289 361 C401 361 467 301 467 212 C467 123 409 58 289 58 L289 58 Z " />
<glyph glyph-name="seven" unicode="7" horiz-adv-x="572" d="M183 0 L522 602 L522 648 L45 648 L45 582 L434 582 L107 0 L183 0 Z " />
<glyph glyph-name="eight" unicode="8" horiz-adv-x="572" d="M286 -8 C461 -8 539 80 539 178 C539 254 502 310 428 338 C486 366 518 414 518 481 C518 584 431 656 286 656 C141 656 54 584 54 481 C54 414 85 366 144 338 C69 309 32 253 32 178 C32 76 110 -8 286 -8 L286 -8 Z M286 58 C150 58 104 118 104 183 C104 248 150 304 286 304 C422 304 467 248 467 183 C467 118 422 58 286 58 L286 58 Z M286 365 C170 365 126 416 126 477 C126 539 173 590 286 590 C399 590 446 539 446 477 C446 416 402 365 286 365 L286 365 Z " />
<glyph glyph-name="nine" unicode="9" horiz-adv-x="572" d="M324 176 L190 0 L272 0 L393 162 C484 284 534 350 534 438 C534 572 428 656 283 656 C142 656 33 571 33 436 C33 304 142 222 282 222 C315 222 346 228 373 238 C358 220 342 199 324 176 L324 176 Z M283 287 C172 287 105 347 105 436 C105 525 163 590 283 590 C400 590 462 526 462 436 C462 343 394 287 283 287 L283 287 Z " />
<glyph glyph-name="colon" unicode="&#x3a;" horiz-adv-x="224" d="M112 304 C135 304 154 323 154 346 C154 370 135 388 112 388 C88 388 70 370 70 346 C70 323 88 304 112 304 L112 304 Z M112 -8 C135 -8 154 11 154 34 C154 58 135 76 112 76 C88 76 70 58 70 34 C70 11 88 -8 112 -8 L112 -8 Z " />
<glyph glyph-name="semicolon" unicode="&#x3b;" horiz-adv-x="224" d="M112 304 C135 304 154 323 154 346 C154 370 135 388 112 388 C88 388 70 370 70 346 C70 323 88 304 112 304 L112 304 Z M96 -154 C130 -127 146 -75 146 5 L146 88 L78 88 L78 8 C78 -64 66 -117 33 -154 L96 -154 Z " />
<glyph glyph-name="less" unicode="&#x3c;" horiz-adv-x="572" d="M478 434 L478 495 L94 347 L94 301 L478 155 L478 218 L182 324 L478 434 Z " />
<glyph glyph-name="equal" unicode="&#x3d;" horiz-adv-x="572" d="M474 377 L474 433 L98 433 L98 377 L474 377 Z M474 207 L474 263 L98 263 L98 207 L474 207 Z " />
<glyph glyph-name="greater" unicode="&#x3e;" horiz-adv-x="572" d="M390 324 L94 218 L94 155 L478 301 L478 347 L94 495 L94 434 L390 324 Z " />
<glyph glyph-name="question" unicode="&#x3f;" horiz-adv-x="397" d="M167 -8 C189 -8 206 9 206 32 C206 54 189 72 167 72 C144 72 127 54 127 32 C127 9 144 -8 167 -8 L167 -8 Z M188 180 L188 230 C188 286 215 308 266 340 C315 369 372 410 372 497 C372 586 307 656 172 656 C101 656 43 633 11 602 L11 533 C48 571 108 590 169 590 C256 590 300 552 300 490 C300 431 261 404 217 375 C158 338 132 304 132 243 C132 218 137 201 142 180 L188 180 Z " />
<glyph glyph-name="at" unicode="&#x40;" horiz-adv-x="923" d="M478 448 C336 448 246 357 246 210 C246 92 319 -8 448 -8 C505 -8 557 15 584 65 C592 13 628 -8 675 -8 C776 -8 876 79 876 256 C876 478 689 628 461 628 C229 628 48 452 48 216 C48 -56 264 -196 469 -196 C560 -196 643 -175 696 -142 L696 -78 C644 -115 562 -137 476 -137 C287 -137 108 -22 108 216 C108 438 271 569 461 569 C646 569 813 453 813 256 C813 122 750 48 683 48 C663 48 647 56 647 85 L647 440 L593 428 C563 440 530 448 478 448 L478 448 Z M451 53 C366 53 312 116 312 214 C312 327 377 387 476 387 C518 387 551 380 583 365 L583 196 C583 110 535 53 451 53 L451 53 Z " />
<glyph glyph-name="A" unicode="A" horiz-adv-x="653" d="M84 0 L146 143 L506 143 L568 0 L642 0 L355 648 L300 648 L11 0 L84 0 Z M328 556 L477 210 L176 210 L328 556 Z " />
<glyph glyph-name="B" unicode="B" horiz-adv-x="684" d="M102 0 L413 0 C544 0 620 77 620 181 C620 263 575 325 492 347 C541 370 576 414 576 481 C576 577 498 648 380 648 L102 648 L102 0 Z M407 302 C502 302 547 254 547 185 C547 116 504 66 409 66 L172 66 L172 302 L407 302 Z M377 582 C461 582 505 538 505 475 C505 412 460 368 377 368 L172 368 L172 582 L377 582 Z " />
<glyph glyph-name="C" unicode="C" horiz-adv-x="669" d="M127 324 C127 487 236 590 388 590 C485 590 554 558 610 503 L610 583 C558 627 487 656 388 656 C203 656 55 523 55 324 C55 124 208 -8 388 -8 C482 -8 556 17 610 65 L610 146 C551 83 471 58 388 58 C236 58 127 161 127 324 L127 324 Z " />
<glyph glyph-name="D" unicode="D" horiz-adv-x="709" d="M102 0 L300 0 C500 0 654 119 654 324 C654 529 500 648 300 648 L102 648 L102 0 Z M300 582 C466 582 582 488 582 324 C582 160 466 66 300 66 L172 66 L172 582 L300 582 Z " />
<glyph glyph-name="E" unicode="E" horiz-adv-x="653" d="M596 0 L596 66 L174 66 L174 302 L471 302 L471 368 L174 368 L174 582 L588 582 L588 648 L103 648 L103 0 L596 0 Z " />
<glyph glyph-name="F" unicode="F" horiz-adv-x="586" d="M172 0 L172 299 L480 299 L480 365 L172 365 L172 582 L567 582 L567 648 L102 648 L102 0 L172 0 Z " />
<glyph glyph-name="G" unicode="G" horiz-adv-x="726" d="M650 54 L650 336 L371 336 L371 272 L583 272 L583 90 C529 64 471 57 406 57 C247 57 127 159 127 324 C127 485 242 590 399 590 C490 590 569 564 635 512 L635 588 C575 631 498 656 399 656 C206 656 55 520 55 324 C55 127 210 -8 406 -8 C493 -8 575 8 650 54 L650 54 Z " />
<glyph glyph-name="H" unicode="H" horiz-adv-x="744" d="M172 0 L172 298 L572 298 L572 0 L642 0 L642 648 L572 648 L572 364 L172 364 L172 648 L102 648 L102 0 L172 0 Z " />
<glyph glyph-name="I" unicode="I" horiz-adv-x="269" d="M170 0 L170 648 L100 648 L100 0 L170 0 Z " />
<glyph glyph-name="J" unicode="J" horiz-adv-x="410" d="M29 14 C58 -3 92 -8 130 -8 C243 -8 318 59 318 191 L318 648 L248 648 L248 193 C248 101 202 57 124 57 C94 57 60 63 29 82 L29 14 Z " />
<glyph glyph-name="K" unicode="K" horiz-adv-x="656" d="M102 0 L157 0 L339 251 L566 0 L656 0 L379 306 L626 648 L546 648 L172 125 L172 648 L102 648 L102 0 Z " />
<glyph glyph-name="L" unicode="L" horiz-adv-x="597" d="M547 0 L547 66 L172 66 L172 648 L102 648 L102 0 L547 0 Z " />
<glyph glyph-name="M" unicode="M" horiz-adv-x="816" d="M170 0 L170 510 L404 159 L413 159 L645 507 L645 0 L714 0 L714 648 L660 648 L409 266 L155 648 L102 648 L102 0 L170 0 Z " />
<glyph glyph-name="N" unicode="N" horiz-adv-x="740" d="M170 0 L170 526 L580 0 L639 0 L639 648 L570 648 L570 123 L160 648 L102 648 L102 0 L170 0 Z " />
<glyph glyph-name="O" unicode="O" horiz-adv-x="789" d="M394 -8 C578 -8 734 123 734 324 C734 525 578 656 394 656 C211 656 55 525 55 324 C55 123 211 -8 394 -8 L394 -8 Z M394 58 C242 58 127 165 127 324 C127 483 242 590 394 590 C547 590 662 483 662 324 C662 165 547 58 394 58 L394 58 Z " />
<glyph glyph-name="P" unicode="P" horiz-adv-x="618" d="M172 0 L172 249 L350 249 C501 249 575 342 575 448 C575 555 495 648 350 648 L102 648 L102 0 L172 0 Z M346 582 C454 582 503 522 503 448 C503 373 454 314 346 314 L172 314 L172 582 L346 582 Z " />
<glyph glyph-name="Q" unicode="Q" horiz-adv-x="789" d="M394 -8 C477 -8 554 19 614 67 L688 0 L775 0 L657 107 C705 163 734 237 734 324 C734 525 578 656 394 656 C211 656 55 525 55 324 C55 123 211 -8 394 -8 L394 -8 Z M424 240 L564 113 C518 78 459 58 394 58 C242 58 127 165 127 324 C127 483 242 590 394 590 C547 590 662 483 662 324 C662 256 641 198 606 154 L512 240 L424 240 Z " />
<glyph glyph-name="R" unicode="R" horiz-adv-x="621" d="M172 0 L172 265 L293 265 L515 0 L598 0 L376 269 C485 286 547 363 547 456 C547 563 466 648 326 648 L102 648 L102 0 L172 0 Z M322 582 C419 582 475 533 475 456 C475 378 422 330 326 330 L172 330 L172 582 L322 582 Z " />
<glyph glyph-name="S" unicode="S" horiz-adv-x="596" d="M71 60 C125 18 202 -8 292 -8 C438 -8 528 57 528 167 C528 278 445 324 313 358 C207 385 144 408 144 481 C144 548 194 591 297 591 C384 591 449 563 501 519 L501 595 C449 633 383 656 297 656 C163 656 71 589 71 479 C71 368 158 326 277 297 C412 264 454 233 454 167 C454 96 400 57 294 57 C213 57 127 87 71 138 L71 60 Z " />
<glyph glyph-name="T" unicode="T" horiz-adv-x="587" d="M329 0 L329 582 L561 582 L561 648 L26 648 L26 582 L258 582 L258 0 L329 0 Z " />
<glyph glyph-name="U" unicode="U" horiz-adv-x="718" d="M360 -8 C515 -8 624 96 624 271 L624 648 L554 648 L554 271 C554 146 494 58 360 58 C226 58 164 146 164 271 L164 648 L94 648 L94 271 C94 98 205 -8 360 -8 L360 -8 Z " />
<glyph glyph-name="V" unicode="V" horiz-adv-x="653" d="M13 648 L298 0 L353 0 L640 648 L568 648 L327 91 L87 648 L13 648 Z " />
<glyph glyph-name="W" unicode="W" horiz-adv-x="993" d="M13 648 L255 0 L311 0 L495 461 L680 0 L734 0 L980 648 L907 648 L707 105 L507 604 L480 604 L287 104 L87 648 L13 648 Z " />
<glyph glyph-name="X" unicode="X" horiz-adv-x="606" d="M94 0 L301 284 L508 0 L590 0 L342 340 L568 648 L492 648 L304 392 L118 648 L37 648 L263 336 L16 0 L94 0 Z " />
<glyph glyph-name="Y" unicode="Y" horiz-adv-x="645" d="M360 0 L360 262 L629 648 L545 648 L323 327 L100 648 L16 648 L287 262 L287 0 L360 0 Z " />
<glyph glyph-name="Z" unicode="Z" horiz-adv-x="594" d="M560 0 L560 66 L137 66 L554 612 L554 648 L41 648 L41 582 L448 582 L31 36 L31 0 L560 0 Z " />
<glyph glyph-name="bracketleft" unicode="&#x5b;" horiz-adv-x="339" d="M300 -116 L300 -63 L171 -63 L171 667 L300 667 L300 720 L108 720 L108 -116 L300 -116 Z " />
<glyph glyph-name="backslash" unicode="&#x5c;" horiz-adv-x="337" d="M79 648 L16 648 L258 0 L321 0 L79 648 Z " />
<glyph glyph-name="bracketright" unicode="&#x5d;" horiz-adv-x="339" d="M231 -116 L231 720 L39 720 L39 667 L168 667 L168 -63 L39 -63 L39 -116 L231 -116 Z " />
<glyph glyph-name="asciicircum" unicode="&#x5e;" horiz-adv-x="572" d="M162 380 L286 592 L411 380 L472 380 L317 648 L257 648 L98 380 L162 380 Z " />
<glyph glyph-name="underscore" unicode="&#x5f;" horiz-adv-x="463" d="M457 -108 L457 -50 L6 -50 L6 -108 L457 -108 Z " />
<glyph glyph-name="grave" unicode="&#x60;" horiz-adv-x="702" d="M231 631 L351 512 L414 512 L414 516 L310 635 L231 635 L231 631 Z " />
<glyph glyph-name="a" unicode="a" horiz-adv-x="492" d="M209 -8 C281 -8 327 21 352 63 L355 0 L417 0 L417 264 C417 362 359 448 217 448 C161 448 103 432 67 403 L67 339 C107 372 157 387 214 387 C308 387 351 338 351 267 L351 250 C321 260 285 267 242 267 C111 267 50 207 50 127 C50 52 110 -8 209 -8 L209 -8 Z M216 51 C150 51 116 84 116 127 C116 180 160 210 236 210 C279 210 315 205 351 193 L351 171 C351 94 293 51 216 51 L216 51 Z " />
<glyph glyph-name="b" unicode="b" horiz-adv-x="536" d="M145 648 L79 648 L79 0 L133 12 C165 0 204 -8 257 -8 C396 -8 496 83 496 230 C496 348 415 448 287 448 C226 448 171 422 145 367 L145 648 Z M283 387 C369 387 428 324 428 228 C428 118 360 53 257 53 C211 53 176 59 145 74 L145 237 C145 325 197 387 283 387 L283 387 Z " />
<glyph glyph-name="c" unicode="c" horiz-adv-x="451" d="M406 100 C375 72 335 53 275 53 C176 53 107 123 107 220 C107 317 172 387 272 387 C328 387 373 366 406 340 L406 409 C371 434 324 448 269 448 C137 448 40 355 40 220 C40 85 138 -8 273 -8 C325 -8 367 4 406 33 L406 100 Z " />
<glyph glyph-name="d" unicode="d" horiz-adv-x="536" d="M457 0 L457 648 L391 648 L391 432 C362 442 326 448 279 448 C141 448 40 357 40 210 C40 92 121 -8 250 -8 C310 -8 364 18 391 72 L393 0 L457 0 Z M253 53 C168 53 108 116 108 212 C108 322 176 387 279 387 C324 387 359 380 391 366 L391 196 C391 112 337 53 253 53 L253 53 Z " />
<glyph glyph-name="e" unicode="e" horiz-adv-x="492" d="M431 112 C390 76 341 53 275 53 C177 53 112 113 105 208 L450 208 L450 227 C450 345 384 448 250 448 C129 448 40 355 40 220 C40 91 132 -8 271 -8 C341 -8 392 11 431 46 L431 112 Z M250 389 C334 389 379 333 384 263 L107 263 C120 344 174 389 250 389 L250 389 Z " />
<glyph glyph-name="f" unicode="f" horiz-adv-x="340" d="M326 381 L326 440 L145 440 L145 475 C145 555 186 595 254 595 C293 595 331 585 358 565 L358 629 C334 644 300 656 251 656 C156 656 79 596 79 475 L79 0 L145 0 L145 381 L326 381 Z " />
<glyph glyph-name="g" unicode="g" horiz-adv-x="512" d="M487 383 L487 440 L308 440 C287 445 264 448 241 448 C120 448 52 390 52 302 C52 237 88 190 155 169 C116 160 94 138 94 109 C94 83 109 65 133 54 C59 34 29 -8 29 -62 C29 -143 98 -196 245 -196 C391 -196 463 -139 463 -54 C463 13 416 68 288 81 L188 91 C161 94 148 104 148 121 C148 139 163 149 188 151 L244 157 C364 158 430 214 430 302 C430 337 420 363 404 383 L487 383 Z M397 -54 C397 -108 350 -139 246 -139 C136 -139 96 -106 96 -55 C96 -6 133 27 246 27 C359 27 397 -6 397 -54 L397 -54 Z M241 210 C162 210 115 241 115 302 C115 362 166 395 241 395 C319 395 366 362 366 302 C366 243 321 210 241 210 L241 210 Z " />
<glyph glyph-name="h" unicode="h" horiz-adv-x="545" d="M145 0 L145 252 C145 336 197 387 274 387 C353 387 403 334 403 246 L403 0 L470 0 L470 246 C470 375 389 448 282 448 C218 448 169 421 145 368 L145 648 L79 648 L79 0 L145 0 Z " />
<glyph glyph-name="i" unicode="i" horiz-adv-x="224" d="M145 0 L145 440 L79 440 L79 0 L145 0 Z M112 533 C136 533 155 552 155 577 C155 601 136 620 112 620 C88 620 69 601 69 577 C69 552 88 533 112 533 L112 533 Z " />
<glyph glyph-name="j" unicode="j" horiz-adv-x="224" d="M-70 -182 C-49 -191 -22 -196 0 -196 C77 -196 145 -149 145 -49 L145 440 L79 440 L79 -50 C79 -113 47 -137 -6 -137 C-27 -137 -51 -131 -70 -121 L-70 -182 Z M112 533 C136 533 155 552 155 577 C155 601 136 620 112 620 C88 620 69 601 69 577 C69 552 88 533 112 533 L112 533 Z " />
<glyph glyph-name="k" unicode="k" horiz-adv-x="486" d="M124 0 L251 164 L406 0 L487 0 L289 212 L466 440 L392 440 L145 118 L145 648 L79 648 L79 0 L124 0 Z " />
<glyph glyph-name="l" unicode="l" horiz-adv-x="224" d="M145 0 L145 648 L79 648 L79 0 L145 0 Z " />
<glyph glyph-name="m" unicode="m" horiz-adv-x="869" d="M145 0 L145 252 C145 336 197 387 274 387 C353 387 403 334 403 246 L403 0 L470 0 L470 246 C470 336 522 387 599 387 C675 387 727 336 727 246 L727 0 L794 0 L794 246 C794 375 713 448 604 448 C537 448 473 415 446 353 C415 414 354 448 282 448 C218 448 169 420 145 367 L144 440 L79 440 L79 0 L145 0 Z " />
<glyph glyph-name="n" unicode="n" horiz-adv-x="545" d="M145 0 L145 252 C145 336 197 387 274 387 C353 387 403 334 403 246 L403 0 L470 0 L470 246 C470 375 389 448 282 448 C218 448 169 420 145 367 L144 440 L79 440 L79 0 L145 0 Z " />
<glyph glyph-name="o" unicode="o" horiz-adv-x="538" d="M269 -8 C401 -8 498 85 498 220 C498 355 401 448 269 448 C137 448 40 355 40 220 C40 85 137 -8 269 -8 L269 -8 Z M269 53 C171 53 108 120 108 220 C108 320 171 387 269 387 C367 387 430 320 430 220 C430 120 367 53 269 53 L269 53 Z " />
<glyph glyph-name="p" unicode="p" horiz-adv-x="536" d="M79 440 L79 -195 L145 -195 L145 8 C174 -2 210 -8 257 -8 C396 -8 496 83 496 230 C496 348 415 448 287 448 C225 448 171 422 144 366 L144 440 L79 440 Z M283 387 C369 387 428 324 428 228 C428 118 360 53 257 53 C211 53 176 59 145 74 L145 243 C145 328 199 387 283 387 L283 387 Z " />
<glyph glyph-name="q" unicode="q" horiz-adv-x="536" d="M457 -196 L457 440 L402 428 C371 441 334 448 282 448 C140 448 40 357 40 210 C40 92 121 -8 250 -8 C309 -8 364 17 391 70 L391 -196 L457 -196 Z M253 53 C168 53 108 116 108 212 C108 322 176 387 279 387 C324 387 359 380 391 366 L391 203 C391 115 339 53 253 53 L253 53 Z " />
<glyph glyph-name="r" unicode="r" horiz-adv-x="379" d="M145 0 L145 258 C145 362 215 387 271 387 C305 387 331 380 359 363 L359 424 C331 442 301 448 273 448 C220 448 169 427 144 371 L144 440 L79 440 L79 0 L145 0 Z " />
<glyph glyph-name="s" unicode="s" horiz-adv-x="459" d="M57 36 C96 9 155 -8 225 -8 C342 -8 407 47 407 121 C407 214 321 233 244 251 C182 265 124 277 124 325 C124 364 151 389 227 389 C287 389 338 370 381 339 L381 406 C345 432 294 448 228 448 C121 448 58 401 58 323 C58 230 144 210 219 193 C284 179 341 169 341 117 C341 73 300 51 225 51 C157 51 98 71 57 101 L57 36 Z " />
<glyph glyph-name="t" unicode="t" horiz-adv-x="394" d="M352 381 L352 440 L141 440 L141 522 L136 522 L75 458 L75 148 C75 47 149 -8 237 -8 C286 -8 330 6 358 30 L358 93 C325 67 285 53 240 53 C182 53 141 85 141 149 L141 381 L352 381 Z " />
<glyph glyph-name="u" unicode="u" horiz-adv-x="548" d="M75 440 L75 194 C75 65 157 -8 265 -8 C329 -8 379 19 403 73 L404 0 L469 0 L469 440 L403 440 L403 194 C403 106 351 53 272 53 C193 53 141 106 141 194 L141 440 L75 440 Z " />
<glyph glyph-name="v" unicode="v" horiz-adv-x="472" d="M209 0 L260 0 L464 440 L393 440 L236 85 L75 440 L5 440 L209 0 Z " />
<glyph glyph-name="w" unicode="w" horiz-adv-x="754" d="M680 440 L539 93 L390 440 L362 440 L217 91 L74 440 L5 440 L191 0 L240 0 L376 319 L515 0 L563 0 L750 440 L680 440 Z " />
<glyph glyph-name="x" unicode="x" horiz-adv-x="450" d="M90 0 L225 173 L361 0 L436 0 L261 219 L427 440 L354 440 L225 267 L90 440 L16 440 L188 219 L17 0 L90 0 Z " />
<glyph glyph-name="y" unicode="y" horiz-adv-x="468" d="M166 -188 L464 440 L392 440 L239 105 L78 440 L5 440 L206 32 L98 -188 L166 -188 Z " />
<glyph glyph-name="z" unicode="z" horiz-adv-x="438" d="M404 0 L404 59 L129 59 L406 410 L406 440 L38 440 L38 381 L306 381 L32 30 L32 0 L404 0 Z " />
<glyph glyph-name="braceleft" unicode="&#x7b;" horiz-adv-x="355" d="M324 -63 L261 -63 C209 -63 178 -42 178 12 C178 21 179 31 181 42 L203 178 C205 189 206 198 206 208 C206 252 186 286 140 300 L140 304 C196 321 212 369 203 426 L181 562 C179 573 178 583 178 592 C178 646 209 667 261 667 L324 667 L324 720 L257 720 C168 720 119 674 119 594 C119 583 120 571 122 558 L144 418 C154 356 120 338 87 329 L71 325 L71 279 L87 275 C120 266 153 248 144 186 L122 46 C120 33 119 21 119 10 C119 -70 168 -116 257 -116 L324 -116 L324 -63 Z " />
<glyph glyph-name="bar" unicode="&#x7c;" horiz-adv-x="264" d="M159 -152 L159 648 L105 648 L105 -152 L159 -152 Z " />
<glyph glyph-name="braceright" unicode="&#x7d;" horiz-adv-x="360" d="M36 667 L99 667 C151 667 182 647 182 593 C182 584 181 573 179 562 L156 426 C154 416 153 406 153 397 C153 352 175 318 222 304 L222 300 C165 283 147 235 156 178 L179 42 C181 31 182 20 182 11 C182 -43 151 -63 99 -63 L36 -63 L36 -116 L102 -116 C192 -116 241 -70 241 10 C241 21 240 33 238 46 L215 186 C205 248 240 266 273 275 L289 279 L289 325 L273 329 C240 338 205 356 215 418 L238 558 C240 571 241 583 241 594 C241 674 192 720 102 720 L36 720 L36 667 Z " />
<glyph glyph-name="asciitilde" unicode="&#x7e;" horiz-adv-x="572" d="M375 301 C311 301 258 353 191 353 C149 353 115 337 93 307 L93 244 C121 278 152 293 189 293 C254 293 310 241 379 241 C424 241 456 258 478 287 L478 352 C450 318 419 301 375 301 L375 301 Z " />
<glyph glyph-name="uni00A0" unicode="&#xa0;" horiz-adv-x="290" d="" />
<glyph glyph-name="exclamdown" unicode="&#xa1;" horiz-adv-x="273" d="M114 282 C105 161 101 7 101 -104 L101 -188 L173 -188 L173 -104 C173 7 168 161 159 282 L114 282 Z M137 468 C114 468 97 451 97 428 C97 406 114 388 137 388 C159 388 176 406 176 428 C176 451 159 468 137 468 L137 468 Z " />
<glyph glyph-name="cent" unicode="&#xa2;" horiz-adv-x="572" d="M353 -88 L353 -7 C426 -4 486 18 533 62 L533 140 C480 85 412 58 334 58 C197 58 108 156 108 324 C108 487 194 590 334 590 C423 590 481 555 533 506 L533 586 C486 624 432 650 357 655 L357 736 L306 736 L306 655 C147 641 36 512 36 324 C36 132 144 9 300 -6 L300 -88 L353 -88 Z " />
<glyph glyph-name="sterling" unicode="&#xa3;" horiz-adv-x="572" d="M415 290 L415 341 L206 341 L206 427 C206 542 265 591 346 591 C399 591 448 576 495 532 L495 608 C455 639 409 656 345 656 C215 656 136 566 136 432 L136 341 L55 341 L55 290 L136 290 L136 199 C136 101 97 67 56 38 L56 0 L510 0 L510 66 L157 66 C185 90 206 125 206 199 L206 290 L415 290 Z " />
<glyph glyph-name="currency" unicode="&#xa4;" horiz-adv-x="572" d="M133 148 L180 205 C210 183 247 172 287 172 C327 172 364 183 393 205 L441 148 L491 192 L436 250 C452 277 462 310 462 348 C462 386 452 418 435 445 L491 504 L441 548 L393 490 C363 512 326 524 287 524 C247 524 210 512 180 491 L133 548 L82 504 L138 445 C121 418 111 386 111 348 C111 310 121 277 138 250 L82 192 L133 148 Z M287 232 C223 232 177 277 177 348 C177 419 223 464 287 464 C351 464 397 419 397 348 C397 277 351 232 287 232 L287 232 Z " />
<glyph glyph-name="yen" unicode="&#xa5;" horiz-adv-x="572" d="M319 0 L319 157 L499 157 L499 210 L319 210 L319 274 L499 274 L499 327 L348 327 L559 648 L482 648 L284 345 L89 648 L11 648 L220 327 L69 327 L69 274 L248 274 L248 210 L69 210 L69 157 L248 157 L248 0 L319 0 Z " />
<glyph glyph-name="brokenbar" unicode="&#xa6;" horiz-adv-x="264" d="M159 304 L159 648 L105 648 L105 304 L159 304 Z M159 -152 L159 192 L105 192 L105 -152 L159 -152 Z " />
<glyph glyph-name="section" unicode="&#xa7;" horiz-adv-x="565" d="M460 116 C490 144 504 179 504 216 C504 306 436 341 315 380 C200 417 160 440 160 501 C160 555 194 591 289 591 C350 591 402 572 449 539 L449 610 C413 636 357 656 289 656 C153 656 88 582 88 497 C88 396 162 359 294 318 C399 285 435 260 435 204 C435 169 422 142 394 116 L460 116 Z M106 344 C75 316 61 282 61 244 C61 154 132 117 253 77 C368 41 401 20 401 -39 C401 -93 366 -131 271 -131 C210 -131 158 -112 111 -79 L111 -150 C148 -176 203 -196 271 -196 C408 -196 473 -122 473 -37 C473 61 404 101 271 142 C166 175 130 200 130 256 C130 291 144 318 171 344 L106 344 Z " />
<glyph glyph-name="dieresis" unicode="&#xa8;" horiz-adv-x="708" d="M439 519 C462 519 480 537 480 559 C480 582 462 600 439 600 C417 600 399 582 399 559 C399 537 417 519 439 519 L439 519 Z M269 519 C292 519 310 537 310 559 C310 582 292 600 269 600 C247 600 229 582 229 559 C229 537 247 519 269 519 L269 519 Z " />
<glyph glyph-name="copyright" unicode="&#xa9;" horiz-adv-x="755" d="M378 44 C219 44 95 154 95 324 C95 493 215 604 378 604 C540 604 661 493 661 324 C661 154 536 44 378 44 L378 44 Z M378 -8 C561 -8 717 126 717 324 C717 522 561 656 378 656 C194 656 38 522 38 324 C38 126 194 -8 378 -8 L378 -8 Z M181 328 C181 204 279 128 384 128 C440 128 491 146 524 176 L524 234 C483 195 438 180 387 180 C305 180 236 231 236 328 C236 426 307 476 390 476 C440 476 485 460 524 422 L524 480 C488 511 442 528 384 528 C282 528 181 457 181 328 L181 328 Z " />
<glyph glyph-name="ordfeminine" unicode="&#xaa;" horiz-adv-x="467" d="M388 296 L388 498 C388 582 338 656 213 656 C161 656 107 641 79 618 L79 562 C115 590 161 603 209 603 C293 603 330 565 330 498 L330 497 C301 507 267 514 234 514 C130 514 71 473 71 402 C71 336 122 288 204 288 C265 288 307 310 330 345 L332 296 L388 296 Z M416 143 L416 200 L62 200 L62 143 L416 143 Z M211 340 C157 340 129 362 129 402 C129 442 160 464 227 464 C269 464 302 456 330 445 L330 438 C330 376 273 340 211 340 L211 340 Z " />
<glyph glyph-name="guillemotleft" unicode="&#xab;" horiz-adv-x="580" d="M274 244 L504 28 L504 106 L361 244 L504 382 L504 460 L274 244 Z M59 244 L288 28 L288 106 L145 244 L288 382 L288 460 L59 244 Z " />
<glyph glyph-name="logicalnot" unicode="&#xac;" horiz-adv-x="572" d="M483 141 L483 351 L89 351 L89 293 L429 293 L429 141 L483 141 Z " />
<glyph glyph-name="uni00AD" unicode="&#xad;" horiz-adv-x="338" d="M292 216 L292 275 L46 275 L46 216 L292 216 Z " />
<glyph glyph-name="registered" unicode="&#xae;" horiz-adv-x="755" d="M378 -8 C561 -8 717 126 717 324 C717 522 561 656 378 656 C194 656 38 522 38 324 C38 126 194 -8 378 -8 L378 -8 Z M378 44 C219 44 95 154 95 324 C95 493 215 604 378 604 C540 604 661 493 661 324 C661 154 536 44 378 44 L378 44 Z M312 130 L312 285 L369 285 L482 130 L545 130 L425 293 C479 308 511 352 511 405 C511 471 459 524 378 524 L261 524 L261 130 L312 130 Z M370 474 C425 474 455 450 455 405 C455 359 425 334 371 334 L312 334 L312 474 L370 474 Z " />
<glyph glyph-name="macron" unicode="&#xaf;" horiz-adv-x="708" d="M491 530 L491 588 L217 588 L217 530 L491 530 Z " />
<glyph glyph-name="degree" unicode="&#xb0;" horiz-adv-x="398" d="M198 420 C143 420 102 454 102 512 C102 570 143 604 198 604 C254 604 295 570 295 512 C295 454 254 420 198 420 L198 420 Z M198 368 C293 368 350 435 350 512 C350 589 295 656 198 656 C104 656 46 589 46 512 C46 435 102 368 198 368 L198 368 Z " />
<glyph glyph-name="plusminus" unicode="&#xb1;" horiz-adv-x="572" d="M315 164 L315 333 L478 333 L478 391 L315 391 L315 560 L257 560 L257 391 L94 391 L94 333 L257 333 L257 164 L315 164 Z M478 45 L478 103 L94 103 L94 45 L478 45 Z " />
<glyph glyph-name="twosuperior" unicode="&#xb2;" horiz-adv-x="424" d="M371 484 L371 536 L182 536 C287 598 343 648 343 719 C343 794 287 844 184 844 C137 844 87 830 57 804 L57 751 C91 776 135 791 182 791 C253 791 284 761 284 717 C284 662 247 622 51 511 L51 484 L371 484 Z " />
<glyph glyph-name="threesuperior" unicode="&#xb3;" horiz-adv-x="424" d="M51 836 L51 784 L254 784 L102 680 L102 651 C133 658 160 661 191 661 C288 661 316 633 316 595 C316 556 286 529 194 529 C138 529 94 542 49 569 L49 512 C84 488 136 476 196 476 C325 476 375 531 375 595 C375 664 325 704 222 708 L364 803 L364 836 L51 836 Z " />
<glyph glyph-name="acute" unicode="&#xb4;" horiz-adv-x="697" d="M500 635 L422 635 L318 516 L318 512 L381 512 L500 631 L500 635 Z " />
<glyph glyph-name="mu" unicode="&#xb5;" horiz-adv-x="547" d="M143 440 L77 440 L77 -227 L143 -227 L143 38 C173 8 216 -8 269 -8 C331 -8 380 19 404 72 L406 0 L471 0 L471 440 L404 440 L404 187 C401 103 349 53 274 53 C196 53 143 106 143 194 L143 440 Z " />
<glyph glyph-name="paragraph" unicode="&#xb6;" horiz-adv-x="601" d="M371 -188 L371 600 L430 600 L430 -188 L482 -188 L482 600 L587 600 L587 648 L310 648 C160 648 38 564 38 420 C38 276 160 192 310 192 L319 192 L319 -188 L371 -188 Z " />
<glyph glyph-name="periodcentered" unicode="&#xb7;" horiz-adv-x="231" d="M115 197 L165 246 L115 296 L66 246 L115 197 Z " />
<glyph glyph-name="cedilla" unicode="&#xb8;" horiz-adv-x="708" d="M280 -197 C299 -211 326 -218 346 -218 C405 -218 438 -183 438 -134 C438 -98 415 -68 362 -54 L385 6 L342 6 L307 -87 C376 -89 390 -114 390 -136 C390 -155 379 -175 345 -175 C324 -175 299 -169 280 -152 L280 -197 Z " />
<glyph glyph-name="onesuperior" unicode="&#xb9;" horiz-adv-x="380" d="M72 722 L208 772 L208 484 L263 484 L263 848 L72 774 L72 722 Z " />
<glyph glyph-name="ordmasculine" unicode="&#xba;" horiz-adv-x="515" d="M433 143 L433 200 L71 200 L71 143 L433 143 Z M251 341 C170 341 117 397 117 472 C117 547 170 603 251 603 C333 603 384 547 384 472 C384 397 333 341 251 341 L251 341 Z M251 288 C367 288 443 370 443 472 C443 574 367 656 251 656 C135 656 58 574 58 472 C58 370 135 288 251 288 L251 288 Z " />
<glyph glyph-name="guillemotright" unicode="&#xbb;" horiz-adv-x="580" d="M83 460 L83 382 L225 244 L83 106 L83 28 L312 244 L83 460 Z M298 460 L298 382 L440 244 L298 106 L298 28 L527 244 L298 460 Z " />
<glyph glyph-name="onequarter" unicode="&#xbc;" horiz-adv-x="811" d="M690 0 L690 69 L765 69 L765 118 L690 118 L690 354 L647 354 L392 102 L392 69 L637 69 L637 0 L690 0 Z M240 0 L583 648 L525 648 L181 0 L240 0 Z M47 534 L183 584 L183 296 L238 296 L238 660 L47 586 L47 534 Z M472 118 L637 279 L637 118 L472 118 Z " />
<glyph glyph-name="onehalf" unicode="&#xbd;" horiz-adv-x="851" d="M794 0 L794 51 L604 51 C710 113 766 163 766 235 C766 311 709 360 607 360 C560 360 510 346 479 320 L479 267 C514 292 557 307 605 307 C676 307 707 277 707 233 C707 178 670 138 474 27 L474 0 L794 0 Z M240 0 L583 648 L525 648 L181 0 L240 0 Z M47 534 L183 584 L183 296 L238 296 L238 660 L47 586 L47 534 Z " />
<glyph glyph-name="threequarters" unicode="&#xbe;" horiz-adv-x="837" d="M728 0 L728 69 L803 69 L803 118 L728 118 L728 354 L684 354 L430 102 L430 69 L675 69 L675 0 L728 0 Z M49 648 L49 596 L252 596 L100 492 L100 463 C131 470 158 473 189 473 C285 473 314 445 314 407 C314 368 284 341 192 341 C136 341 92 354 46 381 L46 324 C81 300 134 288 194 288 C323 288 373 343 373 407 C373 476 323 516 220 520 L362 615 L362 648 L49 648 Z M283 0 L628 648 L569 648 L224 0 L283 0 Z M510 118 L675 279 L675 118 L510 118 Z " />
<glyph glyph-name="questiondown" unicode="&#xbf;" horiz-adv-x="397" d="M230 468 C208 468 191 451 191 428 C191 406 208 388 230 388 C253 388 270 406 270 428 C270 451 253 468 230 468 L230 468 Z M209 280 L209 230 C209 175 182 152 131 120 C82 91 25 51 25 -37 C25 -126 90 -196 225 -196 C296 -196 354 -173 386 -142 L386 -73 C349 -111 290 -130 228 -130 C141 -130 97 -92 97 -30 C97 29 136 56 180 85 C240 122 265 156 265 217 C265 242 261 259 256 280 L209 280 Z " />
<glyph glyph-name="Agrave" unicode="&#xc0;" horiz-adv-x="653" d="M84 0 L146 143 L506 143 L568 0 L642 0 L355 648 L300 648 L11 0 L84 0 Z M328 556 L477 210 L176 210 L328 556 Z M174 839 L294 720 L357 720 L357 724 L253 843 L174 843 L174 839 Z " />
<glyph glyph-name="Aacute" unicode="&#xc1;" horiz-adv-x="653" d="M84 0 L146 143 L506 143 L568 0 L642 0 L355 648 L300 648 L11 0 L84 0 Z M328 556 L477 210 L176 210 L328 556 Z M486 843 L408 843 L304 724 L304 720 L367 720 L486 839 L486 843 Z " />
<glyph glyph-name="Acircumflex" unicode="&#xc2;" horiz-adv-x="653" d="M84 0 L146 143 L506 143 L568 0 L642 0 L355 648 L300 648 L11 0 L84 0 Z M328 556 L477 210 L176 210 L328 556 Z M474 720 L474 724 L364 843 L288 843 L177 724 L177 720 L236 720 L325 801 L414 720 L474 720 Z " />
<glyph glyph-name="Atilde" unicode="&#xc3;" horiz-adv-x="653" d="M84 0 L146 143 L506 143 L568 0 L642 0 L355 648 L300 648 L11 0 L84 0 Z M328 556 L477 210 L176 210 L328 556 Z M471 842 L417 842 L417 808 C417 796 412 790 401 790 C391 790 378 794 365 800 L297 831 C281 838 261 845 241 845 C204 845 182 823 182 782 L182 738 L235 738 L235 772 C235 783 240 789 251 789 C262 789 273 785 286 779 L356 749 C374 740 393 734 412 734 C449 734 471 754 471 797 L471 842 Z " />
<glyph glyph-name="Adieresis" unicode="&#xc4;" horiz-adv-x="653" d="M84 0 L146 143 L506 143 L568 0 L642 0 L355 648 L300 648 L11 0 L84 0 Z M328 556 L477 210 L176 210 L328 556 Z M411 727 C434 727 452 745 452 767 C452 790 434 808 411 808 C389 808 371 790 371 767 C371 745 389 727 411 727 L411 727 Z M241 727 C264 727 282 745 282 767 C282 790 264 808 241 808 C219 808 201 790 201 767 C201 745 219 727 241 727 L241 727 Z " />
<glyph glyph-name="Aring" unicode="&#xc5;" horiz-adv-x="653" d="M84 0 L146 143 L506 143 L568 0 L642 0 L355 648 L300 648 L11 0 L84 0 Z M328 556 L477 210 L176 210 L328 556 Z M326 755 C297 755 282 773 282 796 C282 819 297 837 326 837 C356 837 371 819 371 796 C371 773 356 755 326 755 L326 755 Z M326 712 C380 712 419 745 419 796 C419 847 380 880 326 880 C273 880 233 847 233 796 C233 745 273 712 326 712 L326 712 Z " />
<glyph glyph-name="AE" unicode="&#xc6;" horiz-adv-x="1075" d="M86 0 L198 143 L524 143 L524 0 L1018 0 L1018 66 L594 66 L594 302 L893 302 L893 368 L594 368 L594 582 L1010 582 L1010 648 L513 648 L8 0 L86 0 Z M251 210 L524 557 L524 210 L251 210 Z " />
<glyph glyph-name="Ccedilla" unicode="&#xc7;" horiz-adv-x="669" d="M304 -197 C323 -211 350 -218 370 -218 C429 -218 462 -183 462 -134 C462 -98 439 -68 386 -54 L403 -8 C490 -5 559 19 610 65 L610 146 C551 83 471 58 388 58 C236 58 127 161 127 324 C127 487 236 590 388 590 C485 590 554 558 610 503 L610 583 C558 627 487 656 388 656 C203 656 55 523 55 324 C55 134 193 5 361 -7 L331 -87 C400 -89 414 -114 414 -136 C414 -155 403 -175 369 -175 C348 -175 323 -169 304 -152 L304 -197 Z " />
<glyph glyph-name="Egrave" unicode="&#xc8;" horiz-adv-x="653" d="M596 0 L596 66 L174 66 L174 302 L471 302 L471 368 L174 368 L174 582 L588 582 L588 648 L103 648 L103 0 L596 0 Z M218 839 L338 720 L401 720 L401 724 L297 843 L218 843 L218 839 Z " />
<glyph glyph-name="Eacute" unicode="&#xc9;" horiz-adv-x="653" d="M596 0 L596 66 L174 66 L174 302 L471 302 L471 368 L174 368 L174 582 L588 582 L588 648 L103 648 L103 0 L596 0 Z M502 843 L424 843 L320 724 L320 720 L383 720 L502 839 L502 843 Z " />
<glyph glyph-name="Ecircumflex" unicode="&#xca;" horiz-adv-x="653" d="M596 0 L596 66 L174 66 L174 302 L471 302 L471 368 L174 368 L174 582 L588 582 L588 648 L103 648 L103 0 L596 0 Z M498 720 L498 724 L388 843 L312 843 L201 724 L201 720 L260 720 L349 801 L438 720 L498 720 Z " />
<glyph glyph-name="Edieresis" unicode="&#xcb;" horiz-adv-x="653" d="M596 0 L596 66 L174 66 L174 302 L471 302 L471 368 L174 368 L174 582 L588 582 L588 648 L103 648 L103 0 L596 0 Z M435 727 C458 727 476 745 476 767 C476 790 458 808 435 808 C413 808 395 790 395 767 C395 745 413 727 435 727 L435 727 Z M265 727 C288 727 306 745 306 767 C306 790 288 808 265 808 C243 808 225 790 225 767 C225 745 243 727 265 727 L265 727 Z " />
<glyph glyph-name="Igrave" unicode="&#xcc;" horiz-adv-x="269" d="M170 0 L170 648 L100 648 L100 0 L170 0 Z M-13 839 L107 720 L170 720 L170 724 L66 843 L-13 843 L-13 839 Z " />
<glyph glyph-name="Iacute" unicode="&#xcd;" horiz-adv-x="269" d="M170 0 L170 648 L100 648 L100 0 L170 0 Z M285 843 L207 843 L103 724 L103 720 L166 720 L285 839 L285 843 Z " />
<glyph glyph-name="Icircumflex" unicode="&#xce;" horiz-adv-x="269" d="M170 0 L170 648 L100 648 L100 0 L170 0 Z M283 720 L283 724 L173 843 L97 843 L-14 724 L-14 720 L45 720 L134 801 L223 720 L283 720 Z " />
<glyph glyph-name="Idieresis" unicode="&#xcf;" horiz-adv-x="269" d="M170 0 L170 648 L100 648 L100 0 L170 0 Z M220 727 C243 727 261 745 261 767 C261 790 243 808 220 808 C198 808 180 790 180 767 C180 745 198 727 220 727 L220 727 Z M50 727 C73 727 91 745 91 767 C91 790 73 808 50 808 C28 808 10 790 10 767 C10 745 28 727 50 727 L50 727 Z " />
<glyph glyph-name="Eth" unicode="&#xd0;" horiz-adv-x="709" d="M102 0 L300 0 C500 0 654 119 654 324 C654 529 500 648 300 648 L102 648 L102 355 L20 355 L20 297 L102 297 L102 0 Z M331 297 L331 355 L172 355 L172 582 L300 582 C466 582 582 488 582 324 C582 160 466 66 300 66 L172 66 L172 297 L331 297 Z " />
<glyph glyph-name="Ntilde" unicode="&#xd1;" horiz-adv-x="740" d="M170 0 L170 526 L580 0 L639 0 L639 648 L570 648 L570 123 L160 648 L102 648 L102 0 L170 0 Z M515 842 L461 842 L461 808 C461 796 456 790 445 790 C435 790 422 794 409 800 L341 831 C325 838 305 845 285 845 C248 845 226 823 226 782 L226 738 L279 738 L279 772 C279 783 284 789 295 789 C306 789 317 785 330 779 L400 749 C418 740 437 734 456 734 C493 734 515 754 515 797 L515 842 Z " />
<glyph glyph-name="Ograve" unicode="&#xd2;" horiz-adv-x="789" d="M394 -8 C578 -8 734 123 734 324 C734 525 578 656 394 656 C211 656 55 525 55 324 C55 123 211 -8 394 -8 L394 -8 Z M394 58 C242 58 127 165 127 324 C127 483 242 590 394 590 C547 590 662 483 662 324 C662 165 547 58 394 58 L394 58 Z M262 839 L382 720 L445 720 L445 724 L341 843 L262 843 L262 839 Z " />
<glyph glyph-name="Oacute" unicode="&#xd3;" horiz-adv-x="789" d="M394 -8 C578 -8 734 123 734 324 C734 525 578 656 394 656 C211 656 55 525 55 324 C55 123 211 -8 394 -8 L394 -8 Z M394 58 C242 58 127 165 127 324 C127 483 242 590 394 590 C547 590 662 483 662 324 C662 165 547 58 394 58 L394 58 Z M546 843 L468 843 L364 724 L364 720 L427 720 L546 839 L546 843 Z " />
<glyph glyph-name="Ocircumflex" unicode="&#xd4;" horiz-adv-x="789" d="M394 -8 C578 -8 734 123 734 324 C734 525 578 656 394 656 C211 656 55 525 55 324 C55 123 211 -8 394 -8 L394 -8 Z M394 58 C242 58 127 165 127 324 C127 483 242 590 394 590 C547 590 662 483 662 324 C662 165 547 58 394 58 L394 58 Z M542 720 L542 724 L432 843 L356 843 L245 724 L245 720 L304 720 L393 801 L482 720 L542 720 Z " />
<glyph glyph-name="Otilde" unicode="&#xd5;" horiz-adv-x="789" d="M394 -8 C578 -8 734 123 734 324 C734 525 578 656 394 656 C211 656 55 525 55 324 C55 123 211 -8 394 -8 L394 -8 Z M394 58 C242 58 127 165 127 324 C127 483 242 590 394 590 C547 590 662 483 662 324 C662 165 547 58 394 58 L394 58 Z M539 842 L485 842 L485 808 C485 796 480 790 469 790 C459 790 446 794 433 800 L365 831 C349 838 329 845 309 845 C272 845 250 823 250 782 L250 738 L303 738 L303 772 C303 783 308 789 319 789 C330 789 341 785 354 779 L424 749 C442 740 461 734 480 734 C517 734 539 754 539 797 L539 842 Z " />
<glyph glyph-name="Odieresis" unicode="&#xd6;" horiz-adv-x="789" d="M394 -8 C578 -8 734 123 734 324 C734 525 578 656 394 656 C211 656 55 525 55 324 C55 123 211 -8 394 -8 L394 -8 Z M394 58 C242 58 127 165 127 324 C127 483 242 590 394 590 C547 590 662 483 662 324 C662 165 547 58 394 58 L394 58 Z M479 727 C502 727 520 745 520 767 C520 790 502 808 479 808 C457 808 439 790 439 767 C439 745 457 727 479 727 L479 727 Z M309 727 C332 727 350 745 350 767 C350 790 332 808 309 808 C287 808 269 790 269 767 C269 745 287 727 309 727 L309 727 Z " />
<glyph glyph-name="multiply" unicode="&#xd7;" horiz-adv-x="572" d="M140 134 L286 283 L432 134 L468 175 L324 322 L468 469 L432 510 L286 361 L140 510 L104 469 L248 322 L104 175 L140 134 Z " />
<glyph glyph-name="Oslash" unicode="&#xd8;" horiz-adv-x="789" d="M394 -8 C578 -8 734 123 734 324 C734 408 707 479 662 534 L784 648 L700 648 L622 575 C561 627 480 656 394 656 C211 656 55 525 55 324 C55 240 82 169 126 114 L4 0 L88 0 L166 73 C227 21 307 -8 394 -8 L394 -8 Z M394 58 C324 58 263 80 216 119 L611 487 C643 443 662 388 662 324 C662 165 547 58 394 58 L394 58 Z M127 324 C127 483 242 590 394 590 C463 590 525 568 572 529 L177 161 C145 204 127 260 127 324 L127 324 Z " />
<glyph glyph-name="Ugrave" unicode="&#xd9;" horiz-adv-x="718" d="M360 -8 C515 -8 624 96 624 271 L624 648 L554 648 L554 271 C554 146 494 58 360 58 C226 58 164 146 164 271 L164 648 L94 648 L94 271 C94 98 205 -8 360 -8 L360 -8 Z M227 839 L347 720 L410 720 L410 724 L306 843 L227 843 L227 839 Z " />
<glyph glyph-name="Uacute" unicode="&#xda;" horiz-adv-x="718" d="M360 -8 C515 -8 624 96 624 271 L624 648 L554 648 L554 271 C554 146 494 58 360 58 C226 58 164 146 164 271 L164 648 L94 648 L94 271 C94 98 205 -8 360 -8 L360 -8 Z M511 843 L433 843 L329 724 L329 720 L392 720 L511 839 L511 843 Z " />
<glyph glyph-name="Ucircumflex" unicode="&#xdb;" horiz-adv-x="718" d="M360 -8 C515 -8 624 96 624 271 L624 648 L554 648 L554 271 C554 146 494 58 360 58 C226 58 164 146 164 271 L164 648 L94 648 L94 271 C94 98 205 -8 360 -8 L360 -8 Z M507 720 L507 724 L397 843 L321 843 L210 724 L210 720 L269 720 L358 801 L447 720 L507 720 Z " />
<glyph glyph-name="Udieresis" unicode="&#xdc;" horiz-adv-x="718" d="M360 -8 C515 -8 624 96 624 271 L624 648 L554 648 L554 271 C554 146 494 58 360 58 C226 58 164 146 164 271 L164 648 L94 648 L94 271 C94 98 205 -8 360 -8 L360 -8 Z M444 727 C467 727 485 745 485 767 C485 790 467 808 444 808 C422 808 404 790 404 767 C404 745 422 727 444 727 L444 727 Z M274 727 C297 727 315 745 315 767 C315 790 297 808 274 808 C252 808 234 790 234 767 C234 745 252 727 274 727 L274 727 Z " />
<glyph glyph-name="Yacute" unicode="&#xdd;" horiz-adv-x="645" d="M360 0 L360 262 L629 648 L545 648 L323 327 L100 648 L16 648 L287 262 L287 0 L360 0 Z M474 843 L396 843 L292 724 L292 720 L355 720 L474 839 L474 843 Z " />
<glyph glyph-name="Thorn" unicode="&#xde;" horiz-adv-x="610" d="M172 0 L172 128 L350 128 C501 128 575 219 575 324 C575 432 495 522 350 522 L172 522 L172 648 L102 648 L102 0 L172 0 Z M346 456 C454 456 503 398 503 324 C503 250 454 192 346 192 L172 192 L172 456 L346 456 Z " />
<glyph glyph-name="germandbls" unicode="&#xdf;" horiz-adv-x="587" d="M222 19 C252 0 300 -8 343 -8 C473 -8 545 72 545 180 C545 261 494 324 413 346 C463 371 493 419 493 481 C493 578 421 656 286 656 C161 656 79 586 79 462 L79 0 L145 0 L145 468 C145 548 197 597 286 597 C386 597 429 545 429 480 C429 409 383 360 298 360 L249 360 L249 304 L308 304 C423 304 477 259 477 180 C477 100 433 51 337 51 C290 51 247 64 222 81 L222 19 Z " />
<glyph glyph-name="agrave" unicode="&#xe0;" horiz-adv-x="492" d="M209 -8 C281 -8 327 21 352 63 L355 0 L417 0 L417 264 C417 362 359 448 217 448 C161 448 103 432 67 403 L67 339 C107 372 157 387 214 387 C308 387 351 338 351 267 L351 250 C321 260 285 267 242 267 C111 267 50 207 50 127 C50 52 110 -8 209 -8 L209 -8 Z M216 51 C150 51 116 84 116 127 C116 180 160 210 236 210 C279 210 315 205 351 193 L351 171 C351 94 293 51 216 51 L216 51 Z M101 631 L221 512 L284 512 L284 516 L180 635 L101 635 L101 631 Z " />
<glyph glyph-name="aacute" unicode="&#xe1;" horiz-adv-x="492" d="M209 -8 C281 -8 327 21 352 63 L355 0 L417 0 L417 264 C417 362 359 448 217 448 C161 448 103 432 67 403 L67 339 C107 372 157 387 214 387 C308 387 351 338 351 267 L351 250 C321 260 285 267 242 267 C111 267 50 207 50 127 C50 52 110 -8 209 -8 L209 -8 Z M216 51 C150 51 116 84 116 127 C116 180 160 210 236 210 C279 210 315 205 351 193 L351 171 C351 94 293 51 216 51 L216 51 Z M385 635 L307 635 L203 516 L203 512 L266 512 L385 631 L385 635 Z " />
<glyph glyph-name="acircumflex" unicode="&#xe2;" horiz-adv-x="492" d="M209 -8 C281 -8 327 21 352 63 L355 0 L417 0 L417 264 C417 362 359 448 217 448 C161 448 103 432 67 403 L67 339 C107 372 157 387 214 387 C308 387 351 338 351 267 L351 250 C321 260 285 267 242 267 C111 267 50 207 50 127 C50 52 110 -8 209 -8 L209 -8 Z M216 51 C150 51 116 84 116 127 C116 180 160 210 236 210 C279 210 315 205 351 193 L351 171 C351 94 293 51 216 51 L216 51 Z M381 512 L381 516 L271 635 L195 635 L84 516 L84 512 L143 512 L232 593 L321 512 L381 512 Z " />
<glyph glyph-name="atilde" unicode="&#xe3;" horiz-adv-x="492" d="M209 -8 C281 -8 327 21 352 63 L355 0 L417 0 L417 264 C417 362 359 448 217 448 C161 448 103 432 67 403 L67 339 C107 372 157 387 214 387 C308 387 351 338 351 267 L351 250 C321 260 285 267 242 267 C111 267 50 207 50 127 C50 52 110 -8 209 -8 L209 -8 Z M216 51 C150 51 116 84 116 127 C116 180 160 210 236 210 C279 210 315 205 351 193 L351 171 C351 94 293 51 216 51 L216 51 Z M378 634 L324 634 L324 600 C324 588 319 582 308 582 C298 582 285 586 272 592 L204 623 C188 630 168 637 148 637 C111 637 89 615 89 574 L89 530 L142 530 L142 564 C142 575 147 581 158 581 C169 581 180 577 193 571 L263 541 C281 532 300 526 319 526 C356 526 378 546 378 589 L378 634 Z " />
<glyph glyph-name="adieresis" unicode="&#xe4;" horiz-adv-x="492" d="M209 -8 C281 -8 327 21 352 63 L355 0 L417 0 L417 264 C417 362 359 448 217 448 C161 448 103 432 67 403 L67 339 C107 372 157 387 214 387 C308 387 351 338 351 267 L351 250 C321 260 285 267 242 267 C111 267 50 207 50 127 C50 52 110 -8 209 -8 L209 -8 Z M216 51 C150 51 116 84 116 127 C116 180 160 210 236 210 C279 210 315 205 351 193 L351 171 C351 94 293 51 216 51 L216 51 Z M318 519 C341 519 359 537 359 559 C359 582 341 600 318 600 C296 600 278 582 278 559 C278 537 296 519 318 519 L318 519 Z M148 519 C171 519 189 537 189 559 C189 582 171 600 148 600 C126 600 108 582 108 559 C108 537 126 519 148 519 L148 519 Z " />
<glyph glyph-name="aring" unicode="&#xe5;" horiz-adv-x="492" d="M209 -8 C281 -8 327 21 352 63 L355 0 L417 0 L417 264 C417 362 359 448 217 448 C161 448 103 432 67 403 L67 339 C107 372 157 387 214 387 C308 387 351 338 351 267 L351 250 C321 260 285 267 242 267 C111 267 50 207 50 127 C50 52 110 -8 209 -8 L209 -8 Z M216 51 C150 51 116 84 116 127 C116 180 160 210 236 210 C279 210 315 205 351 193 L351 171 C351 94 293 51 216 51 L216 51 Z M233 547 C204 547 189 565 189 588 C189 611 204 629 233 629 C263 629 278 611 278 588 C278 565 263 547 233 547 L233 547 Z M233 504 C287 504 326 537 326 588 C326 639 287 672 233 672 C180 672 140 639 140 588 C140 537 180 504 233 504 L233 504 Z " />
<glyph glyph-name="ae" unicode="&#xe6;" horiz-adv-x="803" d="M742 112 C700 76 649 53 588 53 C490 53 424 113 417 208 L761 208 L761 227 C761 345 694 448 560 448 C487 448 428 414 393 357 C363 410 303 448 210 448 C160 448 99 432 62 403 L62 338 C103 370 152 387 207 387 C301 387 351 334 351 264 L351 263 L242 263 C111 263 50 205 50 126 C50 52 110 -8 214 -8 C312 -8 368 37 389 96 C426 33 494 -8 584 -8 C651 -8 702 11 742 46 L742 112 Z M216 51 C150 51 116 84 116 127 C116 180 161 208 238 208 L351 208 L351 177 C351 97 294 51 216 51 L216 51 Z M560 389 C645 389 689 333 694 263 L419 263 C432 344 485 389 560 389 L560 389 Z " />
<glyph glyph-name="ccedilla" unicode="&#xe7;" horiz-adv-x="451" d="M176 -197 C195 -211 222 -218 242 -218 C301 -218 334 -183 334 -134 C334 -98 311 -68 258 -54 L275 -8 C326 -7 367 4 406 33 L406 100 C375 72 335 53 275 53 C176 53 107 123 107 220 C107 317 172 387 272 387 C328 387 373 366 406 340 L406 409 C371 434 324 448 269 448 C137 448 40 355 40 220 C40 98 119 11 233 -5 L203 -87 C272 -89 286 -114 286 -136 C286 -155 275 -175 241 -175 C220 -175 195 -169 176 -152 L176 -197 Z " />
<glyph glyph-name="egrave" unicode="&#xe8;" horiz-adv-x="492" d="M431 112 C390 76 341 53 275 53 C177 53 112 113 105 208 L450 208 L450 227 C450 345 384 448 250 448 C129 448 40 355 40 220 C40 91 132 -8 271 -8 C341 -8 392 11 431 46 L431 112 Z M250 389 C334 389 379 333 384 263 L107 263 C120 344 174 389 250 389 L250 389 Z M118 631 L238 512 L301 512 L301 516 L197 635 L118 635 L118 631 Z " />
<glyph glyph-name="eacute" unicode="&#xe9;" horiz-adv-x="492" d="M431 112 C390 76 341 53 275 53 C177 53 112 113 105 208 L450 208 L450 227 C450 345 384 448 250 448 C129 448 40 355 40 220 C40 91 132 -8 271 -8 C341 -8 392 11 431 46 L431 112 Z M250 389 C334 389 379 333 384 263 L107 263 C120 344 174 389 250 389 L250 389 Z M402 635 L324 635 L220 516 L220 512 L283 512 L402 631 L402 635 Z " />
<glyph glyph-name="ecircumflex" unicode="&#xea;" horiz-adv-x="492" d="M431 112 C390 76 341 53 275 53 C177 53 112 113 105 208 L450 208 L450 227 C450 345 384 448 250 448 C129 448 40 355 40 220 C40 91 132 -8 271 -8 C341 -8 392 11 431 46 L431 112 Z M250 389 C334 389 379 333 384 263 L107 263 C120 344 174 389 250 389 L250 389 Z M398 512 L398 516 L288 635 L212 635 L101 516 L101 512 L160 512 L249 593 L338 512 L398 512 Z " />
<glyph glyph-name="edieresis" unicode="&#xeb;" horiz-adv-x="492" d="M431 112 C390 76 341 53 275 53 C177 53 112 113 105 208 L450 208 L450 227 C450 345 384 448 250 448 C129 448 40 355 40 220 C40 91 132 -8 271 -8 C341 -8 392 11 431 46 L431 112 Z M250 389 C334 389 379 333 384 263 L107 263 C120 344 174 389 250 389 L250 389 Z M335 519 C358 519 376 537 376 559 C376 582 358 600 335 600 C313 600 295 582 295 559 C295 537 313 519 335 519 L335 519 Z M165 519 C188 519 206 537 206 559 C206 582 188 600 165 600 C143 600 125 582 125 559 C125 537 143 519 165 519 L165 519 Z " />
<glyph glyph-name="igrave" unicode="&#xec;" horiz-adv-x="224" d="M145 0 L145 440 L79 440 L79 0 L145 0 Z M-36 631 L84 512 L147 512 L147 516 L43 635 L-36 635 L-36 631 Z " />
<glyph glyph-name="iacute" unicode="&#xed;" horiz-adv-x="224" d="M145 0 L145 440 L79 440 L79 0 L145 0 Z M261 635 L183 635 L79 516 L79 512 L142 512 L261 631 L261 635 Z " />
<glyph glyph-name="icircumflex" unicode="&#xee;" horiz-adv-x="224" d="M145 0 L145 440 L79 440 L79 0 L145 0 Z M260 512 L260 516 L150 635 L74 635 L-37 516 L-37 512 L22 512 L111 593 L200 512 L260 512 Z " />
<glyph glyph-name="idieresis" unicode="&#xef;" horiz-adv-x="224" d="M145 0 L145 440 L79 440 L79 0 L145 0 Z M197 519 C220 519 238 537 238 559 C238 582 220 600 197 600 C175 600 157 582 157 559 C157 537 175 519 197 519 L197 519 Z M27 519 C50 519 68 537 68 559 C68 582 50 600 27 600 C5 600 -13 582 -13 559 C-13 537 5 519 27 519 L27 519 Z " />
<glyph glyph-name="eth" unicode="&#xf0;" horiz-adv-x="536" d="M445 521 L445 576 L299 576 L244 648 L170 648 L225 576 L122 576 L122 521 L267 521 L307 469 L332 437 C312 444 291 448 267 448 C134 448 40 351 40 220 C40 88 134 -8 269 -8 C406 -8 496 89 496 223 C496 337 423 422 356 503 L342 521 L445 521 Z M269 53 C173 53 108 118 108 220 C108 322 173 387 269 387 C367 387 427 320 430 227 L430 220 C430 122 369 53 269 53 L269 53 Z " />
<glyph glyph-name="ntilde" unicode="&#xf1;" horiz-adv-x="545" d="M145 0 L145 252 C145 336 197 387 274 387 C353 387 403 334 403 246 L403 0 L470 0 L470 246 C470 375 389 448 282 448 C218 448 169 420 145 367 L144 440 L79 440 L79 0 L145 0 Z M418 634 L364 634 L364 600 C364 588 359 582 348 582 C338 582 325 586 312 592 L244 623 C228 630 208 637 188 637 C151 637 129 615 129 574 L129 530 L182 530 L182 564 C182 575 187 581 198 581 C209 581 220 577 233 571 L303 541 C321 532 340 526 359 526 C396 526 418 546 418 589 L418 634 Z " />
<glyph glyph-name="ograve" unicode="&#xf2;" horiz-adv-x="538" d="M269 -8 C401 -8 498 85 498 220 C498 355 401 448 269 448 C137 448 40 355 40 220 C40 85 137 -8 269 -8 L269 -8 Z M269 53 C171 53 108 120 108 220 C108 320 171 387 269 387 C367 387 430 320 430 220 C430 120 367 53 269 53 L269 53 Z M137 631 L257 512 L320 512 L320 516 L216 635 L137 635 L137 631 Z " />
<glyph glyph-name="oacute" unicode="&#xf3;" horiz-adv-x="538" d="M269 -8 C401 -8 498 85 498 220 C498 355 401 448 269 448 C137 448 40 355 40 220 C40 85 137 -8 269 -8 L269 -8 Z M269 53 C171 53 108 120 108 220 C108 320 171 387 269 387 C367 387 430 320 430 220 C430 120 367 53 269 53 L269 53 Z M421 635 L343 635 L239 516 L239 512 L302 512 L421 631 L421 635 Z " />
<glyph glyph-name="ocircumflex" unicode="&#xf4;" horiz-adv-x="538" d="M269 -8 C401 -8 498 85 498 220 C498 355 401 448 269 448 C137 448 40 355 40 220 C40 85 137 -8 269 -8 L269 -8 Z M269 53 C171 53 108 120 108 220 C108 320 171 387 269 387 C367 387 430 320 430 220 C430 120 367 53 269 53 L269 53 Z M417 512 L417 516 L307 635 L231 635 L120 516 L120 512 L179 512 L268 593 L357 512 L417 512 Z " />
<glyph glyph-name="otilde" unicode="&#xf5;" horiz-adv-x="538" d="M269 -8 C401 -8 498 85 498 220 C498 355 401 448 269 448 C137 448 40 355 40 220 C40 85 137 -8 269 -8 L269 -8 Z M269 53 C171 53 108 120 108 220 C108 320 171 387 269 387 C367 387 430 320 430 220 C430 120 367 53 269 53 L269 53 Z M414 634 L360 634 L360 600 C360 588 355 582 344 582 C334 582 321 586 308 592 L240 623 C224 630 204 637 184 637 C147 637 125 615 125 574 L125 530 L178 530 L178 564 C178 575 183 581 194 581 C205 581 216 577 229 571 L299 541 C317 532 336 526 355 526 C392 526 414 546 414 589 L414 634 Z " />
<glyph glyph-name="odieresis" unicode="&#xf6;" horiz-adv-x="538" d="M269 -8 C401 -8 498 85 498 220 C498 355 401 448 269 448 C137 448 40 355 40 220 C40 85 137 -8 269 -8 L269 -8 Z M269 53 C171 53 108 120 108 220 C108 320 171 387 269 387 C367 387 430 320 430 220 C430 120 367 53 269 53 L269 53 Z M354 519 C377 519 395 537 395 559 C395 582 377 600 354 600 C332 600 314 582 314 559 C314 537 332 519 354 519 L354 519 Z M184 519 C207 519 225 537 225 559 C225 582 207 600 184 600 C162 600 144 582 144 559 C144 537 162 519 184 519 L184 519 Z " />
<glyph glyph-name="divide" unicode="&#xf7;" horiz-adv-x="572" d="M286 116 C309 116 328 134 328 157 C328 180 309 198 286 198 C263 198 244 180 244 157 C244 134 263 116 286 116 L286 116 Z M478 293 L478 351 L94 351 L94 293 L478 293 Z M288 444 C312 444 330 462 330 485 C330 508 312 526 288 526 C265 526 246 508 246 485 C246 462 265 444 288 444 L288 444 Z " />
<glyph glyph-name="oslash" unicode="&#xf8;" horiz-adv-x="538" d="M68 0 L116 45 C156 11 209 -8 269 -8 C401 -8 498 85 498 220 C498 276 481 325 451 363 L532 440 L459 440 L416 399 C377 430 326 448 269 448 C137 448 40 355 40 220 C40 166 55 119 82 81 L-3 0 L68 0 Z M269 53 C226 53 189 66 162 89 L404 318 C421 292 430 258 430 220 C430 120 367 53 269 53 L269 53 Z M108 220 C108 320 171 387 269 387 C309 387 343 375 370 355 L130 127 C116 153 108 184 108 220 L108 220 Z " />
<glyph glyph-name="ugrave" unicode="&#xf9;" horiz-adv-x="548" d="M75 440 L75 194 C75 65 157 -8 265 -8 C329 -8 379 19 403 73 L404 0 L469 0 L469 440 L403 440 L403 194 C403 106 351 53 272 53 C193 53 141 106 141 194 L141 440 L75 440 Z M138 631 L258 512 L321 512 L321 516 L217 635 L138 635 L138 631 Z " />
<glyph glyph-name="uacute" unicode="&#xfa;" horiz-adv-x="548" d="M75 440 L75 194 C75 65 157 -8 265 -8 C329 -8 379 19 403 73 L404 0 L469 0 L469 440 L403 440 L403 194 C403 106 351 53 272 53 C193 53 141 106 141 194 L141 440 L75 440 Z M422 635 L344 635 L240 516 L240 512 L303 512 L422 631 L422 635 Z " />
<glyph glyph-name="ucircumflex" unicode="&#xfb;" horiz-adv-x="548" d="M75 440 L75 194 C75 65 157 -8 265 -8 C329 -8 379 19 403 73 L404 0 L469 0 L469 440 L403 440 L403 194 C403 106 351 53 272 53 C193 53 141 106 141 194 L141 440 L75 440 Z M418 512 L418 516 L308 635 L232 635 L121 516 L121 512 L180 512 L269 593 L358 512 L418 512 Z " />
<glyph glyph-name="udieresis" unicode="&#xfc;" horiz-adv-x="548" d="M75 440 L75 194 C75 65 157 -8 265 -8 C329 -8 379 19 403 73 L404 0 L469 0 L469 440 L403 440 L403 194 C403 106 351 53 272 53 C193 53 141 106 141 194 L141 440 L75 440 Z M355 519 C378 519 396 537 396 559 C396 582 378 600 355 600 C333 600 315 582 315 559 C315 537 333 519 355 519 L355 519 Z M185 519 C208 519 226 537 226 559 C226 582 208 600 185 600 C163 600 145 582 145 559 C145 537 163 519 185 519 L185 519 Z " />
<glyph glyph-name="yacute" unicode="&#xfd;" horiz-adv-x="468" d="M166 -188 L464 440 L392 440 L239 105 L78 440 L5 440 L206 32 L98 -188 L166 -188 Z M389 635 L311 635 L207 516 L207 512 L270 512 L389 631 L389 635 Z " />
<glyph glyph-name="thorn" unicode="&#xfe;" horiz-adv-x="536" d="M145 -188 L145 7 C174 -2 209 -8 255 -8 C394 -8 496 83 496 230 C496 348 415 448 287 448 C226 448 171 422 145 367 L145 649 L79 649 L79 -188 L145 -188 Z M283 387 C369 387 428 324 428 228 C428 118 359 53 255 53 C210 53 176 59 145 73 L145 243 C145 328 199 387 283 387 L283 387 Z " />
<glyph glyph-name="ydieresis" unicode="&#xff;" horiz-adv-x="468" d="M166 -188 L464 440 L392 440 L239 105 L78 440 L5 440 L206 32 L98 -188 L166 -188 Z M322 519 C345 519 363 537 363 559 C363 582 345 600 322 600 C300 600 282 582 282 559 C282 537 300 519 322 519 L322 519 Z M152 519 C175 519 193 537 193 559 C193 582 175 600 152 600 C130 600 112 582 112 559 C112 537 130 519 152 519 L152 519 Z " />
<glyph glyph-name="Amacron" unicode="&#x100;" horiz-adv-x="653" d="M84 0 L146 143 L506 143 L568 0 L642 0 L355 648 L300 648 L11 0 L84 0 Z M328 556 L477 210 L176 210 L328 556 Z M462 738 L462 796 L188 796 L188 738 L462 738 Z " />
<glyph glyph-name="amacron" unicode="&#x101;" horiz-adv-x="492" d="M209 -8 C281 -8 327 21 352 63 L355 0 L417 0 L417 264 C417 362 359 448 217 448 C161 448 103 432 67 403 L67 339 C107 372 157 387 214 387 C308 387 351 338 351 267 L351 250 C321 260 285 267 242 267 C111 267 50 207 50 127 C50 52 110 -8 209 -8 L209 -8 Z M216 51 C150 51 116 84 116 127 C116 180 160 210 236 210 C279 210 315 205 351 193 L351 171 C351 94 293 51 216 51 L216 51 Z M369 530 L369 588 L95 588 L95 530 L369 530 Z " />
<glyph glyph-name="Abreve" unicode="&#x102;" horiz-adv-x="653" d="M84 0 L146 143 L506 143 L568 0 L642 0 L355 648 L300 648 L11 0 L84 0 Z M328 556 L477 210 L176 210 L328 556 Z M410 858 C410 801 374 776 326 776 C277 776 243 801 243 858 L187 858 C187 774 242 725 326 725 C412 725 466 777 466 858 L410 858 Z " />
<glyph glyph-name="abreve" unicode="&#x103;" horiz-adv-x="492" d="M209 -8 C281 -8 327 21 352 63 L355 0 L417 0 L417 264 C417 362 359 448 217 448 C161 448 103 432 67 403 L67 339 C107 372 157 387 214 387 C308 387 351 338 351 267 L351 250 C321 260 285 267 242 267 C111 267 50 207 50 127 C50 52 110 -8 209 -8 L209 -8 Z M216 51 C150 51 116 84 116 127 C116 180 160 210 236 210 C279 210 315 205 351 193 L351 171 C351 94 293 51 216 51 L216 51 Z M317 650 C317 593 281 568 233 568 C184 568 150 593 150 650 L94 650 C94 566 149 517 233 517 C319 517 373 569 373 650 L317 650 Z " />
<glyph glyph-name="Aogonek" unicode="&#x104;" horiz-adv-x="653" d="M614 -149 C600 -162 579 -167 561 -167 C537 -167 519 -154 519 -127 C519 -100 542 -82 563 -59 L618 0 L642 0 L355 648 L300 648 L11 0 L84 0 L146 143 L506 143 L566 3 L525 -36 C483 -76 463 -100 463 -137 C463 -191 503 -216 550 -216 C576 -216 599 -210 614 -198 L614 -149 Z M328 556 L477 210 L176 210 L328 556 Z " />
<glyph glyph-name="aogonek" unicode="&#x105;" horiz-adv-x="492" d="M403 -149 C389 -162 368 -167 350 -167 C326 -167 308 -154 308 -127 C308 -100 331 -82 352 -59 L407 0 L417 0 L417 264 C417 362 359 448 217 448 C161 448 103 432 67 403 L67 339 C107 372 157 387 214 387 C308 387 351 338 351 267 L351 250 C321 260 285 267 242 267 C111 267 50 207 50 127 C50 52 110 -8 209 -8 C281 -8 327 21 352 63 L355 3 L314 -36 C272 -76 252 -100 252 -137 C252 -191 292 -216 339 -216 C365 -216 388 -210 403 -198 L403 -149 Z M216 51 C150 51 116 84 116 127 C116 180 160 210 236 210 C279 210 315 205 351 193 L351 171 C351 94 293 51 216 51 L216 51 Z " />
<glyph glyph-name="Cacute" unicode="&#x106;" horiz-adv-x="669" d="M127 324 C127 487 236 590 388 590 C485 590 554 558 610 503 L610 583 C558 627 487 656 388 656 C203 656 55 523 55 324 C55 124 208 -8 388 -8 C482 -8 556 17 610 65 L610 146 C551 83 471 58 388 58 C236 58 127 161 127 324 L127 324 Z M538 843 L460 843 L356 724 L356 720 L419 720 L538 839 L538 843 Z " />
<glyph glyph-name="cacute" unicode="&#x107;" horiz-adv-x="451" d="M406 100 C375 72 335 53 275 53 C176 53 107 123 107 220 C107 317 172 387 272 387 C328 387 373 366 406 340 L406 409 C371 434 324 448 269 448 C137 448 40 355 40 220 C40 85 138 -8 273 -8 C325 -8 367 4 406 33 L406 100 Z M408 635 L330 635 L226 516 L226 512 L289 512 L408 631 L408 635 Z " />
<glyph glyph-name="Ccircumflex" unicode="&#x108;" horiz-adv-x="669" d="M127 324 C127 487 236 590 388 590 C485 590 554 558 610 503 L610 583 C558 627 487 656 388 656 C203 656 55 523 55 324 C55 124 208 -8 388 -8 C482 -8 556 17 610 65 L610 146 C551 83 471 58 388 58 C236 58 127 161 127 324 L127 324 Z M534 720 L534 724 L424 843 L348 843 L237 724 L237 720 L296 720 L385 801 L474 720 L534 720 Z " />
<glyph glyph-name="ccircumflex" unicode="&#x109;" horiz-adv-x="451" d="M406 100 C375 72 335 53 275 53 C176 53 107 123 107 220 C107 317 172 387 272 387 C328 387 373 366 406 340 L406 409 C371 434 324 448 269 448 C137 448 40 355 40 220 C40 85 138 -8 273 -8 C325 -8 367 4 406 33 L406 100 Z M404 512 L404 516 L294 635 L218 635 L107 516 L107 512 L166 512 L255 593 L344 512 L404 512 Z " />
<glyph glyph-name="Cdotaccent" unicode="&#x10a;" horiz-adv-x="669" d="M127 324 C127 487 236 590 388 590 C485 590 554 558 610 503 L610 583 C558 627 487 656 388 656 C203 656 55 523 55 324 C55 124 208 -8 388 -8 C482 -8 556 17 610 65 L610 146 C551 83 471 58 388 58 C236 58 127 161 127 324 L127 324 Z M386 725 C410 725 429 745 429 769 C429 792 410 812 386 812 C361 812 343 792 343 769 C343 745 361 725 386 725 L386 725 Z " />
<glyph glyph-name="cdotaccent" unicode="&#x10b;" horiz-adv-x="451" d="M406 100 C375 72 335 53 275 53 C176 53 107 123 107 220 C107 317 172 387 272 387 C328 387 373 366 406 340 L406 409 C371 434 324 448 269 448 C137 448 40 355 40 220 C40 85 138 -8 273 -8 C325 -8 367 4 406 33 L406 100 Z M256 517 C280 517 299 537 299 561 C299 584 280 604 256 604 C231 604 213 584 213 561 C213 537 231 517 256 517 L256 517 Z " />
<glyph glyph-name="Ccaron" unicode="&#x10c;" horiz-adv-x="669" d="M127 324 C127 487 236 590 388 590 C485 590 554 558 610 503 L610 583 C558 627 487 656 388 656 C203 656 55 523 55 324 C55 124 208 -8 388 -8 C482 -8 556 17 610 65 L610 146 C551 83 471 58 388 58 C236 58 127 161 127 324 L127 324 Z M237 845 L237 841 L348 722 L424 722 L534 841 L534 845 L474 845 L385 763 L296 845 L237 845 Z " />
<glyph glyph-name="ccaron" unicode="&#x10d;" horiz-adv-x="451" d="M406 100 C375 72 335 53 275 53 C176 53 107 123 107 220 C107 317 172 387 272 387 C328 387 373 366 406 340 L406 409 C371 434 324 448 269 448 C137 448 40 355 40 220 C40 85 138 -8 273 -8 C325 -8 367 4 406 33 L406 100 Z M107 637 L107 633 L218 514 L294 514 L404 633 L404 637 L344 637 L255 555 L166 637 L107 637 Z " />
<glyph glyph-name="Dcaron" unicode="&#x10e;" horiz-adv-x="709" d="M102 0 L300 0 C500 0 654 119 654 324 C654 529 500 648 300 648 L102 648 L102 0 Z M300 582 C466 582 582 488 582 324 C582 160 466 66 300 66 L172 66 L172 582 L300 582 Z M163 845 L163 841 L274 722 L350 722 L460 841 L460 845 L400 845 L311 763 L222 845 L163 845 Z " />
<glyph glyph-name="dcaron" unicode="&#x10f;" horiz-adv-x="586" d="M457 0 L457 648 L391 648 L391 432 C362 442 326 448 279 448 C141 448 40 357 40 210 C40 92 121 -8 250 -8 C310 -8 364 18 391 72 L393 0 L457 0 Z M253 53 C168 53 108 116 108 212 C108 322 176 387 279 387 C324 387 359 380 391 366 L391 203 C391 115 339 53 253 53 L253 53 Z M550 475 C578 506 594 545 594 601 L594 648 L536 648 L536 607 C536 556 526 513 497 475 L550 475 Z " />
<glyph glyph-name="Dcroat" unicode="&#x110;" horiz-adv-x="709" d="M102 0 L300 0 C500 0 654 119 654 324 C654 529 500 648 300 648 L102 648 L102 355 L20 355 L20 297 L102 297 L102 0 Z M331 297 L331 355 L172 355 L172 582 L300 582 C466 582 582 488 582 324 C582 160 466 66 300 66 L172 66 L172 297 L331 297 Z " />
<glyph glyph-name="dcroat" unicode="&#x111;" horiz-adv-x="540" d="M457 0 L457 518 L546 518 L546 573 L457 573 L457 648 L391 648 L391 573 L237 573 L237 518 L391 518 L391 432 C362 442 326 448 279 448 C141 448 40 357 40 210 C40 92 121 -8 250 -8 C310 -8 364 18 391 72 L393 0 L457 0 Z M253 53 C168 53 108 116 108 212 C108 322 176 387 279 387 C324 387 359 380 391 366 L391 203 C391 115 339 53 253 53 L253 53 Z " />
<glyph glyph-name="Emacron" unicode="&#x112;" horiz-adv-x="653" d="M596 0 L596 66 L174 66 L174 302 L471 302 L471 368 L174 368 L174 582 L588 582 L588 648 L103 648 L103 0 L596 0 Z M486 738 L486 796 L212 796 L212 738 L486 738 Z " />
<glyph glyph-name="emacron" unicode="&#x113;" horiz-adv-x="492" d="M431 112 C390 76 341 53 275 53 C177 53 112 113 105 208 L450 208 L450 227 C450 345 384 448 250 448 C129 448 40 355 40 220 C40 91 132 -8 271 -8 C341 -8 392 11 431 46 L431 112 Z M250 389 C334 389 379 333 384 263 L107 263 C120 344 174 389 250 389 L250 389 Z M386 530 L386 588 L112 588 L112 530 L386 530 Z " />
<glyph glyph-name="Ebreve" unicode="&#x114;" horiz-adv-x="653" d="M596 0 L596 66 L174 66 L174 302 L471 302 L471 368 L174 368 L174 582 L588 582 L588 648 L103 648 L103 0 L596 0 Z M434 858 C434 801 398 776 350 776 C301 776 267 801 267 858 L211 858 C211 774 266 725 350 725 C436 725 490 777 490 858 L434 858 Z " />
<glyph glyph-name="ebreve" unicode="&#x115;" horiz-adv-x="492" d="M431 112 C390 76 341 53 275 53 C177 53 112 113 105 208 L450 208 L450 227 C450 345 384 448 250 448 C129 448 40 355 40 220 C40 91 132 -8 271 -8 C341 -8 392 11 431 46 L431 112 Z M250 389 C334 389 379 333 384 263 L107 263 C120 344 174 389 250 389 L250 389 Z M334 650 C334 593 298 568 250 568 C201 568 167 593 167 650 L111 650 C111 566 166 517 250 517 C336 517 390 569 390 650 L334 650 Z " />
<glyph glyph-name="Edotaccent" unicode="&#x116;" horiz-adv-x="653" d="M596 0 L596 66 L174 66 L174 302 L471 302 L471 368 L174 368 L174 582 L588 582 L588 648 L103 648 L103 0 L596 0 Z M350 725 C374 725 393 745 393 769 C393 792 374 812 350 812 C325 812 307 792 307 769 C307 745 325 725 350 725 L350 725 Z " />
<glyph glyph-name="edotaccent" unicode="&#x117;" horiz-adv-x="492" d="M431 112 C390 76 341 53 275 53 C177 53 112 113 105 208 L450 208 L450 227 C450 345 384 448 250 448 C129 448 40 355 40 220 C40 91 132 -8 271 -8 C341 -8 392 11 431 46 L431 112 Z M250 389 C334 389 379 333 384 263 L107 263 C120 344 174 389 250 389 L250 389 Z M250 517 C274 517 293 537 293 561 C293 584 274 604 250 604 C225 604 207 584 207 561 C207 537 225 517 250 517 L250 517 Z " />
<glyph glyph-name="Eogonek" unicode="&#x118;" horiz-adv-x="653" d="M580 -149 C566 -162 545 -167 527 -167 C503 -167 485 -154 485 -127 C485 -100 508 -82 529 -59 L584 0 L596 0 L596 66 L174 66 L174 302 L471 302 L471 368 L174 368 L174 582 L588 582 L588 648 L103 648 L103 0 L529 0 L491 -36 C449 -76 429 -100 429 -137 C429 -191 469 -216 516 -216 C542 -216 565 -210 580 -198 L580 -149 Z " />
<glyph glyph-name="eogonek" unicode="&#x119;" horiz-adv-x="492" d="M361 -149 C347 -162 326 -167 308 -167 C284 -167 266 -154 266 -127 C266 -100 289 -82 310 -59 L374 10 C396 19 414 31 431 46 L431 112 C390 76 341 53 275 53 C177 53 112 113 105 208 L450 208 L450 227 C450 345 384 448 250 448 C129 448 40 355 40 220 C40 91 132 -8 271 -8 C282 -8 293 -7 303 -6 L272 -36 C230 -76 210 -100 210 -137 C210 -191 250 -216 297 -216 C323 -216 346 -210 361 -198 L361 -149 Z M250 389 C334 389 379 333 384 263 L107 263 C120 344 174 389 250 389 L250 389 Z " />
<glyph glyph-name="Ecaron" unicode="&#x11a;" horiz-adv-x="653" d="M596 0 L596 66 L174 66 L174 302 L471 302 L471 368 L174 368 L174 582 L588 582 L588 648 L103 648 L103 0 L596 0 Z M201 845 L201 841 L312 722 L388 722 L498 841 L498 845 L438 845 L349 763 L260 845 L201 845 Z " />
<glyph glyph-name="ecaron" unicode="&#x11b;" horiz-adv-x="492" d="M431 112 C390 76 341 53 275 53 C177 53 112 113 105 208 L450 208 L450 227 C450 345 384 448 250 448 C129 448 40 355 40 220 C40 91 132 -8 271 -8 C341 -8 392 11 431 46 L431 112 Z M250 389 C334 389 379 333 384 263 L107 263 C120 344 174 389 250 389 L250 389 Z M101 637 L101 633 L212 514 L288 514 L398 633 L398 637 L338 637 L249 555 L160 637 L101 637 Z " />
<glyph glyph-name="Gcircumflex" unicode="&#x11c;" horiz-adv-x="726" d="M650 54 L650 336 L371 336 L371 272 L583 272 L583 90 C529 64 471 57 406 57 C247 57 127 159 127 324 C127 485 242 590 399 590 C490 590 569 564 635 512 L635 588 C575 631 498 656 399 656 C206 656 55 520 55 324 C55 127 210 -8 406 -8 C493 -8 575 8 650 54 L650 54 Z M537 720 L537 724 L427 843 L351 843 L240 724 L240 720 L299 720 L388 801 L477 720 L537 720 Z " />
<glyph glyph-name="gcircumflex" unicode="&#x11d;" horiz-adv-x="512" d="M487 383 L487 440 L308 440 C287 445 264 448 241 448 C120 448 52 390 52 302 C52 237 88 190 155 169 C116 160 94 138 94 109 C94 83 109 65 133 54 C59 34 29 -8 29 -62 C29 -143 98 -196 245 -196 C391 -196 463 -139 463 -54 C463 13 416 68 288 81 L188 91 C161 94 148 104 148 121 C148 139 163 149 188 151 L244 157 C364 158 430 214 430 302 C430 337 420 363 404 383 L487 383 Z M397 -54 C397 -108 350 -139 246 -139 C136 -139 96 -106 96 -55 C96 -6 133 27 246 27 C359 27 397 -6 397 -54 L397 -54 Z M241 210 C162 210 115 241 115 302 C115 362 166 395 241 395 C319 395 366 362 366 302 C366 243 321 210 241 210 L241 210 Z M399 512 L399 516 L289 635 L213 635 L102 516 L102 512 L161 512 L250 593 L339 512 L399 512 Z " />
<glyph glyph-name="Gbreve" unicode="&#x11e;" horiz-adv-x="726" d="M650 54 L650 336 L371 336 L371 272 L583 272 L583 90 C529 64 471 57 406 57 C247 57 127 159 127 324 C127 485 242 590 399 590 C490 590 569 564 635 512 L635 588 C575 631 498 656 399 656 C206 656 55 520 55 324 C55 127 210 -8 406 -8 C493 -8 575 8 650 54 L650 54 Z M473 858 C473 801 437 776 389 776 C340 776 306 801 306 858 L250 858 C250 774 305 725 389 725 C475 725 529 777 529 858 L473 858 Z " />
<glyph glyph-name="gbreve" unicode="&#x11f;" horiz-adv-x="512" d="M487 383 L487 440 L308 440 C287 445 264 448 241 448 C120 448 52 390 52 302 C52 237 88 190 155 169 C116 160 94 138 94 109 C94 83 109 65 133 54 C59 34 29 -8 29 -62 C29 -143 98 -196 245 -196 C391 -196 463 -139 463 -54 C463 13 416 68 288 81 L188 91 C161 94 148 104 148 121 C148 139 163 149 188 151 L244 157 C364 158 430 214 430 302 C430 337 420 363 404 383 L487 383 Z M397 -54 C397 -108 350 -139 246 -139 C136 -139 96 -106 96 -55 C96 -6 133 27 246 27 C359 27 397 -6 397 -54 L397 -54 Z M241 210 C162 210 115 241 115 302 C115 362 166 395 241 395 C319 395 366 362 366 302 C366 243 321 210 241 210 L241 210 Z M335 650 C335 593 299 568 251 568 C202 568 168 593 168 650 L112 650 C112 566 167 517 251 517 C337 517 391 569 391 650 L335 650 Z " />
<glyph glyph-name="Gdotaccent" unicode="&#x120;" horiz-adv-x="726" d="M650 54 L650 336 L371 336 L371 272 L583 272 L583 90 C529 64 471 57 406 57 C247 57 127 159 127 324 C127 485 242 590 399 590 C490 590 569 564 635 512 L635 588 C575 631 498 656 399 656 C206 656 55 520 55 324 C55 127 210 -8 406 -8 C493 -8 575 8 650 54 L650 54 Z M389 725 C413 725 432 745 432 769 C432 792 413 812 389 812 C364 812 346 792 346 769 C346 745 364 725 389 725 L389 725 Z " />
<glyph glyph-name="gdotaccent" unicode="&#x121;" horiz-adv-x="512" d="M487 383 L487 440 L308 440 C287 445 264 448 241 448 C120 448 52 390 52 302 C52 237 88 190 155 169 C116 160 94 138 94 109 C94 83 109 65 133 54 C59 34 29 -8 29 -62 C29 -143 98 -196 245 -196 C391 -196 463 -139 463 -54 C463 13 416 68 288 81 L188 91 C161 94 148 104 148 121 C148 139 163 149 188 151 L244 157 C364 158 430 214 430 302 C430 337 420 363 404 383 L487 383 Z M397 -54 C397 -108 350 -139 246 -139 C136 -139 96 -106 96 -55 C96 -6 133 27 246 27 C359 27 397 -6 397 -54 L397 -54 Z M241 210 C162 210 115 241 115 302 C115 362 166 395 241 395 C319 395 366 362 366 302 C366 243 321 210 241 210 L241 210 Z M251 517 C275 517 294 537 294 561 C294 584 275 604 251 604 C226 604 208 584 208 561 C208 537 226 517 251 517 L251 517 Z " />
<glyph glyph-name="Gcommaaccent" unicode="&#x122;" horiz-adv-x="726" d="M650 54 L650 336 L371 336 L371 272 L583 272 L583 90 C529 64 471 57 406 57 C247 57 127 159 127 324 C127 485 242 590 399 590 C490 590 569 564 635 512 L635 588 C575 631 498 656 399 656 C206 656 55 520 55 324 C55 127 210 -8 406 -8 C493 -8 575 8 650 54 L650 54 Z M377 -235 C405 -203 420 -169 420 -113 L420 -62 L363 -62 L363 -107 C363 -158 352 -197 323 -235 L377 -235 Z " />
<glyph glyph-name="gcommaaccent" unicode="&#x123;" horiz-adv-x="512" d="M247 695 C219 664 204 630 204 574 L204 522 L261 522 L261 568 C261 619 271 657 300 695 L247 695 Z M487 383 L487 440 L308 440 C287 445 264 448 241 448 C120 448 52 390 52 302 C52 237 88 190 155 169 C116 160 94 138 94 109 C94 83 109 65 133 54 C59 34 29 -8 29 -62 C29 -143 98 -196 245 -196 C391 -196 463 -139 463 -54 C463 13 416 68 288 81 L188 91 C161 94 148 104 148 121 C148 139 163 149 188 151 L244 157 C364 158 430 214 430 302 C430 337 420 363 404 383 L487 383 Z M397 -54 C397 -108 350 -139 246 -139 C136 -139 96 -106 96 -55 C96 -6 133 27 246 27 C359 27 397 -6 397 -54 L397 -54 Z M241 210 C162 210 115 241 115 302 C115 362 166 395 241 395 C319 395 366 362 366 302 C366 243 321 210 241 210 L241 210 Z " />
<glyph glyph-name="Hcircumflex" unicode="&#x124;" horiz-adv-x="744" d="M172 0 L172 298 L572 298 L572 0 L642 0 L642 648 L572 648 L572 364 L172 364 L172 648 L102 648 L102 0 L172 0 Z M520 720 L520 724 L410 843 L334 843 L223 724 L223 720 L282 720 L371 801 L460 720 L520 720 Z " />
<glyph glyph-name="hcircumflex" unicode="&#x125;" horiz-adv-x="545" d="M145 0 L145 252 C145 336 197 387 274 387 C353 387 403 334 403 246 L403 0 L470 0 L470 246 C470 375 389 448 282 448 C218 448 169 421 145 368 L145 648 L79 648 L79 0 L145 0 Z M259 720 L259 724 L149 843 L73 843 L-38 724 L-38 720 L21 720 L110 801 L199 720 L259 720 Z " />
<glyph glyph-name="Hbar" unicode="&#x126;" horiz-adv-x="744" d="M172 0 L172 298 L572 298 L572 0 L642 0 L642 478 L725 478 L725 535 L642 535 L642 648 L572 648 L572 535 L172 535 L172 648 L102 648 L102 535 L18 535 L18 478 L102 478 L102 0 L172 0 Z M172 478 L572 478 L572 364 L172 364 L172 478 Z " />
<glyph glyph-name="hbar" unicode="&#x127;" horiz-adv-x="545" d="M145 0 L145 252 C145 336 197 387 274 387 C353 387 403 334 403 246 L403 0 L470 0 L470 246 C470 375 389 448 282 448 C218 448 169 421 145 368 L145 518 L300 518 L300 573 L145 573 L145 648 L79 648 L79 573 L0 573 L0 518 L79 518 L79 0 L145 0 Z " />
<glyph glyph-name="Itilde" unicode="&#x128;" horiz-adv-x="269" d="M170 0 L170 648 L100 648 L100 0 L170 0 Z M280 842 L226 842 L226 808 C226 796 221 790 210 790 C200 790 187 794 174 800 L106 831 C90 838 70 845 50 845 C13 845 -9 823 -9 782 L-9 738 L44 738 L44 772 C44 783 49 789 60 789 C71 789 82 785 95 779 L165 749 C183 740 202 734 221 734 C258 734 280 754 280 797 L280 842 Z " />
<glyph glyph-name="itilde" unicode="&#x129;" horiz-adv-x="224" d="M145 0 L145 440 L79 440 L79 0 L145 0 Z M257 634 L203 634 L203 600 C203 588 198 582 187 582 C177 582 164 586 151 592 L83 623 C67 630 47 637 27 637 C-10 637 -32 615 -32 574 L-32 530 L21 530 L21 564 C21 575 26 581 37 581 C48 581 59 577 72 571 L142 541 C160 532 179 526 198 526 C235 526 257 546 257 589 L257 634 Z " />
<glyph glyph-name="Imacron" unicode="&#x12a;" horiz-adv-x="269" d="M170 0 L170 648 L100 648 L100 0 L170 0 Z M271 738 L271 796 L-3 796 L-3 738 L271 738 Z " />
<glyph glyph-name="imacron" unicode="&#x12b;" horiz-adv-x="224" d="M145 0 L145 440 L79 440 L79 0 L145 0 Z M248 530 L248 588 L-26 588 L-26 530 L248 530 Z " />
<glyph glyph-name="Ibreve" unicode="&#x12c;" horiz-adv-x="269" d="M170 0 L170 648 L100 648 L100 0 L170 0 Z M219 858 C219 801 183 776 135 776 C86 776 52 801 52 858 L-4 858 C-4 774 51 725 135 725 C221 725 275 777 275 858 L219 858 Z " />
<glyph glyph-name="ibreve" unicode="&#x12d;" horiz-adv-x="224" d="M145 0 L145 440 L79 440 L79 0 L145 0 Z M196 650 C196 593 160 568 112 568 C63 568 29 593 29 650 L-27 650 C-27 566 28 517 112 517 C198 517 252 569 252 650 L196 650 Z " />
<glyph glyph-name="Iogonek" unicode="&#x12e;" horiz-adv-x="269" d="M155 -149 C141 -162 120 -167 102 -167 C78 -167 60 -154 60 -127 C60 -100 83 -82 104 -59 L159 0 L170 0 L170 648 L100 648 L100 0 L104 0 L66 -36 C24 -76 4 -100 4 -137 C4 -191 44 -216 91 -216 C117 -216 140 -210 155 -198 L155 -149 Z " />
<glyph glyph-name="iogonek" unicode="&#x12f;" horiz-adv-x="224" d="M130 -149 C116 -162 95 -167 77 -167 C53 -167 35 -154 35 -127 C35 -100 58 -82 79 -59 L134 0 L145 0 L145 440 L79 440 L79 0 L41 -36 C-1 -76 -21 -100 -21 -137 C-21 -191 19 -216 66 -216 C92 -216 115 -210 130 -198 L130 -149 Z M112 533 C136 533 155 552 155 577 C155 601 136 620 112 620 C88 620 69 601 69 577 C69 552 88 533 112 533 L112 533 Z " />
<glyph glyph-name="Idotaccent" unicode="&#x130;" horiz-adv-x="269" d="M170 0 L170 648 L100 648 L100 0 L170 0 Z M135 725 C159 725 178 745 178 769 C178 792 159 812 135 812 C110 812 92 792 92 769 C92 745 110 725 135 725 L135 725 Z " />
<glyph glyph-name="dotlessi" unicode="&#x131;" horiz-adv-x="224" d="M145 0 L145 440 L79 440 L79 0 L145 0 Z " />
<glyph glyph-name="IJ" unicode="&#x132;" horiz-adv-x="631" d="M170 0 L170 648 L100 648 L100 0 L170 0 Z M250 14 C280 -3 314 -8 352 -8 C465 -8 539 59 539 191 L539 648 L468 648 L468 193 C468 101 424 57 346 57 C316 57 282 63 250 82 L250 14 Z " />
<glyph glyph-name="ij" unicode="&#x133;" horiz-adv-x="444" d="M145 0 L145 440 L79 440 L79 0 L145 0 Z M112 533 C136 533 155 552 155 577 C155 601 136 620 112 620 C88 620 69 601 69 577 C69 552 88 533 112 533 L112 533 Z M150 -182 C170 -191 198 -196 220 -196 C297 -196 365 -149 365 -49 L365 440 L298 440 L298 -50 C298 -113 266 -137 213 -137 C192 -137 169 -131 150 -121 L150 -182 Z M332 533 C355 533 374 552 374 577 C374 601 355 620 332 620 C308 620 289 601 289 577 C289 552 308 533 332 533 L332 533 Z " />
<glyph glyph-name="Jcircumflex" unicode="&#x134;" horiz-adv-x="410" d="M29 14 C58 -3 92 -8 130 -8 C243 -8 318 59 318 191 L318 648 L248 648 L248 193 C248 101 202 57 124 57 C94 57 60 63 29 82 L29 14 Z M431 720 L431 724 L321 843 L245 843 L134 724 L134 720 L193 720 L282 801 L371 720 L431 720 Z " />
<glyph glyph-name="jcircumflex" unicode="&#x135;" horiz-adv-x="224" d="M-70 -182 C-49 -191 -22 -196 0 -196 C77 -196 145 -149 145 -49 L145 440 L79 440 L79 -50 C79 -113 47 -137 -6 -137 C-27 -137 -51 -131 -70 -121 L-70 -182 Z M260 512 L260 516 L150 635 L74 635 L-37 516 L-37 512 L22 512 L111 593 L200 512 L260 512 Z " />
<glyph glyph-name="Kcommaaccent" unicode="&#x136;" horiz-adv-x="656" d="M102 0 L157 0 L339 251 L566 0 L656 0 L379 306 L626 648 L546 648 L172 125 L172 648 L102 648 L102 0 Z M340 -235 C368 -203 383 -169 383 -113 L383 -62 L326 -62 L326 -107 C326 -158 315 -197 286 -235 L340 -235 Z " />
<glyph glyph-name="kcommaaccent" unicode="&#x137;" horiz-adv-x="486" d="M124 0 L251 164 L406 0 L487 0 L289 212 L466 440 L392 440 L145 118 L145 648 L79 648 L79 0 L124 0 Z M245 -235 C273 -203 288 -169 288 -113 L288 -62 L231 -62 L231 -107 C231 -158 220 -197 191 -235 L245 -235 Z " />
<glyph glyph-name="Lacute" unicode="&#x139;" horiz-adv-x="597" d="M547 0 L547 66 L172 66 L172 648 L102 648 L102 0 L547 0 Z M285 843 L207 843 L103 724 L103 720 L166 720 L285 839 L285 843 Z " />
<glyph glyph-name="lacute" unicode="&#x13a;" horiz-adv-x="224" d="M145 0 L145 648 L79 648 L79 0 L145 0 Z M262 843 L184 843 L80 724 L80 720 L143 720 L262 839 L262 843 Z " />
<glyph glyph-name="Lcommaaccent" unicode="&#x13b;" horiz-adv-x="597" d="M547 0 L547 66 L172 66 L172 648 L102 648 L102 0 L547 0 Z M316 -235 C344 -203 359 -169 359 -113 L359 -62 L302 -62 L302 -107 C302 -158 291 -197 262 -235 L316 -235 Z " />
<glyph glyph-name="lcommaaccent" unicode="&#x13c;" horiz-adv-x="224" d="M145 0 L145 648 L79 648 L79 0 L145 0 Z M98 -235 C126 -203 141 -169 141 -113 L141 -62 L84 -62 L84 -107 C84 -158 73 -197 44 -235 L98 -235 Z " />
<glyph glyph-name="Lcaron" unicode="&#x13d;" horiz-adv-x="597" d="M547 0 L547 66 L172 66 L172 648 L102 648 L102 0 L547 0 Z M424 475 C452 506 468 545 468 601 L468 648 L410 648 L410 607 C410 556 400 513 371 475 L424 475 Z " />
<glyph glyph-name="lcaron" unicode="&#x13e;" horiz-adv-x="285" d="M145 0 L145 648 L79 648 L79 0 L145 0 Z M248 475 C276 506 291 547 291 603 L291 648 L233 648 L233 607 C233 556 223 513 194 475 L248 475 Z " />
<glyph glyph-name="Ldot" unicode="&#x13f;" horiz-adv-x="602" d="M552 0 L552 66 L177 66 L177 648 L107 648 L107 0 L552 0 Z M372 314 C395 314 414 332 414 356 C414 380 395 398 372 398 C348 398 329 380 329 356 C329 332 348 314 372 314 L372 314 Z " />
<glyph glyph-name="ldot" unicode="&#x140;" horiz-adv-x="284" d="M145 0 L145 648 L79 648 L79 0 L145 0 Z M252 312 C277 312 296 331 296 356 C296 381 277 400 252 400 C228 400 209 381 209 356 C209 331 228 312 252 312 L252 312 Z " />
<glyph glyph-name="Lslash" unicode="&#x141;" horiz-adv-x="602" d="M552 0 L552 66 L177 66 L177 292 L342 384 L342 446 L177 354 L177 648 L107 648 L107 315 L16 264 L16 203 L107 253 L107 0 L552 0 Z " />
<glyph glyph-name="lslash" unicode="&#x142;" horiz-adv-x="224" d="M145 0 L145 344 L241 402 L241 461 L145 403 L145 648 L79 648 L79 363 L-7 311 L-7 252 L79 304 L79 0 L145 0 Z " />
<glyph glyph-name="Nacute" unicode="&#x143;" horiz-adv-x="740" d="M170 0 L170 526 L580 0 L639 0 L639 648 L570 648 L570 123 L160 648 L102 648 L102 0 L170 0 Z M522 843 L444 843 L340 724 L340 720 L403 720 L522 839 L522 843 Z " />
<glyph glyph-name="nacute" unicode="&#x144;" horiz-adv-x="545" d="M145 0 L145 252 C145 336 197 387 274 387 C353 387 403 334 403 246 L403 0 L470 0 L470 246 C470 375 389 448 282 448 C218 448 169 420 145 367 L144 440 L79 440 L79 0 L145 0 Z M425 635 L347 635 L243 516 L243 512 L306 512 L425 631 L425 635 Z " />
<glyph glyph-name="Ncommaaccent" unicode="&#x145;" horiz-adv-x="740" d="M170 0 L170 526 L580 0 L639 0 L639 648 L570 648 L570 123 L160 648 L102 648 L102 0 L170 0 Z M348 -235 C376 -203 391 -169 391 -113 L391 -62 L334 -62 L334 -107 C334 -158 323 -197 294 -235 L348 -235 Z " />
<glyph glyph-name="ncommaaccent" unicode="&#x146;" horiz-adv-x="545" d="M145 0 L145 252 C145 336 197 387 274 387 C353 387 403 334 403 246 L403 0 L470 0 L470 246 C470 375 389 448 282 448 C218 448 169 420 145 367 L144 440 L79 440 L79 0 L145 0 Z M258 -235 C286 -203 301 -169 301 -113 L301 -62 L244 -62 L244 -107 C244 -158 233 -197 204 -235 L258 -235 Z " />
<glyph glyph-name="Ncaron" unicode="&#x147;" horiz-adv-x="740" d="M170 0 L170 526 L580 0 L639 0 L639 648 L570 648 L570 123 L160 648 L102 648 L102 0 L170 0 Z M221 845 L221 841 L332 722 L408 722 L518 841 L518 845 L458 845 L369 763 L280 845 L221 845 Z " />
<glyph glyph-name="ncaron" unicode="&#x148;" horiz-adv-x="545" d="M145 0 L145 252 C145 336 197 387 274 387 C353 387 403 334 403 246 L403 0 L470 0 L470 246 C470 375 389 448 282 448 C218 448 169 420 145 367 L144 440 L79 440 L79 0 L145 0 Z M124 637 L124 633 L235 514 L311 514 L421 633 L421 637 L361 637 L272 555 L183 637 L124 637 Z " />
<glyph glyph-name="napostrophe" unicode="&#x149;" horiz-adv-x="545" d="M145 0 L145 252 C145 336 197 387 274 387 C353 387 403 334 403 246 L403 0 L470 0 L470 246 C470 375 389 448 282 448 C218 448 169 420 145 367 L144 440 L79 440 L79 0 L145 0 Z M140 513 C168 545 184 584 184 640 L184 686 L126 686 L126 645 C126 594 116 551 87 513 L140 513 Z " />
<glyph glyph-name="Eng" unicode="&#x14a;" horiz-adv-x="740" d="M170 0 L170 528 L570 13 L570 2 C570 -91 523 -131 448 -131 C417 -131 382 -125 351 -106 L351 -174 C380 -191 415 -196 453 -196 C561 -196 639 -132 639 0 L639 648 L570 648 L570 122 L160 648 L102 648 L102 0 L170 0 Z " />
<glyph glyph-name="eng" unicode="&#x14b;" horiz-adv-x="545" d="M145 0 L145 252 C145 336 197 387 274 387 C353 387 403 334 403 246 L403 -50 C403 -113 371 -137 318 -137 C297 -137 273 -131 255 -121 L255 -182 C275 -191 303 -196 325 -196 C402 -196 470 -149 470 -49 L470 246 C470 375 389 448 282 448 C218 448 169 420 145 367 L144 440 L79 440 L79 0 L145 0 Z " />
<glyph glyph-name="Omacron" unicode="&#x14c;" horiz-adv-x="789" d="M394 -8 C578 -8 734 123 734 324 C734 525 578 656 394 656 C211 656 55 525 55 324 C55 123 211 -8 394 -8 L394 -8 Z M394 58 C242 58 127 165 127 324 C127 483 242 590 394 590 C547 590 662 483 662 324 C662 165 547 58 394 58 L394 58 Z M530 738 L530 796 L256 796 L256 738 L530 738 Z " />
<glyph glyph-name="omacron" unicode="&#x14d;" horiz-adv-x="538" d="M269 -8 C401 -8 498 85 498 220 C498 355 401 448 269 448 C137 448 40 355 40 220 C40 85 137 -8 269 -8 L269 -8 Z M269 53 C171 53 108 120 108 220 C108 320 171 387 269 387 C367 387 430 320 430 220 C430 120 367 53 269 53 L269 53 Z M405 530 L405 588 L131 588 L131 530 L405 530 Z " />
<glyph glyph-name="Obreve" unicode="&#x14e;" horiz-adv-x="789" d="M394 -8 C578 -8 734 123 734 324 C734 525 578 656 394 656 C211 656 55 525 55 324 C55 123 211 -8 394 -8 L394 -8 Z M394 58 C242 58 127 165 127 324 C127 483 242 590 394 590 C547 590 662 483 662 324 C662 165 547 58 394 58 L394 58 Z M478 858 C478 801 442 776 394 776 C345 776 311 801 311 858 L255 858 C255 774 310 725 394 725 C480 725 534 777 534 858 L478 858 Z " />
<glyph glyph-name="obreve" unicode="&#x14f;" horiz-adv-x="538" d="M269 -8 C401 -8 498 85 498 220 C498 355 401 448 269 448 C137 448 40 355 40 220 C40 85 137 -8 269 -8 L269 -8 Z M269 53 C171 53 108 120 108 220 C108 320 171 387 269 387 C367 387 430 320 430 220 C430 120 367 53 269 53 L269 53 Z M353 650 C353 593 317 568 269 568 C220 568 186 593 186 650 L130 650 C130 566 185 517 269 517 C355 517 409 569 409 650 L353 650 Z " />
<glyph glyph-name="Ohungarumlaut" unicode="&#x150;" horiz-adv-x="789" d="M394 -8 C578 -8 734 123 734 324 C734 525 578 656 394 656 C211 656 55 525 55 324 C55 123 211 -8 394 -8 L394 -8 Z M394 58 C242 58 127 165 127 324 C127 483 242 590 394 590 C547 590 662 483 662 324 C662 165 547 58 394 58 L394 58 Z M607 843 L529 843 L431 724 L431 720 L490 720 L607 839 L607 843 Z M470 843 L391 843 L293 724 L293 720 L352 720 L470 839 L470 843 Z " />
<glyph glyph-name="ohungarumlaut" unicode="&#x151;" horiz-adv-x="538" d="M269 -8 C401 -8 498 85 498 220 C498 355 401 448 269 448 C137 448 40 355 40 220 C40 85 137 -8 269 -8 L269 -8 Z M269 53 C171 53 108 120 108 220 C108 320 171 387 269 387 C367 387 430 320 430 220 C430 120 367 53 269 53 L269 53 Z M482 635 L404 635 L306 516 L306 512 L365 512 L482 631 L482 635 Z M345 635 L266 635 L168 516 L168 512 L227 512 L345 631 L345 635 Z " />
<glyph glyph-name="OE" unicode="&#x152;" horiz-adv-x="1193" d="M1136 0 L1136 66 L712 66 L712 302 L1009 302 L1009 368 L712 368 L712 582 L1128 582 L1128 648 L642 648 L642 534 C585 612 494 656 386 656 C203 656 55 525 55 324 C55 123 203 -8 386 -8 C494 -8 585 36 642 114 L642 0 L1136 0 Z M386 58 C234 58 127 165 127 324 C127 483 234 590 386 590 C539 590 646 483 646 324 C646 165 539 58 386 58 L386 58 Z " />
<glyph glyph-name="oe" unicode="&#x153;" horiz-adv-x="884" d="M823 112 C781 76 730 53 669 53 C571 53 505 113 498 208 L842 208 L842 227 C842 345 773 448 639 448 C561 448 497 408 463 344 C424 408 355 448 269 448 C137 448 40 355 40 220 C40 85 137 -8 269 -8 C356 -8 427 33 465 99 C503 34 573 -8 665 -8 C732 -8 783 11 823 46 L823 112 Z M269 53 C171 53 108 120 108 220 C108 320 171 387 269 387 C367 387 430 320 430 220 C430 120 367 53 269 53 L269 53 Z M641 389 C726 389 771 333 775 263 L500 263 C513 344 566 389 641 389 L641 389 Z " />
<glyph glyph-name="Racute" unicode="&#x154;" horiz-adv-x="621" d="M172 0 L172 265 L293 265 L515 0 L598 0 L376 269 C485 286 547 363 547 456 C547 563 466 648 326 648 L102 648 L102 0 L172 0 Z M322 582 C419 582 475 533 475 456 C475 378 422 330 326 330 L172 330 L172 582 L322 582 Z M443 843 L365 843 L261 724 L261 720 L324 720 L443 839 L443 843 Z " />
<glyph glyph-name="racute" unicode="&#x155;" horiz-adv-x="379" d="M145 0 L145 258 C145 362 215 387 271 387 C305 387 331 380 359 363 L359 424 C331 442 301 448 273 448 C220 448 169 427 144 371 L144 440 L79 440 L79 0 L145 0 Z M361 635 L283 635 L179 516 L179 512 L242 512 L361 631 L361 635 Z " />
<glyph glyph-name="Rcommaaccent" unicode="&#x156;" horiz-adv-x="621" d="M172 0 L172 265 L293 265 L515 0 L598 0 L376 269 C485 286 547 363 547 456 C547 563 466 648 326 648 L102 648 L102 0 L172 0 Z M322 582 C419 582 475 533 475 456 C475 378 422 330 326 330 L172 330 L172 582 L322 582 Z M298 -235 C326 -203 341 -169 341 -113 L341 -62 L284 -62 L284 -107 C284 -158 273 -197 244 -235 L298 -235 Z " />
<glyph glyph-name="rcommaaccent" unicode="&#x157;" horiz-adv-x="379" d="M145 0 L145 258 C145 362 215 387 271 387 C305 387 331 380 359 363 L359 424 C331 442 301 448 273 448 C220 448 169 427 144 371 L144 440 L79 440 L79 0 L145 0 Z M98 -235 C126 -203 141 -169 141 -113 L141 -62 L84 -62 L84 -107 C84 -158 73 -197 44 -235 L98 -235 Z " />
<glyph glyph-name="Rcaron" unicode="&#x158;" horiz-adv-x="621" d="M172 0 L172 265 L293 265 L515 0 L598 0 L376 269 C485 286 547 363 547 456 C547 563 466 648 326 648 L102 648 L102 0 L172 0 Z M322 582 C419 582 475 533 475 456 C475 378 422 330 326 330 L172 330 L172 582 L322 582 Z M142 845 L142 841 L253 722 L329 722 L439 841 L439 845 L379 845 L290 763 L201 845 L142 845 Z " />
<glyph glyph-name="rcaron" unicode="&#x159;" horiz-adv-x="379" d="M145 0 L145 258 C145 362 215 387 271 387 C305 387 331 380 359 363 L359 424 C331 442 301 448 273 448 C220 448 169 427 144 371 L144 440 L79 440 L79 0 L145 0 Z M60 637 L60 633 L171 514 L247 514 L357 633 L357 637 L297 637 L208 555 L119 637 L60 637 Z " />
<glyph glyph-name="Sacute" unicode="&#x15a;" horiz-adv-x="596" d="M71 60 C125 18 202 -8 292 -8 C438 -8 528 57 528 167 C528 278 445 324 313 358 C207 385 144 408 144 481 C144 548 194 591 297 591 C384 591 449 563 501 519 L501 595 C449 633 383 656 297 656 C163 656 71 589 71 479 C71 368 158 326 277 297 C412 264 454 233 454 167 C454 96 400 57 294 57 C213 57 127 87 71 138 L71 60 Z M449 843 L371 843 L267 724 L267 720 L330 720 L449 839 L449 843 Z " />
<glyph glyph-name="sacute" unicode="&#x15b;" horiz-adv-x="459" d="M57 36 C96 9 155 -8 225 -8 C342 -8 407 47 407 121 C407 214 321 233 244 251 C182 265 124 277 124 325 C124 364 151 389 227 389 C287 389 338 370 381 339 L381 406 C345 432 294 448 228 448 C121 448 58 401 58 323 C58 230 144 210 219 193 C284 179 341 169 341 117 C341 73 300 51 225 51 C157 51 98 71 57 101 L57 36 Z M380 635 L302 635 L198 516 L198 512 L261 512 L380 631 L380 635 Z " />
<glyph glyph-name="Scircumflex" unicode="&#x15c;" horiz-adv-x="596" d="M71 60 C125 18 202 -8 292 -8 C438 -8 528 57 528 167 C528 278 445 324 313 358 C207 385 144 408 144 481 C144 548 194 591 297 591 C384 591 449 563 501 519 L501 595 C449 633 383 656 297 656 C163 656 71 589 71 479 C71 368 158 326 277 297 C412 264 454 233 454 167 C454 96 400 57 294 57 C213 57 127 87 71 138 L71 60 Z M445 720 L445 724 L335 843 L259 843 L148 724 L148 720 L207 720 L296 801 L385 720 L445 720 Z " />
<glyph glyph-name="scircumflex" unicode="&#x15d;" horiz-adv-x="459" d="M57 36 C96 9 155 -8 225 -8 C342 -8 407 47 407 121 C407 214 321 233 244 251 C182 265 124 277 124 325 C124 364 151 389 227 389 C287 389 338 370 381 339 L381 406 C345 432 294 448 228 448 C121 448 58 401 58 323 C58 230 144 210 219 193 C284 179 341 169 341 117 C341 73 300 51 225 51 C157 51 98 71 57 101 L57 36 Z M376 512 L376 516 L266 635 L190 635 L79 516 L79 512 L138 512 L227 593 L316 512 L376 512 Z " />
<glyph glyph-name="Scedilla" unicode="&#x15e;" horiz-adv-x="596" d="M211 -197 C230 -211 257 -218 277 -218 C336 -218 369 -183 369 -134 C369 -98 346 -68 293 -54 L311 -7 C446 -2 528 62 528 167 C528 278 445 324 313 358 C207 385 144 408 144 481 C144 548 194 591 297 591 C384 591 449 563 501 519 L501 595 C449 633 383 656 297 656 C163 656 71 589 71 479 C71 368 158 326 277 297 C412 264 454 233 454 167 C454 96 400 57 294 57 C213 57 127 87 71 138 L71 60 C120 22 188 -3 268 -7 L238 -87 C307 -89 321 -114 321 -136 C321 -155 310 -175 276 -175 C255 -175 230 -169 211 -152 L211 -197 Z " />
<glyph glyph-name="scedilla" unicode="&#x15f;" horiz-adv-x="459" d="M152 -197 C171 -211 198 -218 218 -218 C277 -218 310 -183 310 -134 C310 -98 287 -68 234 -54 L252 -7 C352 1 407 53 407 121 C407 214 321 233 244 251 C182 265 124 277 124 325 C124 364 151 389 227 389 C287 389 338 370 381 339 L381 406 C345 432 294 448 228 448 C121 448 58 401 58 323 C58 230 144 210 219 193 C284 179 341 169 341 117 C341 73 300 51 225 51 C157 51 98 71 57 101 L57 36 C93 11 146 -5 209 -7 L179 -87 C248 -89 262 -114 262 -136 C262 -155 251 -175 217 -175 C196 -175 171 -169 152 -152 L152 -197 Z " />
<glyph glyph-name="Scaron" unicode="&#x160;" horiz-adv-x="596" d="M71 60 C125 18 202 -8 292 -8 C438 -8 528 57 528 167 C528 278 445 324 313 358 C207 385 144 408 144 481 C144 548 194 591 297 591 C384 591 449 563 501 519 L501 595 C449 633 383 656 297 656 C163 656 71 589 71 479 C71 368 158 326 277 297 C412 264 454 233 454 167 C454 96 400 57 294 57 C213 57 127 87 71 138 L71 60 Z M148 845 L148 841 L259 722 L335 722 L445 841 L445 845 L385 845 L296 763 L207 845 L148 845 Z " />
<glyph glyph-name="scaron" unicode="&#x161;" horiz-adv-x="459" d="M57 36 C96 9 155 -8 225 -8 C342 -8 407 47 407 121 C407 214 321 233 244 251 C182 265 124 277 124 325 C124 364 151 389 227 389 C287 389 338 370 381 339 L381 406 C345 432 294 448 228 448 C121 448 58 401 58 323 C58 230 144 210 219 193 C284 179 341 169 341 117 C341 73 300 51 225 51 C157 51 98 71 57 101 L57 36 Z M79 637 L79 633 L190 514 L266 514 L376 633 L376 637 L316 637 L227 555 L138 637 L79 637 Z " />
<glyph glyph-name="Tcommaaccent" unicode="&#x162;" horiz-adv-x="587" d="M213 -197 C232 -211 259 -218 279 -218 C338 -218 371 -183 371 -134 C371 -98 348 -68 295 -54 L315 0 L329 0 L329 582 L561 582 L561 648 L26 648 L26 582 L258 582 L258 0 L272 0 L240 -87 C309 -89 323 -114 323 -136 C323 -155 312 -175 278 -175 C257 -175 232 -169 213 -152 L213 -197 Z " />
<glyph glyph-name="tcommaaccent" unicode="&#x163;" horiz-adv-x="394" d="M144 -197 C163 -211 190 -218 210 -218 C269 -218 302 -183 302 -134 C302 -98 279 -68 226 -54 L243 -8 C290 -7 331 7 358 30 L358 93 C325 67 285 53 240 53 C182 53 141 85 141 149 L141 381 L352 381 L352 440 L141 440 L141 522 L136 522 L75 458 L75 148 C75 60 130 8 202 -5 L171 -87 C240 -89 254 -114 254 -136 C254 -155 243 -175 209 -175 C188 -175 163 -169 144 -152 L144 -197 Z " />
<glyph glyph-name="Tcaron" unicode="&#x164;" horiz-adv-x="587" d="M329 0 L329 582 L561 582 L561 648 L26 648 L26 582 L258 582 L258 0 L329 0 Z M146 845 L146 841 L257 722 L333 722 L443 841 L443 845 L383 845 L294 763 L205 845 L146 845 Z " />
<glyph glyph-name="tcaron" unicode="&#x165;" horiz-adv-x="394" d="M352 381 L352 440 L141 440 L141 522 L136 522 L75 458 L75 148 C75 47 149 -8 237 -8 C286 -8 330 6 358 30 L358 93 C325 67 285 53 240 53 C182 53 141 85 141 149 L141 381 L352 381 Z M275 523 C303 554 318 595 318 651 L318 696 L261 696 L261 655 C261 604 250 561 221 523 L275 523 Z " />
<glyph glyph-name="Tbar" unicode="&#x166;" horiz-adv-x="587" d="M561 582 L561 648 L26 648 L26 582 L258 582 L258 363 L123 363 L123 306 L258 306 L258 0 L329 0 L329 306 L473 306 L473 363 L329 363 L329 582 L561 582 Z " />
<glyph glyph-name="tbar" unicode="&#x167;" horiz-adv-x="394" d="M288 229 L288 283 L141 283 L141 381 L352 381 L352 440 L141 440 L141 522 L136 522 L75 458 L75 283 L15 283 L15 229 L75 229 L75 148 C75 47 149 -8 237 -8 C286 -8 330 6 358 30 L358 93 C325 67 285 53 240 53 C182 53 141 85 141 149 L141 229 L288 229 Z " />
<glyph glyph-name="Utilde" unicode="&#x168;" horiz-adv-x="718" d="M360 -8 C515 -8 624 96 624 271 L624 648 L554 648 L554 271 C554 146 494 58 360 58 C226 58 164 146 164 271 L164 648 L94 648 L94 271 C94 98 205 -8 360 -8 L360 -8 Z M504 842 L450 842 L450 808 C450 796 445 790 434 790 C424 790 411 794 398 800 L330 831 C314 838 294 845 274 845 C237 845 215 823 215 782 L215 738 L268 738 L268 772 C268 783 273 789 284 789 C295 789 306 785 319 779 L389 749 C407 740 426 734 445 734 C482 734 504 754 504 797 L504 842 Z " />
<glyph glyph-name="utilde" unicode="&#x169;" horiz-adv-x="548" d="M75 440 L75 194 C75 65 157 -8 265 -8 C329 -8 379 19 403 73 L404 0 L469 0 L469 440 L403 440 L403 194 C403 106 351 53 272 53 C193 53 141 106 141 194 L141 440 L75 440 Z M415 634 L361 634 L361 600 C361 588 356 582 345 582 C335 582 322 586 309 592 L241 623 C225 630 205 637 185 637 C148 637 126 615 126 574 L126 530 L179 530 L179 564 C179 575 184 581 195 581 C206 581 217 577 230 571 L300 541 C318 532 337 526 356 526 C393 526 415 546 415 589 L415 634 Z " />
<glyph glyph-name="Umacron" unicode="&#x16a;" horiz-adv-x="718" d="M360 -8 C515 -8 624 96 624 271 L624 648 L554 648 L554 271 C554 146 494 58 360 58 C226 58 164 146 164 271 L164 648 L94 648 L94 271 C94 98 205 -8 360 -8 L360 -8 Z M495 738 L495 796 L221 796 L221 738 L495 738 Z " />
<glyph glyph-name="umacron" unicode="&#x16b;" horiz-adv-x="548" d="M75 440 L75 194 C75 65 157 -8 265 -8 C329 -8 379 19 403 73 L404 0 L469 0 L469 440 L403 440 L403 194 C403 106 351 53 272 53 C193 53 141 106 141 194 L141 440 L75 440 Z M406 530 L406 588 L132 588 L132 530 L406 530 Z " />
<glyph glyph-name="Ubreve" unicode="&#x16c;" horiz-adv-x="718" d="M360 -8 C515 -8 624 96 624 271 L624 648 L554 648 L554 271 C554 146 494 58 360 58 C226 58 164 146 164 271 L164 648 L94 648 L94 271 C94 98 205 -8 360 -8 L360 -8 Z M443 858 C443 801 407 776 359 776 C310 776 276 801 276 858 L220 858 C220 774 275 725 359 725 C445 725 499 777 499 858 L443 858 Z " />
<glyph glyph-name="ubreve" unicode="&#x16d;" horiz-adv-x="548" d="M75 440 L75 194 C75 65 157 -8 265 -8 C329 -8 379 19 403 73 L404 0 L469 0 L469 440 L403 440 L403 194 C403 106 351 53 272 53 C193 53 141 106 141 194 L141 440 L75 440 Z M354 650 C354 593 318 568 270 568 C221 568 187 593 187 650 L131 650 C131 566 186 517 270 517 C356 517 410 569 410 650 L354 650 Z " />
<glyph glyph-name="Uring" unicode="&#x16e;" horiz-adv-x="718" d="M360 -8 C515 -8 624 96 624 271 L624 648 L554 648 L554 271 C554 146 494 58 360 58 C226 58 164 146 164 271 L164 648 L94 648 L94 271 C94 98 205 -8 360 -8 L360 -8 Z M359 755 C330 755 315 773 315 796 C315 819 330 837 359 837 C389 837 404 819 404 796 C404 773 389 755 359 755 L359 755 Z M359 712 C413 712 452 745 452 796 C452 847 413 880 359 880 C306 880 266 847 266 796 C266 745 306 712 359 712 L359 712 Z " />
<glyph glyph-name="uring" unicode="&#x16f;" horiz-adv-x="548" d="M75 440 L75 194 C75 65 157 -8 265 -8 C329 -8 379 19 403 73 L404 0 L469 0 L469 440 L403 440 L403 194 C403 106 351 53 272 53 C193 53 141 106 141 194 L141 440 L75 440 Z M270 547 C241 547 226 565 226 588 C226 611 241 629 270 629 C300 629 315 611 315 588 C315 565 300 547 270 547 L270 547 Z M270 504 C324 504 363 537 363 588 C363 639 324 672 270 672 C217 672 177 639 177 588 C177 537 217 504 270 504 L270 504 Z " />
<glyph glyph-name="Uhungarumlaut" unicode="&#x170;" horiz-adv-x="718" d="M360 -8 C515 -8 624 96 624 271 L624 648 L554 648 L554 271 C554 146 494 58 360 58 C226 58 164 146 164 271 L164 648 L94 648 L94 271 C94 98 205 -8 360 -8 L360 -8 Z M572 843 L494 843 L396 724 L396 720 L455 720 L572 839 L572 843 Z M435 843 L356 843 L258 724 L258 720 L317 720 L435 839 L435 843 Z " />
<glyph glyph-name="uhungarumlaut" unicode="&#x171;" horiz-adv-x="548" d="M75 440 L75 194 C75 65 157 -8 265 -8 C329 -8 379 19 403 73 L404 0 L469 0 L469 440 L403 440 L403 194 C403 106 351 53 272 53 C193 53 141 106 141 194 L141 440 L75 440 Z M483 635 L405 635 L307 516 L307 512 L366 512 L483 631 L483 635 Z M346 635 L267 635 L169 516 L169 512 L228 512 L346 631 L346 635 Z " />
<glyph glyph-name="Uogonek" unicode="&#x172;" horiz-adv-x="718" d="M453 -149 C439 -162 418 -167 400 -167 C376 -167 358 -154 358 -127 C358 -100 381 -82 402 -59 L467 11 C563 49 624 140 624 271 L624 648 L554 648 L554 271 C554 146 494 58 360 58 C226 58 164 146 164 271 L164 648 L94 648 L94 271 C94 98 205 -8 360 -8 C372 -8 384 -8 395 -6 L364 -36 C322 -76 302 -100 302 -137 C302 -191 342 -216 389 -216 C415 -216 438 -210 453 -198 L453 -149 Z " />
<glyph glyph-name="uogonek" unicode="&#x173;" horiz-adv-x="548" d="M453 -149 C439 -162 418 -167 400 -167 C376 -167 358 -154 358 -127 C358 -100 381 -82 402 -59 L457 0 L469 0 L469 440 L403 440 L403 194 C403 106 351 53 272 53 C193 53 141 106 141 194 L141 440 L75 440 L75 194 C75 65 157 -8 265 -8 C329 -8 379 19 403 73 L404 2 L364 -36 C322 -76 302 -100 302 -137 C302 -191 342 -216 389 -216 C415 -216 438 -210 453 -198 L453 -149 Z " />
<glyph glyph-name="Wcircumflex" unicode="&#x174;" horiz-adv-x="993" d="M13 648 L255 0 L311 0 L495 461 L680 0 L734 0 L980 648 L907 648 L707 105 L507 604 L480 604 L287 104 L87 648 L13 648 Z M640 720 L640 724 L530 843 L454 843 L343 724 L343 720 L402 720 L491 801 L580 720 L640 720 Z " />
<glyph glyph-name="wcircumflex" unicode="&#x175;" horiz-adv-x="754" d="M680 440 L539 93 L390 440 L362 440 L217 91 L74 440 L5 440 L191 0 L240 0 L376 319 L515 0 L563 0 L750 440 L680 440 Z M524 512 L524 516 L414 635 L338 635 L227 516 L227 512 L286 512 L375 593 L464 512 L524 512 Z " />
<glyph glyph-name="Ycircumflex" unicode="&#x176;" horiz-adv-x="645" d="M360 0 L360 262 L629 648 L545 648 L323 327 L100 648 L16 648 L287 262 L287 0 L360 0 Z M470 720 L470 724 L360 843 L284 843 L173 724 L173 720 L232 720 L321 801 L410 720 L470 720 Z " />
<glyph glyph-name="ycircumflex" unicode="&#x177;" horiz-adv-x="468" d="M166 -188 L464 440 L392 440 L239 105 L78 440 L5 440 L206 32 L98 -188 L166 -188 Z M385 512 L385 516 L275 635 L199 635 L88 516 L88 512 L147 512 L236 593 L325 512 L385 512 Z " />
<glyph glyph-name="Ydieresis" unicode="&#x178;" horiz-adv-x="645" d="M360 0 L360 262 L629 648 L545 648 L323 327 L100 648 L16 648 L287 262 L287 0 L360 0 Z M407 727 C430 727 448 745 448 767 C448 790 430 808 407 808 C385 808 367 790 367 767 C367 745 385 727 407 727 L407 727 Z M237 727 C260 727 278 745 278 767 C278 790 260 808 237 808 C215 808 197 790 197 767 C197 745 215 727 237 727 L237 727 Z " />
<glyph glyph-name="Zacute" unicode="&#x179;" horiz-adv-x="594" d="M560 0 L560 66 L137 66 L554 612 L554 648 L41 648 L41 582 L448 582 L31 36 L31 0 L560 0 Z M449 843 L371 843 L267 724 L267 720 L330 720 L449 839 L449 843 Z " />
<glyph glyph-name="zacute" unicode="&#x17a;" horiz-adv-x="438" d="M404 0 L404 59 L129 59 L406 410 L406 440 L38 440 L38 381 L306 381 L32 30 L32 0 L404 0 Z M372 635 L294 635 L190 516 L190 512 L253 512 L372 631 L372 635 Z " />
<glyph glyph-name="Zdotaccent" unicode="&#x17b;" horiz-adv-x="594" d="M560 0 L560 66 L137 66 L554 612 L554 648 L41 648 L41 582 L448 582 L31 36 L31 0 L560 0 Z M297 725 C321 725 340 745 340 769 C340 792 321 812 297 812 C272 812 254 792 254 769 C254 745 272 725 297 725 L297 725 Z " />
<glyph glyph-name="zdotaccent" unicode="&#x17c;" horiz-adv-x="438" d="M404 0 L404 59 L129 59 L406 410 L406 440 L38 440 L38 381 L306 381 L32 30 L32 0 L404 0 Z M220 517 C244 517 263 537 263 561 C263 584 244 604 220 604 C195 604 177 584 177 561 C177 537 195 517 220 517 L220 517 Z " />
<glyph glyph-name="Zcaron" unicode="&#x17d;" horiz-adv-x="594" d="M560 0 L560 66 L137 66 L554 612 L554 648 L41 648 L41 582 L448 582 L31 36 L31 0 L560 0 Z M148 845 L148 841 L259 722 L335 722 L445 841 L445 845 L385 845 L296 763 L207 845 L148 845 Z " />
<glyph glyph-name="zcaron" unicode="&#x17e;" horiz-adv-x="438" d="M404 0 L404 59 L129 59 L406 410 L406 440 L38 440 L38 381 L306 381 L32 30 L32 0 L404 0 Z M71 637 L71 633 L182 514 L258 514 L368 633 L368 637 L308 637 L219 555 L130 637 L71 637 Z " />
<glyph glyph-name="longs" unicode="&#x17f;" horiz-adv-x="293" d="M79 0 L145 0 L145 475 C145 555 184 595 252 595 C291 595 329 585 356 565 L356 629 C333 644 298 656 249 656 C155 656 79 596 79 475 L79 0 Z " />
<glyph glyph-name="florin" unicode="&#x192;" horiz-adv-x="572" d="M189 -108 C182 -172 156 -202 104 -202 C75 -202 46 -194 20 -171 L20 -238 C40 -253 70 -264 110 -264 C184 -264 248 -220 259 -111 L299 268 L446 268 L446 319 L305 319 L323 488 C332 568 369 594 413 594 C445 594 472 583 497 566 L497 632 C476 645 448 656 408 656 C335 656 267 616 253 490 L234 319 L105 319 L105 268 L229 268 L189 -108 Z " />
<glyph glyph-name="AEacute" unicode="&#x1fc;" horiz-adv-x="1075" d="M86 0 L198 143 L524 143 L524 0 L1018 0 L1018 66 L594 66 L594 302 L893 302 L893 368 L594 368 L594 582 L1010 582 L1010 648 L513 648 L8 0 L86 0 Z M251 210 L524 557 L524 210 L251 210 Z M714 843 L636 843 L532 724 L532 720 L595 720 L714 839 L714 843 Z " />
<glyph glyph-name="aeacute" unicode="&#x1fd;" horiz-adv-x="803" d="M742 112 C700 76 649 53 588 53 C490 53 424 113 417 208 L761 208 L761 227 C761 345 694 448 560 448 C487 448 428 414 393 357 C363 410 303 448 210 448 C160 448 99 432 62 403 L62 338 C103 370 152 387 207 387 C301 387 351 334 351 264 L351 263 L242 263 C111 263 50 205 50 126 C50 52 110 -8 214 -8 C312 -8 368 37 389 96 C426 33 494 -8 584 -8 C651 -8 702 11 742 46 L742 112 Z M216 51 C150 51 116 84 116 127 C116 180 161 208 238 208 L351 208 L351 177 C351 97 294 51 216 51 L216 51 Z M560 389 C645 389 689 333 694 263 L419 263 C432 344 485 389 560 389 L560 389 Z M549 635 L471 635 L367 516 L367 512 L430 512 L549 631 L549 635 Z " />
<glyph glyph-name="Oslashacute" unicode="&#x1fe;" horiz-adv-x="789" d="M394 -8 C578 -8 734 123 734 324 C734 408 707 479 662 534 L784 648 L700 648 L622 575 C561 627 480 656 394 656 C211 656 55 525 55 324 C55 240 82 169 126 114 L4 0 L88 0 L166 73 C227 21 307 -8 394 -8 L394 -8 Z M394 58 C324 58 263 80 216 119 L611 487 C643 443 662 388 662 324 C662 165 547 58 394 58 L394 58 Z M127 324 C127 483 242 590 394 590 C463 590 525 568 572 529 L177 161 C145 204 127 260 127 324 L127 324 Z M546 843 L468 843 L364 724 L364 720 L427 720 L546 839 L546 843 Z " />
<glyph glyph-name="oslashacute" unicode="&#x1ff;" horiz-adv-x="538" d="M68 0 L116 45 C156 11 209 -8 269 -8 C401 -8 498 85 498 220 C498 276 481 325 451 363 L532 440 L459 440 L416 399 C377 430 326 448 269 448 C137 448 40 355 40 220 C40 166 55 119 82 81 L-3 0 L68 0 Z M269 53 C226 53 189 66 162 89 L404 318 C421 292 430 258 430 220 C430 120 367 53 269 53 L269 53 Z M108 220 C108 320 171 387 269 387 C309 387 343 375 370 355 L130 127 C116 153 108 184 108 220 L108 220 Z M421 635 L343 635 L239 516 L239 512 L302 512 L421 631 L421 635 Z " />
<glyph glyph-name="Scommaaccent" unicode="&#x218;" horiz-adv-x="596" d="M71 60 C125 18 202 -8 292 -8 C438 -8 528 57 528 167 C528 278 445 324 313 358 C207 385 144 408 144 481 C144 548 194 591 297 591 C384 591 449 563 501 519 L501 595 C449 633 383 656 297 656 C163 656 71 589 71 479 C71 368 158 326 277 297 C412 264 454 233 454 167 C454 96 400 57 294 57 C213 57 127 87 71 138 L71 60 Z M283 -235 C311 -203 326 -169 326 -113 L326 -62 L269 -62 L269 -107 C269 -158 258 -197 229 -235 L283 -235 Z " />
<glyph glyph-name="scommaaccent" unicode="&#x219;" horiz-adv-x="459" d="M57 36 C96 9 155 -8 225 -8 C342 -8 407 47 407 121 C407 214 321 233 244 251 C182 265 124 277 124 325 C124 364 151 389 227 389 C287 389 338 370 381 339 L381 406 C345 432 294 448 228 448 C121 448 58 401 58 323 C58 230 144 210 219 193 C284 179 341 169 341 117 C341 73 300 51 225 51 C157 51 98 71 57 101 L57 36 Z M212 -235 C240 -203 255 -169 255 -113 L255 -62 L198 -62 L198 -107 C198 -158 187 -197 158 -235 L212 -235 Z " />
<glyph glyph-name="uni021A" unicode="&#x21a;" horiz-adv-x="587" d="M329 0 L329 582 L561 582 L561 648 L26 648 L26 582 L258 582 L258 0 L329 0 Z M280 -235 C308 -203 323 -169 323 -113 L323 -62 L266 -62 L266 -107 C266 -158 255 -197 226 -235 L280 -235 Z " />
<glyph glyph-name="uni021B" unicode="&#x21b;" horiz-adv-x="394" d="M352 381 L352 440 L141 440 L141 522 L136 522 L75 458 L75 148 C75 47 149 -8 237 -8 C286 -8 330 6 358 30 L358 93 C325 67 285 53 240 53 C182 53 141 85 141 149 L141 381 L352 381 Z M208 -235 C236 -203 251 -169 251 -113 L251 -62 L194 -62 L194 -107 C194 -158 183 -197 154 -235 L208 -235 Z " />
<glyph glyph-name="dotlessj" unicode="&#x237;" horiz-adv-x="224" d="M-70 -182 C-49 -191 -22 -196 0 -196 C77 -196 145 -149 145 -49 L145 440 L79 440 L79 -50 C79 -113 47 -137 -6 -137 C-27 -137 -51 -131 -70 -121 L-70 -182 Z " />
<glyph glyph-name="circumflex" unicode="&#x2c6;" horiz-adv-x="708" d="M503 512 L503 516 L393 635 L317 635 L206 516 L206 512 L265 512 L354 593 L443 512 L503 512 Z " />
<glyph glyph-name="caron" unicode="&#x2c7;" horiz-adv-x="708" d="M206 637 L206 633 L317 514 L393 514 L503 633 L503 637 L443 637 L354 555 L265 637 L206 637 Z " />
<glyph glyph-name="uni02C9" unicode="&#x2c9;" horiz-adv-x="708" d="M502 530 L502 588 L228 588 L228 530 L502 530 Z " />
<glyph glyph-name="breve" unicode="&#x2d8;" horiz-adv-x="708" d="M438 650 C438 593 402 568 354 568 C305 568 271 593 271 650 L215 650 C215 566 270 517 354 517 C440 517 494 569 494 650 L438 650 Z " />
<glyph glyph-name="dotaccent" unicode="&#x2d9;" horiz-adv-x="708" d="M351 517 C375 517 394 537 394 561 C394 584 375 604 351 604 C326 604 308 584 308 561 C308 537 326 517 351 517 L351 517 Z " />
<glyph glyph-name="ring" unicode="&#x2da;" horiz-adv-x="685" d="M342 547 C313 547 298 565 298 588 C298 611 313 629 342 629 C372 629 387 611 387 588 C387 565 372 547 342 547 L342 547 Z M342 504 C396 504 435 537 435 588 C435 639 396 672 342 672 C289 672 249 639 249 588 C249 537 289 504 342 504 L342 504 Z " />
<glyph glyph-name="ogonek" unicode="&#x2db;" horiz-adv-x="708" d="M493 -149 C479 -162 458 -167 440 -167 C416 -167 398 -154 398 -127 C398 -100 422 -83 442 -59 L508 12 L508 26 L463 26 L463 20 L404 -36 C362 -76 342 -100 342 -137 C342 -191 382 -216 429 -216 C455 -216 478 -210 493 -198 L493 -149 Z " />
<glyph glyph-name="tilde" unicode="&#x2dc;" horiz-adv-x="708" d="M499 634 L445 634 L445 600 C445 588 440 582 429 582 C419 582 406 586 393 592 L325 623 C309 630 289 637 269 637 C232 637 210 615 210 574 L210 530 L263 530 L263 564 C263 575 268 581 279 581 C290 581 301 577 314 571 L384 541 C402 532 421 526 440 526 C477 526 499 546 499 589 L499 634 Z " />
<glyph glyph-name="hungarumlaut" unicode="&#x2dd;" horiz-adv-x="708" d="M574 635 L496 635 L398 516 L398 512 L457 512 L574 631 L574 635 Z M437 635 L358 635 L260 516 L260 512 L319 512 L437 631 L437 635 Z " />
<glyph glyph-name="uni0394" unicode="&#x394;" horiz-adv-x="649" d="M638 0 L353 648 L298 648 L11 0 L638 0 Z M325 557 L535 66 L111 66 L325 557 Z " />
<glyph glyph-name="uni03A9" unicode="&#x3a9;" horiz-adv-x="688" d="M302 0 L302 181 C195 194 110 267 110 384 C110 509 202 591 344 591 C487 591 578 509 578 384 C578 267 492 194 384 181 L384 0 L633 0 L633 66 L449 66 L449 135 C559 167 650 249 650 384 C650 550 522 656 344 656 C168 656 38 552 38 384 C38 249 128 166 240 134 L240 66 L56 66 L56 0 L302 0 Z " />
<glyph glyph-name="uni03BC" unicode="&#x3bc;" horiz-adv-x="547" d="M143 440 L77 440 L77 -227 L143 -227 L143 38 C173 8 216 -8 269 -8 C331 -8 380 19 404 72 L406 0 L471 0 L471 440 L404 440 L404 187 C401 103 349 53 274 53 C196 53 143 106 143 194 L143 440 Z " />
<glyph glyph-name="pi" unicode="&#x3c0;" horiz-adv-x="542" d="M466 440 L77 440 L77 0 L143 0 L143 379 L399 379 L399 0 L466 0 L466 440 Z " />
<glyph glyph-name="Wgrave" unicode="&#x1e80;" horiz-adv-x="993" d="M13 648 L255 0 L311 0 L495 461 L680 0 L734 0 L980 648 L907 648 L707 105 L507 604 L480 604 L287 104 L87 648 L13 648 Z M360 839 L480 720 L543 720 L543 724 L439 843 L360 843 L360 839 Z " />
<glyph glyph-name="wgrave" unicode="&#x1e81;" horiz-adv-x="754" d="M680 440 L539 93 L390 440 L362 440 L217 91 L74 440 L5 440 L191 0 L240 0 L376 319 L515 0 L563 0 L750 440 L680 440 Z M244 631 L364 512 L427 512 L427 516 L323 635 L244 635 L244 631 Z " />
<glyph glyph-name="Wacute" unicode="&#x1e82;" horiz-adv-x="993" d="M13 648 L255 0 L311 0 L495 461 L680 0 L734 0 L980 648 L907 648 L707 105 L507 604 L480 604 L287 104 L87 648 L13 648 Z M644 843 L566 843 L462 724 L462 720 L525 720 L644 839 L644 843 Z " />
<glyph glyph-name="wacute" unicode="&#x1e83;" horiz-adv-x="754" d="M680 440 L539 93 L390 440 L362 440 L217 91 L74 440 L5 440 L191 0 L240 0 L376 319 L515 0 L563 0 L750 440 L680 440 Z M528 635 L450 635 L346 516 L346 512 L409 512 L528 631 L528 635 Z " />
<glyph glyph-name="Wdieresis" unicode="&#x1e84;" horiz-adv-x="993" d="M13 648 L255 0 L311 0 L495 461 L680 0 L734 0 L980 648 L907 648 L707 105 L507 604 L480 604 L287 104 L87 648 L13 648 Z M577 727 C600 727 618 745 618 767 C618 790 600 808 577 808 C555 808 537 790 537 767 C537 745 555 727 577 727 L577 727 Z M407 727 C430 727 448 745 448 767 C448 790 430 808 407 808 C385 808 367 790 367 767 C367 745 385 727 407 727 L407 727 Z " />
<glyph glyph-name="wdieresis" unicode="&#x1e85;" horiz-adv-x="754" d="M680 440 L539 93 L390 440 L362 440 L217 91 L74 440 L5 440 L191 0 L240 0 L376 319 L515 0 L563 0 L750 440 L680 440 Z M461 519 C484 519 502 537 502 559 C502 582 484 600 461 600 C439 600 421 582 421 559 C421 537 439 519 461 519 L461 519 Z M291 519 C314 519 332 537 332 559 C332 582 314 600 291 600 C269 600 251 582 251 559 C251 537 269 519 291 519 L291 519 Z " />
<glyph glyph-name="Ygrave" unicode="&#x1ef2;" horiz-adv-x="645" d="M360 0 L360 262 L629 648 L545 648 L323 327 L100 648 L16 648 L287 262 L287 0 L360 0 Z M190 839 L310 720 L373 720 L373 724 L269 843 L190 843 L190 839 Z " />
<glyph glyph-name="ygrave" unicode="&#x1ef3;" horiz-adv-x="468" d="M166 -188 L464 440 L392 440 L239 105 L78 440 L5 440 L206 32 L98 -188 L166 -188 Z M105 631 L225 512 L288 512 L288 516 L184 635 L105 635 L105 631 Z " />
<glyph glyph-name="endash" unicode="&#x2013;" horiz-adv-x="553" d="M507 216 L507 275 L46 275 L46 216 L507 216 Z " />
<glyph glyph-name="emdash" unicode="&#x2014;" horiz-adv-x="1011" d="M964 216 L964 275 L46 275 L46 216 L964 216 Z " />
<glyph glyph-name="quoteleft" unicode="&#x2018;" horiz-adv-x="219" d="M130 460 L130 507 C130 575 144 613 173 648 L116 648 C85 620 71 576 71 510 L71 460 L130 460 Z " />
<glyph glyph-name="quoteright" unicode="&#x2019;" horiz-adv-x="219" d="M103 460 C135 488 148 532 148 597 L148 648 L89 648 L89 601 C89 533 75 494 46 460 L103 460 Z " />
<glyph glyph-name="quotesinglbase" unicode="&#x201a;" horiz-adv-x="219" d="M103 -118 C135 -90 148 -41 148 20 L148 71 L89 71 L89 23 C89 -44 75 -83 46 -118 L103 -118 Z " />
<glyph glyph-name="quotedblleft" unicode="&#x201c;" horiz-adv-x="352" d="M130 460 L130 507 C130 575 144 613 173 648 L116 648 C85 620 71 576 71 510 L71 460 L130 460 Z M263 460 L263 507 C263 575 277 613 306 648 L249 648 C217 620 204 576 204 510 L204 460 L263 460 Z " />
<glyph glyph-name="quotedblright" unicode="&#x201d;" horiz-adv-x="354" d="M103 460 C135 488 148 532 148 597 L148 648 L89 648 L89 601 C89 533 75 494 46 460 L103 460 Z M236 460 C268 488 281 532 281 597 L281 648 L222 648 L222 601 C222 533 208 494 179 460 L236 460 Z " />
<glyph glyph-name="quotedblbase" unicode="&#x201e;" horiz-adv-x="352" d="M103 -120 C135 -92 148 -48 148 18 L148 68 L89 68 L89 21 C89 -47 75 -85 46 -120 L103 -120 Z M236 -120 C268 -92 281 -48 281 18 L281 68 L222 68 L222 21 C222 -47 208 -85 179 -120 L236 -120 Z " />
<glyph glyph-name="dagger" unicode="&#x2020;" horiz-adv-x="535" d="M298 0 L298 390 L436 390 L436 450 L298 450 L298 608 L237 608 L237 450 L99 450 L99 390 L237 390 L237 0 L298 0 Z " />
<glyph glyph-name="daggerdbl" unicode="&#x2021;" horiz-adv-x="535" d="M298 0 L298 147 L436 147 L436 204 L298 204 L298 404 L436 404 L436 461 L298 461 L298 608 L237 608 L237 461 L99 461 L99 404 L237 404 L237 204 L99 204 L99 147 L237 147 L237 0 L298 0 Z " />
<glyph glyph-name="bullet" unicode="&#x2022;" horiz-adv-x="363" d="M181 120 L308 246 L181 374 L55 246 L181 120 Z " />
<glyph glyph-name="ellipsis" unicode="&#x2026;" horiz-adv-x="710" d="M112 -8 C137 -8 157 12 157 37 C157 63 137 83 112 83 C87 83 66 63 66 37 C66 12 87 -8 112 -8 L112 -8 Z M355 -8 C380 -8 401 12 401 37 C401 63 380 83 355 83 C330 83 310 63 310 37 C310 12 330 -8 355 -8 L355 -8 Z M598 -8 C624 -8 644 12 644 37 C644 63 624 83 598 83 C573 83 553 63 553 37 C553 12 573 -8 598 -8 L598 -8 Z " />
<glyph glyph-name="perthousand" unicode="&#x2030;" horiz-adv-x="1204" d="M205 344 C137 344 97 389 97 472 C97 555 137 600 205 600 C273 600 313 555 313 472 C313 389 273 344 205 344 L205 344 Z M205 288 C305 288 374 357 374 472 C374 587 305 656 205 656 C105 656 36 587 36 472 C36 357 105 288 205 288 L205 288 Z M268 0 L611 648 L552 648 L209 0 L268 0 Z M617 48 C549 48 510 93 510 176 C510 259 549 304 617 304 C685 304 725 259 725 176 C725 93 685 48 617 48 L617 48 Z M617 -8 C718 -8 786 61 786 176 C786 291 718 360 617 360 C517 360 448 291 448 176 C448 61 517 -8 617 -8 L617 -8 Z M999 48 C931 48 891 93 891 176 C891 259 931 304 999 304 C1066 304 1106 259 1106 176 C1106 93 1066 48 999 48 L999 48 Z M999 -8 C1099 -8 1168 61 1168 176 C1168 291 1099 360 999 360 C898 360 830 291 830 176 C830 61 898 -8 999 -8 L999 -8 Z " />
<glyph glyph-name="guilsinglleft" unicode="&#x2039;" horiz-adv-x="366" d="M59 244 L288 28 L288 106 L145 244 L288 382 L288 460 L59 244 Z " />
<glyph glyph-name="guilsinglright" unicode="&#x203a;" horiz-adv-x="366" d="M83 461 L83 382 L226 244 L83 106 L83 27 L312 244 L83 461 Z " />
<glyph glyph-name="fraction" unicode="&#x2044;" horiz-adv-x="83" d="M-99 0 L241 648 L182 648 L-158 0 L-99 0 Z " />
<glyph glyph-name="uni2070" unicode="&#x2070;" horiz-adv-x="424" d="M212 529 C144 529 102 576 102 660 C102 745 144 791 212 791 C280 791 322 745 322 660 C322 576 280 529 212 529 L212 529 Z M212 476 C309 476 381 543 381 660 C381 777 309 844 212 844 C115 844 43 777 43 660 C43 543 115 476 212 476 L212 476 Z " />
<glyph glyph-name="uni2074" unicode="&#x2074;" horiz-adv-x="424" d="M324 484 L324 553 L399 553 L399 602 L324 602 L324 838 L280 838 L25 586 L25 553 L271 553 L271 484 L324 484 Z M106 602 L271 763 L271 602 L106 602 Z " />
<glyph glyph-name="uni2075" unicode="&#x2075;" horiz-adv-x="424" d="M346 784 L346 836 L77 836 L57 662 L57 633 C95 654 146 661 192 661 C275 661 311 638 311 595 C311 551 268 529 189 529 C143 529 99 536 54 563 L54 507 C88 486 143 476 193 476 C299 476 370 517 370 595 C370 671 311 713 197 713 C167 713 137 708 110 700 L118 784 L346 784 Z " />
<glyph glyph-name="uni2076" unicode="&#x2076;" horiz-adv-x="424" d="M218 714 C196 714 177 711 160 706 L279 836 L214 836 L101 713 C66 675 36 638 36 596 C36 515 109 476 212 476 C315 476 388 516 388 596 C388 673 322 714 218 714 L218 714 Z M95 596 C95 646 141 663 212 663 C295 663 329 639 329 596 C329 553 295 529 212 529 C129 529 95 553 95 596 L95 596 Z " />
<glyph glyph-name="uni2077" unicode="&#x2077;" horiz-adv-x="424" d="M183 484 L379 808 L379 836 L45 836 L45 784 L303 784 L121 484 L183 484 Z " />
<glyph glyph-name="uni2078" unicode="&#x2078;" horiz-adv-x="426" d="M214 844 C111 844 49 808 49 742 C49 704 64 679 93 664 C52 648 34 620 34 582 C34 519 89 476 214 476 C342 476 391 519 391 582 C391 621 374 649 334 665 C363 680 379 705 379 742 C379 808 317 844 214 844 L214 844 Z M214 529 C121 529 93 552 93 586 C93 619 121 642 214 642 C307 642 334 619 334 586 C334 552 307 529 214 529 L214 529 Z M214 791 C299 791 324 771 324 739 C324 707 299 687 214 687 C128 687 104 707 104 739 C104 771 128 791 214 791 L214 791 Z " />
<glyph glyph-name="uni2079" unicode="&#x2079;" horiz-adv-x="424" d="M264 612 L145 484 L210 484 L325 607 C360 645 388 679 388 724 C388 805 315 844 212 844 C109 844 36 804 36 724 C36 647 102 606 206 606 C229 606 249 609 266 614 L264 612 Z M325 701 C314 671 279 657 212 657 C129 657 95 681 95 724 C95 767 129 791 212 791 C295 791 329 767 329 724 C329 716 328 708 325 701 L325 701 Z " />
<glyph glyph-name="plus.superior" unicode="&#x207a;" horiz-adv-x="424" d="M237 542 L237 633 L344 633 L344 681 L237 681 L237 772 L190 772 L190 681 L80 681 L80 633 L190 633 L190 542 L237 542 Z " />
<glyph glyph-name="minus.superior" unicode="&#x207b;" horiz-adv-x="424" d="M344 633 L344 681 L80 681 L80 633 L344 633 Z " />
<glyph glyph-name="equal.superior" unicode="&#x207c;" horiz-adv-x="424" d="M344 681 L344 729 L80 729 L80 681 L344 681 Z M344 585 L344 633 L80 633 L80 585 L344 585 Z " />
<glyph glyph-name="parenleft.superior" unicode="&#x207d;" horiz-adv-x="253" d="M118 658 C118 728 147 789 218 843 L176 868 C103 817 64 744 64 658 C64 572 103 501 176 450 L218 475 C147 529 118 589 118 658 L118 658 Z " />
<glyph glyph-name="parenright.superior" unicode="&#x207e;" horiz-adv-x="253" d="M134 658 C134 589 106 529 34 475 L77 450 C149 501 188 573 188 658 C188 745 150 817 77 868 L34 843 C106 790 134 728 134 658 L134 658 Z " />
<glyph glyph-name="n.superior" unicode="&#x207f;" horiz-adv-x="470" d="M130 484 L130 682 C130 750 174 791 236 791 C299 791 344 746 344 678 L344 484 L402 484 L402 678 C402 784 334 844 243 844 C191 844 151 822 129 783 L128 836 L73 836 L73 484 L130 484 Z " />
<glyph glyph-name="uni2080" unicode="&#x2080;" horiz-adv-x="424" d="M212 -143 C144 -143 102 -97 102 -12 C102 73 144 119 212 119 C280 119 322 73 322 -12 C322 -97 280 -143 212 -143 L212 -143 Z M212 -196 C309 -196 381 -129 381 -12 C381 105 309 172 212 172 C115 172 43 105 43 -12 C43 -129 115 -196 212 -196 L212 -196 Z " />
<glyph glyph-name="uni2081" unicode="&#x2081;" horiz-adv-x="380" d="M72 50 L208 100 L208 -188 L263 -188 L263 176 L72 102 L72 50 Z " />
<glyph glyph-name="uni2082" unicode="&#x2082;" horiz-adv-x="424" d="M371 -188 L371 -136 L182 -136 C287 -74 343 -24 343 47 C343 122 287 172 184 172 C137 172 87 158 57 132 L57 79 C91 104 135 119 182 119 C253 119 284 89 284 45 C284 -10 247 -50 51 -161 L51 -188 L371 -188 Z " />
<glyph glyph-name="uni2083" unicode="&#x2083;" horiz-adv-x="424" d="M49 164 L49 112 L252 112 L100 8 L100 -21 C131 -14 158 -11 189 -11 C285 -11 314 -39 314 -77 C314 -116 284 -143 192 -143 C136 -143 92 -130 46 -103 L46 -160 C81 -184 134 -196 194 -196 C323 -196 373 -141 373 -77 C373 -8 323 32 220 36 L362 131 L362 164 L49 164 Z " />
<glyph glyph-name="uni2084" unicode="&#x2084;" horiz-adv-x="424" d="M325 -188 L325 -119 L399 -119 L399 -70 L325 -70 L325 166 L281 166 L26 -86 L26 -119 L272 -119 L272 -188 L325 -188 Z M106 -70 L272 91 L272 -70 L106 -70 Z " />
<glyph glyph-name="uni2085" unicode="&#x2085;" horiz-adv-x="424" d="M346 112 L346 164 L77 164 L57 -10 L57 -39 C95 -18 146 -11 192 -11 C275 -11 311 -34 311 -77 C311 -121 268 -143 189 -143 C143 -143 99 -136 54 -109 L54 -165 C88 -186 143 -196 193 -196 C299 -196 370 -155 370 -77 C370 -1 311 41 197 41 C167 41 137 36 110 28 L118 112 L346 112 Z " />
<glyph glyph-name="uni2086" unicode="&#x2086;" horiz-adv-x="424" d="M218 42 C196 42 177 39 160 34 L279 164 L214 164 L101 41 C66 3 36 -34 36 -76 C36 -157 109 -196 212 -196 C315 -196 388 -156 388 -76 C388 1 322 42 218 42 L218 42 Z M95 -76 C95 -25 141 -9 212 -9 C295 -9 329 -33 329 -76 C329 -119 295 -143 212 -143 C129 -143 95 -119 95 -76 L95 -76 Z " />
<glyph glyph-name="uni2087" unicode="&#x2087;" horiz-adv-x="424" d="M183 -188 L379 136 L379 164 L45 164 L45 112 L305 112 L123 -188 L183 -188 Z " />
<glyph glyph-name="uni2088" unicode="&#x2088;" horiz-adv-x="426" d="M214 172 C111 172 49 136 49 70 C49 32 64 7 93 -7 C52 -24 34 -51 34 -90 C34 -153 89 -196 214 -196 C342 -196 391 -153 391 -90 C391 -50 374 -23 334 -7 C363 8 379 33 379 70 C379 136 317 172 214 172 L214 172 Z M214 -143 C121 -143 93 -120 93 -86 C93 -53 121 -30 214 -30 C307 -30 334 -53 334 -86 C334 -120 307 -143 214 -143 L214 -143 Z M214 119 C299 119 324 99 324 67 C324 35 299 15 214 15 C128 15 104 35 104 67 C104 99 128 119 214 119 L214 119 Z " />
<glyph glyph-name="uni2089" unicode="&#x2089;" horiz-adv-x="424" d="M264 -60 L145 -188 L210 -188 L325 -65 C360 -27 388 7 388 52 C388 133 315 172 212 172 C109 172 36 132 36 52 C36 -25 102 -66 206 -66 C229 -66 249 -63 266 -57 L264 -60 Z M325 29 C314 0 279 -15 212 -15 C129 -15 95 9 95 52 C95 95 129 119 212 119 C295 119 329 95 329 52 C329 44 328 36 325 29 L325 29 Z " />
<glyph glyph-name="plus.inferior" unicode="&#x208a;" horiz-adv-x="424" d="M237 -130 L237 -39 L344 -39 L344 9 L237 9 L237 100 L190 100 L190 9 L80 9 L80 -39 L190 -39 L190 -130 L237 -130 Z " />
<glyph glyph-name="minus.inferior" unicode="&#x208b;" horiz-adv-x="424" d="M344 -39 L344 9 L80 9 L80 -39 L344 -39 Z " />
<glyph glyph-name="equal.inferior" unicode="&#x208c;" horiz-adv-x="424" d="M344 9 L344 57 L80 57 L80 9 L344 9 Z M344 -87 L344 -39 L80 -39 L80 -87 L344 -87 Z " />
<glyph glyph-name="parenleft.inferior" unicode="&#x208d;" horiz-adv-x="253" d="M118 -14 C118 56 147 117 218 171 L176 196 C103 145 64 72 64 -14 C64 -100 103 -171 176 -222 L218 -197 C147 -143 118 -83 118 -14 L118 -14 Z " />
<glyph glyph-name="parenright.inferior" unicode="&#x208e;" horiz-adv-x="253" d="M134 -14 C134 -83 106 -143 34 -197 L77 -222 C149 -171 188 -99 188 -14 C188 73 150 145 77 196 L34 171 C106 118 134 56 134 -14 L134 -14 Z " />
<glyph glyph-name="Euro" unicode="&#x20ac;" horiz-adv-x="572" d="M431 352 L431 405 L145 405 C169 520 248 590 363 590 C452 590 511 555 562 506 L562 586 C512 628 450 656 363 656 C215 656 102 558 72 405 L0 405 L0 352 L66 352 C65 343 65 333 65 324 C65 311 65 299 66 288 L0 288 L0 235 L74 235 C106 83 223 -8 363 -8 C446 -8 511 14 562 62 L562 140 C510 85 442 58 363 58 C252 58 173 122 147 235 L431 235 L431 288 L139 288 C138 299 138 311 138 324 C138 333 138 343 139 352 L431 352 Z " />
<glyph glyph-name="afii61289" unicode="&#x2113;" horiz-adv-x="352" d="M286 97 C263 72 234 54 199 54 C146 54 134 90 134 153 L134 248 C226 333 291 437 291 531 C291 602 260 656 180 656 C112 656 67 611 67 528 L67 149 C67 52 108 -8 194 -8 C226 -8 262 5 286 29 L286 97 Z M134 530 C134 578 153 595 180 595 C209 595 228 573 228 527 C228 449 193 391 134 322 L134 530 Z " />
<glyph glyph-name="afii61352" unicode="&#x2116;" horiz-adv-x="1079" d="M161 0 L161 518 L511 0 L567 0 L569 648 L500 648 L500 130 L153 648 L94 648 L94 0 L161 0 Z M840 288 C956 288 1031 370 1031 472 C1031 574 956 656 840 656 C723 656 646 574 646 472 C646 370 723 288 840 288 L840 288 Z M840 341 C758 341 705 397 705 472 C705 547 758 603 840 603 C922 603 972 547 972 472 C972 397 922 341 840 341 L840 341 Z M1022 143 L1022 200 L660 200 L660 143 L1022 143 Z " />
<glyph glyph-name="trademark" unicode="&#x2122;" horiz-adv-x="955" d="M497 284 L497 565 C534 511 594 426 641 373 L654 373 L794 540 L794 284 L854 284 L854 648 L809 648 L649 451 L482 648 L437 648 L437 284 L497 284 Z M244 284 L244 594 L394 594 L394 648 L32 648 L32 594 L183 594 L183 284 L244 284 Z " />
<glyph glyph-name="Omega" unicode="&#x2126;" horiz-adv-x="688" d="M302 0 L302 181 C195 194 110 267 110 384 C110 509 202 591 344 591 C487 591 578 509 578 384 C578 267 492 194 384 181 L384 0 L633 0 L633 66 L449 66 L449 135 C559 167 650 249 650 384 C650 550 522 656 344 656 C168 656 38 552 38 384 C38 249 128 166 240 134 L240 66 L56 66 L56 0 L302 0 Z " />
<glyph glyph-name="estimated" unicode="&#x212e;" horiz-adv-x="904" d="M745 196 C693 103 590 49 452 49 C328 49 221 102 167 189 C164 200 164 210 164 221 L164 311 L839 311 L839 324 C839 517 672 660 452 660 C244 660 62 515 62 324 C62 132 239 -12 452 -12 C614 -12 757 63 817 196 L745 196 Z M452 603 C564 603 661 559 719 486 C726 470 728 454 728 438 L728 365 L164 365 L164 428 C164 441 166 455 170 470 C225 553 330 603 452 603 L452 603 Z " />
<glyph glyph-name="uni2153" unicode="&#x2153;" horiz-adv-x="875" d="M478 352 L478 301 L683 301 L530 196 L530 167 C561 174 588 177 618 177 C715 177 744 150 744 111 C744 72 714 45 622 45 C566 45 522 58 476 85 L476 28 C511 4 564 -8 623 -8 C753 -8 803 47 803 111 C803 180 752 220 649 224 L791 319 L791 352 L478 352 Z M240 0 L583 648 L525 648 L181 0 L240 0 Z M47 534 L183 584 L183 296 L238 296 L238 660 L47 586 L47 534 Z " />
<glyph glyph-name="uni2154" unicode="&#x2154;" horiz-adv-x="890" d="M517 352 L517 300 L720 300 L569 196 L569 167 C600 174 627 177 657 177 C754 177 783 149 783 111 C783 72 753 45 661 45 C605 45 561 58 515 85 L515 28 C550 4 603 -8 662 -8 C792 -8 842 47 842 111 C842 180 792 220 689 224 L830 319 L830 352 L517 352 Z M344 296 L344 348 L182 348 C287 410 343 460 343 531 C343 606 287 656 184 656 C137 656 87 642 57 616 L57 563 C91 588 135 603 182 603 C253 603 284 573 284 529 C284 474 247 434 51 323 L51 296 L344 296 Z M288 0 L631 648 L572 648 L229 0 L288 0 Z " />
<glyph glyph-name="uni2155" unicode="&#x2155;" horiz-adv-x="848" d="M749 301 L749 352 L479 352 L459 178 L459 149 C497 170 549 177 594 177 C678 177 713 154 713 111 C713 67 671 45 592 45 C545 45 502 52 457 79 L457 23 C491 2 546 -8 595 -8 C701 -8 772 33 772 111 C772 187 713 229 599 229 C570 229 539 224 512 216 L521 301 L749 301 Z M228 0 L571 648 L514 648 L169 0 L228 0 Z M47 534 L183 584 L183 296 L238 296 L238 660 L47 586 L47 534 Z " />
<glyph glyph-name="uni2156" unicode="&#x2156;" horiz-adv-x="870" d="M793 300 L793 352 L523 352 L503 178 L503 149 C541 170 592 177 638 177 C721 177 757 154 757 111 C757 67 715 45 636 45 C589 45 546 52 501 79 L501 23 C535 2 590 -8 639 -8 C745 -8 816 33 816 111 C816 187 757 229 643 229 C614 229 584 224 557 216 L565 300 L793 300 Z M344 296 L344 348 L182 348 C287 410 343 460 343 531 C343 606 287 656 184 656 C137 656 87 642 57 616 L57 563 C91 588 135 603 182 603 C253 603 284 573 284 529 C284 474 247 434 51 323 L51 296 L344 296 Z M287 0 L631 648 L574 648 L229 0 L287 0 Z " />
<glyph glyph-name="uni2157" unicode="&#x2157;" horiz-adv-x="874" d="M49 648 L49 596 L252 596 L100 492 L100 463 C131 470 158 473 189 473 C285 473 314 445 314 407 C314 368 284 341 192 341 C136 341 92 354 46 381 L46 324 C81 300 134 288 194 288 C323 288 373 343 373 407 C373 476 323 516 220 520 L362 615 L362 648 L49 648 Z M796 300 L796 352 L527 352 L507 178 L507 149 C545 170 596 177 642 177 C725 177 761 154 761 111 C761 67 718 45 639 45 C593 45 549 52 504 79 L504 23 C539 2 593 -8 643 -8 C749 -8 820 33 820 111 C820 187 761 229 647 229 C617 229 587 224 560 216 L568 300 L796 300 Z M285 0 L630 648 L571 648 L226 0 L285 0 Z " />
<glyph glyph-name="uni2158" unicode="&#x2158;" horiz-adv-x="888" d="M323 296 L323 365 L398 365 L398 414 L323 414 L323 650 L279 650 L25 398 L25 365 L270 365 L270 296 L323 296 Z M810 300 L810 352 L541 352 L521 178 L521 149 C559 170 610 177 656 177 C739 177 775 154 775 111 C775 67 732 45 653 45 C607 45 564 52 518 79 L518 23 C553 2 607 -8 657 -8 C763 -8 834 33 834 111 C834 187 775 229 661 229 C631 229 601 225 574 216 L583 300 L810 300 Z M301 0 L646 648 L587 648 L242 0 L301 0 Z M105 414 L270 575 L270 414 L105 414 Z " />
<glyph glyph-name="uni2159" unicode="&#x2159;" horiz-adv-x="825" d="M595 230 C699 230 765 190 765 112 C765 32 692 -8 589 -8 C486 -8 413 32 413 112 C413 154 443 191 479 229 L591 352 L657 352 L538 222 C555 227 574 230 595 230 L595 230 Z M242 0 L584 648 L527 648 L183 0 L242 0 Z M48 534 L185 584 L185 296 L239 296 L239 660 L48 586 L48 534 Z M472 120 L472 112 C472 69 506 45 589 45 C673 45 707 69 707 112 C707 155 673 179 589 179 C519 179 483 162 474 130 L472 120 Z " />
<glyph glyph-name="uni215A" unicode="&#x215a;" horiz-adv-x="855" d="M649 230 C627 230 608 227 591 222 L710 352 L645 352 L532 229 C497 191 467 154 467 112 C467 31 540 -8 643 -8 C746 -8 819 32 819 112 C819 189 753 230 649 230 L649 230 Z M358 596 L358 648 L88 648 L68 474 L68 445 C106 466 157 473 203 473 C287 473 322 450 322 407 C322 363 280 341 201 341 C154 341 111 348 66 375 L66 319 C100 298 155 288 204 288 C310 288 381 329 381 407 C381 483 323 525 208 525 C179 525 149 520 122 512 L130 596 L358 596 Z M298 0 L641 648 L582 648 L239 0 L298 0 Z M526 112 C526 162 572 179 643 179 C726 179 760 155 760 112 C760 69 726 45 643 45 C560 45 526 69 526 112 L526 112 Z " />
<glyph glyph-name="uni215B" unicode="&#x215b;" horiz-adv-x="878" d="M631 360 C528 360 466 324 466 258 C466 220 481 195 510 180 C469 164 452 136 452 98 C452 35 506 -8 631 -8 C759 -8 809 35 809 98 C809 137 792 165 751 181 C781 196 796 221 796 258 C796 324 734 360 631 360 L631 360 Z M240 0 L583 648 L525 648 L181 0 L240 0 Z M47 534 L183 584 L183 296 L238 296 L238 660 L47 586 L47 534 Z M631 45 C538 45 510 68 510 102 C510 135 538 158 631 158 C724 158 752 135 751 102 C751 68 724 45 631 45 L631 45 Z M631 307 C717 307 741 287 741 255 C741 223 717 203 631 203 C545 203 521 223 521 255 C521 287 545 307 631 307 L631 307 Z " />
<glyph glyph-name="uni215C" unicode="&#x215c;" horiz-adv-x="869" d="M657 360 C554 360 492 324 492 258 C492 220 507 195 536 180 C495 164 477 136 477 98 C477 35 532 -8 657 -8 C785 -8 834 35 834 98 C834 137 817 165 777 181 C807 196 822 221 822 258 C822 324 760 360 657 360 L657 360 Z M49 648 L49 596 L252 596 L100 492 L100 463 C131 470 158 473 189 473 C285 473 314 445 314 407 C314 368 284 341 192 341 C136 341 92 354 46 381 L46 324 C81 300 134 288 194 288 C323 288 373 343 373 407 C373 476 323 516 220 520 L362 615 L362 648 L49 648 Z M285 0 L628 648 L571 648 L226 0 L285 0 Z M657 45 C564 45 537 68 537 102 C537 135 564 158 657 158 C750 158 777 135 777 102 C777 68 750 45 657 45 L657 45 Z M657 307 C743 307 767 287 767 255 C767 223 743 203 657 203 C571 203 547 223 547 255 C547 287 571 307 657 307 L657 307 Z " />
<glyph glyph-name="uni215D" unicode="&#x215d;" horiz-adv-x="880" d="M668 360 C565 360 503 324 503 258 C503 220 518 195 547 180 C507 164 489 136 489 98 C489 35 543 -8 668 -8 C797 -8 846 35 846 98 C846 137 829 165 788 181 C818 196 833 221 833 258 C833 324 771 360 668 360 L668 360 Z M346 596 L346 648 L77 648 L57 474 L57 445 C95 466 146 473 192 473 C275 473 311 450 311 407 C311 363 268 341 189 341 C143 341 99 348 54 375 L54 319 C88 298 143 288 193 288 C299 288 370 329 370 407 C370 483 311 525 197 525 C167 525 137 520 110 512 L118 596 L346 596 Z M289 0 L632 648 L573 648 L230 0 L289 0 Z M668 45 C575 45 548 68 548 102 C548 135 575 158 668 158 C762 158 789 135 789 102 C788 68 762 45 668 45 L668 45 Z M668 307 C754 307 778 287 778 255 C778 223 754 203 668 203 C583 203 558 223 558 255 C558 287 583 307 668 307 L668 307 Z " />
<glyph glyph-name="uni215E" unicode="&#x215e;" horiz-adv-x="824" d="M612 360 C509 360 447 324 447 258 C447 220 462 195 491 180 C450 164 432 136 432 98 C432 35 487 -8 612 -8 C740 -8 789 35 789 98 C789 137 772 165 732 181 C761 196 777 221 777 258 C777 324 715 360 612 360 L612 360 Z M229 0 L572 648 L513 648 L170 0 L229 0 Z M178 296 L375 620 L375 648 L40 648 L40 596 L300 596 L118 296 L178 296 Z M612 45 C519 45 492 68 492 102 C492 135 519 158 612 158 C705 158 732 135 732 102 C732 68 705 45 612 45 L612 45 Z M612 307 C697 307 722 287 722 255 C722 223 697 203 612 203 C526 203 502 223 502 255 C502 287 526 307 612 307 L612 307 Z " />
<glyph glyph-name="uni2190" unicode="&#x2190;" horiz-adv-x="616" d="M237 209 L237 305 L554 305 L554 364 L237 364 L237 461 L50 335 L237 209 Z " />
<glyph glyph-name="uni2191" unicode="&#x2191;" horiz-adv-x="478" d="M268 87 L268 404 L365 404 L239 590 L113 404 L209 404 L209 87 L268 87 Z " />
<glyph glyph-name="uni2192" unicode="&#x2192;" horiz-adv-x="616" d="M50 305 L367 305 L367 209 L554 335 L367 461 L367 364 L50 364 L50 305 Z " />
<glyph glyph-name="uni2193" unicode="&#x2193;" horiz-adv-x="478" d="M365 265 L268 265 L268 582 L209 582 L209 265 L113 265 L239 78 L365 265 Z " />
<glyph glyph-name="uni2196" unicode="&#x2196;" horiz-adv-x="540" d="M72 525 L112 300 L185 373 L428 129 L468 170 L224 412 L295 483 L72 525 Z " />
<glyph glyph-name="uni2197" unicode="&#x2197;" horiz-adv-x="540" d="M245 483 L315 412 L72 170 L112 129 L355 373 L428 300 L468 525 L245 483 Z " />
<glyph glyph-name="uni2198" unicode="&#x2198;" horiz-adv-x="540" d="M468 129 L428 353 L355 280 L112 525 L72 483 L315 240 L245 171 L468 129 Z " />
<glyph glyph-name="uni2199" unicode="&#x2199;" horiz-adv-x="540" d="M295 171 L225 240 L468 483 L428 525 L185 280 L112 353 L72 129 L295 171 Z " />
<glyph glyph-name="partialdiff" unicode="&#x2202;" horiz-adv-x="588" d="M141 148 L188 205 C218 183 255 172 295 172 C335 172 372 183 401 205 L449 148 L499 192 L444 250 C460 277 470 310 470 348 C470 386 460 418 443 445 L499 504 L449 548 L401 490 C371 512 334 524 295 524 C255 524 218 512 188 491 L141 548 L90 504 L146 445 C129 418 119 386 119 348 C119 310 129 277 146 250 L90 192 L141 148 Z M295 232 C231 232 185 277 185 348 C185 419 231 464 295 464 C359 464 405 419 405 348 C405 277 359 232 295 232 L295 232 Z " />
<glyph glyph-name="Delta" unicode="&#x2206;" horiz-adv-x="649" d="M638 0 L353 648 L298 648 L11 0 L638 0 Z M325 557 L535 66 L111 66 L325 557 Z " />
<glyph glyph-name="product" unicode="&#x220f;" horiz-adv-x="732" d="M165 0 L165 582 L568 582 L568 0 L638 0 L638 648 L94 648 L94 0 L165 0 Z " />
<glyph glyph-name="summation" unicode="&#x2211;" horiz-adv-x="570" d="M517 582 L517 648 L29 648 L29 612 L253 334 L17 36 L17 0 L522 0 L522 66 L121 66 L333 331 L333 339 L135 582 L517 582 Z " />
<glyph glyph-name="minus" unicode="&#x2212;" horiz-adv-x="572" d="M478 293 L478 351 L94 351 L94 293 L478 293 Z " />
<glyph glyph-name="uni2215" unicode="&#x2215;" horiz-adv-x="83" d="M-99 0 L241 648 L182 648 L-158 0 L-99 0 Z " />
<glyph glyph-name="uni2219" unicode="&#x2219;" horiz-adv-x="218" d="M109 281 L158 330 L109 380 L60 330 L109 281 Z " />
<glyph glyph-name="radical" unicode="&#x221a;" horiz-adv-x="575" d="M281 0 L541 648 L470 648 L258 102 L170 347 L50 347 L50 294 L125 294 L234 0 L281 0 Z " />
<glyph glyph-name="infinity" unicode="&#x221e;" horiz-adv-x="572" d="M408 144 C467 144 515 197 515 304 C515 411 467 464 408 464 C356 464 332 439 285 362 C242 432 218 464 164 464 C105 464 57 411 57 304 C57 197 105 144 164 144 C215 144 242 172 286 245 C330 173 359 144 408 144 L408 144 Z M402 407 C435 407 454 374 454 304 C454 234 435 201 402 201 C378 201 355 239 318 304 C356 374 376 407 402 407 L402 407 Z M170 407 C195 407 214 372 254 304 C215 236 192 201 170 201 C137 201 118 234 118 304 C118 374 137 407 170 407 L170 407 Z " />
<glyph glyph-name="integral" unicode="&#x222b;" horiz-adv-x="409" d="M417 589 L417 648 L326 648 C249 648 173 613 173 488 L173 -26 C173 -97 142 -129 78 -129 L-7 -129 L-7 -188 L84 -188 C161 -188 239 -153 239 -28 L239 486 C239 557 269 589 333 589 L417 589 Z " />
<glyph glyph-name="approxequal" unicode="&#x2248;" horiz-adv-x="572" d="M377 244 C312 244 259 296 191 296 C149 296 115 279 93 250 L93 186 C121 221 154 236 191 236 C254 236 310 184 379 184 C424 184 456 201 478 230 L478 293 C450 258 421 244 377 244 L377 244 Z M377 387 C312 387 259 439 191 439 C149 439 115 423 93 393 L93 333 C121 368 154 379 191 379 C254 379 310 327 379 327 C424 327 456 344 478 373 L478 440 C450 405 417 387 377 387 L377 387 Z " />
<glyph glyph-name="notequal" unicode="&#x2260;" horiz-adv-x="572" d="M208 93 L261 207 L474 207 L474 263 L287 263 L339 377 L474 377 L474 433 L365 433 L420 551 L366 551 L311 433 L98 433 L98 377 L285 377 L232 263 L98 263 L98 207 L206 207 L153 93 L208 93 Z " />
<glyph glyph-name="lessequal" unicode="&#x2264;" horiz-adv-x="572" d="M478 474 L478 535 L94 387 L94 341 L478 195 L478 258 L182 364 L478 474 Z M478 45 L478 103 L94 103 L94 45 L478 45 Z " />
<glyph glyph-name="greaterequal" unicode="&#x2265;" horiz-adv-x="572" d="M390 364 L94 258 L94 195 L478 341 L478 387 L94 535 L94 474 L390 364 Z M478 45 L478 103 L94 103 L94 45 L478 45 Z " />
<glyph glyph-name="uni25A0" unicode="&#x25a0;" horiz-adv-x="728" d="M712 0 L712 648 L16 648 L16 0 L712 0 Z " />
<glyph glyph-name="uni25A1" unicode="&#x25a1;" horiz-adv-x="728" d="M712 0 L712 648 L16 648 L16 0 L712 0 Z M86 578 L642 578 L642 70 L86 70 L86 578 Z " />
<glyph glyph-name="uni25B6" unicode="&#x25b6;" horiz-adv-x="573" d="M506 328 L110 556 L110 100 L506 328 Z " />
<glyph glyph-name="uni25B7" unicode="&#x25b7;" horiz-adv-x="640" d="M540 328 L144 556 L144 100 L540 328 Z M412 329 L209 214 L209 443 L412 329 Z " />
<glyph glyph-name="uni25C0" unicode="&#x25c0;" horiz-adv-x="640" d="M496 556 L100 328 L496 100 L496 556 Z " />
<glyph glyph-name="uni25C1" unicode="&#x25c1;" horiz-adv-x="640" d="M100 328 L496 100 L496 556 L100 328 Z M227 329 L431 443 L431 214 L227 329 Z " />
<glyph glyph-name="lozenge" unicode="&#x25ca;" horiz-adv-x="653" d="M22 321 L306 0 L347 0 L630 321 L630 327 L347 648 L306 648 L22 327 L22 321 Z M104 325 L325 577 L548 325 L326 73 L104 325 Z " />
<glyph glyph-name="uni25CB" unicode="&#x25cb;" horiz-adv-x="640" d="M320 100 C446 100 548 202 548 328 C548 454 446 556 320 556 C194 556 92 454 92 328 C92 202 194 100 320 100 L320 100 Z M320 165 C230 165 159 238 159 328 C159 418 230 491 320 491 C410 491 481 418 481 328 C481 238 410 165 320 165 L320 165 Z " />
<glyph glyph-name="uni25CF" unicode="&#x25cf;" horiz-adv-x="640" d="M320 100 C446 100 548 202 548 328 C548 454 446 556 320 556 C194 556 92 454 92 328 C92 202 194 100 320 100 L320 100 Z " />
<glyph glyph-name="uni25FB" unicode="&#x25fb;" horiz-adv-x="547" d="M494 108 L494 548 L54 548 L54 108 L494 108 Z M118 483 L429 483 L429 173 L118 173 L118 483 Z " />
<glyph glyph-name="uni25FC" unicode="&#x25fc;" horiz-adv-x="547" d="M494 108 L494 548 L54 548 L54 108 L494 108 Z " />
<glyph glyph-name="uni2605" unicode="&#x2605;" horiz-adv-x="546" d="M432 104 L371 296 L536 412 L332 412 L272 600 L212 412 L12 412 L174 296 L116 104 L273 228 L432 104 Z " />
<glyph glyph-name="ff" unicode="&#xfb00;" horiz-adv-x="651" d="M388 0 L455 0 L455 381 L633 381 L633 440 L455 440 L455 475 C455 555 493 595 561 595 C600 595 638 585 665 565 L665 629 C642 644 608 656 559 656 C464 656 388 596 388 475 L388 440 L145 440 L145 460 C145 541 183 579 247 579 C286 579 319 568 344 551 L344 617 C321 629 288 640 244 640 C158 640 79 586 79 462 L79 0 L145 0 L145 381 L388 381 L388 0 Z " />
<glyph glyph-name="fi" unicode="&#xfb01;" horiz-adv-x="534" d="M455 0 L455 440 L145 440 L145 480 C145 561 187 595 245 595 C286 595 312 585 337 569 L337 635 C317 647 289 656 239 656 C158 656 79 602 79 478 L79 0 L145 0 L145 381 L388 381 L388 0 L455 0 Z M421 533 C445 533 464 552 464 577 C464 601 445 620 421 620 C397 620 379 601 379 577 C379 552 397 533 421 533 L421 533 Z " />
<glyph glyph-name="fl" unicode="&#xfb02;" horiz-adv-x="534" d="M316 381 L316 440 L145 440 L145 478 C145 559 182 595 244 595 C280 595 314 584 339 567 L339 633 C317 646 283 656 241 656 C148 656 79 600 79 476 L79 0 L145 0 L145 381 L316 381 Z M455 0 L455 648 L388 648 L388 0 L455 0 Z " />
<glyph glyph-name="ffi" unicode="&#xfb03;" horiz-adv-x="843" d="M388 0 L455 0 L455 381 L698 381 L698 0 L764 0 L764 440 L455 440 L455 480 C455 561 496 595 554 595 C596 595 621 585 647 569 L647 635 C627 647 599 656 549 656 C467 656 388 602 388 478 L388 440 L145 440 L145 460 C145 541 181 579 246 579 C284 579 317 566 342 550 L342 617 C320 629 286 640 242 640 C154 640 79 584 79 460 L79 0 L145 0 L145 381 L388 381 L388 0 Z M731 533 C755 533 774 552 774 577 C774 601 755 620 731 620 C706 620 688 601 688 577 C688 552 706 533 731 533 L731 533 Z " />
<glyph glyph-name="ffl" unicode="&#xfb04;" horiz-adv-x="843" d="M388 0 L455 0 L455 381 L625 381 L625 440 L455 440 L455 478 C455 559 491 595 553 595 C593 595 623 585 648 567 L648 632 C627 646 592 656 550 656 C457 656 388 600 388 476 L388 440 L145 440 L145 460 C145 541 183 579 247 579 C286 579 319 568 344 551 L344 617 C321 629 288 640 244 640 C158 640 79 586 79 462 L79 0 L145 0 L145 381 L388 381 L388 0 Z M764 0 L764 648 L698 648 L698 0 L764 0 Z " />
</font>
</svg>
