<?xml version="1.0" encoding="UTF-8" standalone="no"?>
<!DOCTYPE svg PUBLIC "-//W3C//DTD SVG 1.1//EN" "http://www.w3.org/Graphics/SVG/1.1/DTD/svg11.dtd" >
<svg xmlns="http://www.w3.org/2000/svg">
<metadata>
Generated by SVGconv.
Copyright   : Copyright (C) 1993; Type Market Ltd. Moscow, 119136, Box 20; phone:(095) 287-96-93; Created by A.Kustov
Foundry     : ParaType, Inc.
Foundry URL : http://www.paratype.com
</metadata>
<defs>
<font id="GalsWeb-Italic" horiz-adv-x="526" >
<font-face units-per-em="1000" ascent="963" descent="263" >
<font-face-src>
<font-face-name/>
</font-face-src>
</font-face>
<missing-glyph horiz-adv-x="500" />
<glyph unicode="&#13;" horiz-adv-x="250" />
<glyph unicode="&#32;" horiz-adv-x="292" />
<glyph unicode="&#33;" horiz-adv-x="263" d="M99 174l29 435q5 63 19.5 90q14.5 27 50.5 27q20 0 31 -16.5q11 -16.5 11 -45.5q0 -20 -9 -67q-9 -47 -24 -112q-15 -65 -33 -145q-18 -80 -36 -166zM44 52q0 26 18 43.5q18 17.5 43 17.5q26 0 43.5 -17.5q17.5 -17.5 17.5 -43.5q0 -25 -17.5 -43q-17.5 -18 -43.5 -18q-25 0 -43 18t-18 43z" />
<glyph unicode="&#34;" horiz-adv-x="372" d="M91 629v122h100v-122l-24 -144h-52zM261 629v122h100v-122l-24 -144l-52 0z" />
<glyph unicode="&#35;" horiz-adv-x="614" d="M95 119h-95v73h110l37 178h-147v73h162l43 204h76l-43 -204h203l43 204h76l-43 -204h96v-73h-111l-37 -178h148v-73h-163l-43 -204h-76l43 204h-203l-43 -204h-76zM185 192h204l38 178l-204 0z" />
<glyph unicode="&#36;" horiz-adv-x="525" d="M194 -10q-91 12 -152 57l15 103q17 -11 32 -20q15 -9 32 -17q17 -8 37.5 -15.5q20.5 -7.5 49.5 -15.5l30 225q-39 22 -68.5 43.5q-29.5 21.5 -49 45q-19.5 23.5 -29.5 49q-10 25.5 -10 56.5q0 37 16 69.5q16 32.5 44 56.5q28 24 66.5 39q38.5 15 84.5 17l5 42h78l-5 -42q42 -5 72.5 -17q30.5 -12 64.5 -32l-14 -95q-64 41 -136 56l-32 -225q35 -19 64.5 -39q29.5 -20 50.5 -43.5q21 -23.5 33 -51q12 -27.5 12 -61.5q0 -35 -15 -67.5q-15 -32.5 -42.5 -57.5q-27.5 -25 -67 -41q-39.5 -16 -88.5 -19l-15 -106h-77zM283 76q47 4 78 29.5q31 25.5 31 60.5q0 28 -21 53.5q-21 25.5 -60 46.5zM175 513q0 -29 17 -50.5q17 -21.5 62 -48.5l25 184q-48 -7 -76 -30t-28 -55z" />
<glyph unicode="&#37;" horiz-adv-x="743" d="M394 151q0 34 12.5 63q12.5 29 34 50.5q21.5 21.5 50.5 34q29 12.5 63 12.5q33 0 62 -12.5q29 -12.5 50.5 -34q21.5 -21.5 34.5 -50.5q13 -29 13 -63q0 -32 -13 -61q-13 -29 -35 -51q-22 -22 -51 -35q-29 -13 -61 -13q-34 0 -63 13q-29 13 -50.5 35q-21.5 22 -34 51q-12.5 29 -12.5 61zt0 0zM554 68q18 0 33 7q15 7 26 18q11 11 17.5 26q6.5 15 6.5 32q0 18 -6.5 33q-6.5 15 -18 26q-11.5 11 -26.5 17.5q-15 6.5 -32 6.5q-35 0 -59 -23.5q-24 -23.5 -24 -59.5q0 -16 7 -31q7 -15 18 -26.5q11 -11.5 26 -18.5q15 -7 32 -7zt0 0zM584 726h79l-471 -735h-80zM60 566q0 34 12.5 63q12.5 29 34 50.5q21.5 21.5 50.5 34q29 12.5 63 12.5q33 0 62 -12.5q29 -12.5 50.5 -34q21.5 -21.5 34.5 -50.5q13 -29 13 -63q0 -32 -13 -61q-13 -29 -35 -51q-22 -22 -51 -35q-29 -13 -61 -13q-34 0 -63 13q-29 13 -50.5 35q-21.5 22 -34 51q-12.5 29 -12.5 61zt0 0zM220 483q18 0 33 7q15 7 26 18q11 11 17.5 26q6.5 15 6.5 32q0 18 -6.5 33q-6.5 15 -18 26q-11.5 11 -26.5 17.5q-15 6.5 -32 6.5q-35 0 -59 -23.5q-24 -23.5 -24 -59.5q0 -16 7 -31q7 -15 18 -26.5q11 -11.5 26 -18.5t32 -7z" />
<glyph unicode="&#38;" horiz-adv-x="723" d="M658 -5q-9 -4 -26 -4q-18 0 -38.5 6q-20.5 6 -41 16.5q-20.5 10.5 -39.5 24.5q-19 14 -34 31q-51 -37 -103 -57.5q-52 -20.5 -118 -20.5q-52 0 -90 16.5q-38 16.5 -63.5 44q-25.5 27.5 -38 63.5q-12.5 36 -12.5 76q0 31 12 62q12 31 33.5 59q21.5 28 52.5 51q31 23 69 40q-17 32 -28.5 70.5q-11.5 38.5 -11.5 80.5q0 36 12.5 67.5q12.5 31.5 35 54.5q22.5 23 53 36q30.5 13 66.5 13q29 0 54.5 -11.5q25.5 -11.5 44 -31q18.5 -19.5 29.5 -46q11 -26.5 11 -56.5q0 -58 -36.5 -109.5q-36.5 -51.5 -115.5 -96.5q9 -16 25 -40q16 -24 36.5 -51q20.5 -27 42 -53.5q21.5 -26.5 40.5 -48.5q43 42 70 89q27 47 44 90l93 0q-8 -20 -22 -50q-14 -30 -33 -63q-19 -33 -42 -65.5q-23 -32.5 -49 -56.5q23 -22 44 -34q21 -12 38 -17.5q17 -5.5 29 -6.5q12 -1 18 -1q14 0 23 3zM150 190q0 -27 9.5 -49q9.5 -22 27 -38.5q17.5 -16.5 41 -25.5q23.5 -9 52.5 -9q62 0 138 56q-17 19 -39 45.5q-22 26.5 -43.5 55q-21.5 28.5 -41.5 56.5q-20 28 -32 49q-56 -31 -84 -66.5q-28 -35.5 -28 -73.5zt0 0zM295 444q46 23 73.5 58.5q27.5 35.5 27.5 71.5q0 32 -17 52q-17 20 -45 20q-29 0 -48.5 -27q-19.5 -27 -19.5 -68q0 -25 6 -48.5t23 -58.5z" />
<glyph unicode="&#39;" horiz-adv-x="198" d="M91 629v122h100v-122l-24 -144l-52 0z" />
<glyph unicode="&#40;" horiz-adv-x="307" d="M162 -242q-20 37 -39 85q-19 48 -34 100.5q-15 52.5 -24 107.5q-9 55 -9 108q0 84 19 159.5q19 75.5 52 144.5q33 69 77.5 133.5q44.5 64.5 96.5 128.5l50 0q-45 -56 -83.5 -128.5q-38.5 -72.5 -66.5 -156q-28 -83.5 -44 -174.5q-16 -91 -16 -183q0 -89 16.5 -172.5q16.5 -83.5 48.5 -152.5z" />
<glyph unicode="&#41;" horiz-adv-x="306" d="M-58 -242q45 55 83.5 128q38.5 73 66.5 156.5q28 83.5 44 174.5q16 91 16 183q0 89 -16.5 172.5q-16.5 83.5 -48.5 152.5l44 0q20 -38 39 -85.5q19 -47.5 34 -100q15 -52.5 24 -108q9 -55.5 9 -107.5q0 -84 -19 -159.5q-19 -75.5 -52 -144.5q-33 -69 -77.5 -133.5q-44.5 -64.5 -96.5 -128.5z" />
<glyph unicode="&#42;" horiz-adv-x="471" d="M264 489q-7 1 -10 2.5q-3 1.5 -10 8.5l-82 -76q-17 -16 -30.5 -25.5q-13.5 -9.5 -30.5 -9.5q-12 0 -22 10.5q-10 10.5 -10 24.5q0 21 17.5 33q17.5 12 39.5 20l110 37q-3 14 0 25l-118 44q-23 8 -34.5 19q-11.5 11 -11.5 23q0 17 10.5 29q10.5 12 25.5 12q11 0 22 -8q11 -8 28 -23l86 -81q2 3 7.5 6.5q5.5 3.5 12.5 4.5l-24 125q-6 29 -0.5 50.5q5.5 21.5 31.5 21.5q24 0 32 -19q8 -19 3 -45l-27 -133q5 -1 11.5 -3.5q6.5 -2.5 9.5 -7.5l89 84q12 13 25 20q13 7 23 7q14 0 24 -10.5q10 -10.5 10 -27.5q0 -13 -8 -24q-8 -11 -26 -17l-130 -47q2 -5 2 -12q0 -7 -2 -13l106 -38q58 -22 58 -53q0 -12 -10.5 -23.5q-10.5 -11.5 -23.5 -11.5q-24 0 -61 37l-76 75q-9 -11 -21 -11l25 -129q5 -29 -3 -48.5q-8 -19.5 -30 -19.5q-23 0 -31.5 22.5q-8.5 22.5 -0.5 56.5z" />
<glyph unicode="&#43;" horiz-adv-x="613" d="M269 250h-205l11 89h205l29 205h86l-29 -205h205l-11 -89h-205l-29 -205l-86 0z" />
<glyph unicode="&#44;" horiz-adv-x="208" d="M-19 -105q70 23 70 90q-41 18 -41 54q0 28 18.5 45q18.5 17 47.5 17q29 0 47.5 -24q18.5 -24 18.5 -59q0 -30 -12 -57q-12 -27 -34 -49q-22 -22 -53 -38.5q-31 -16.5 -68 -24.5z" />
<glyph unicode="&#45;" horiz-adv-x="282" d="M39 333h250l-12 -89l-250 0z" />
<glyph unicode="&#46;" horiz-adv-x="208" d="M17 52q0 26 18 43.5q18 17.5 43 17.5q26 0 43.5 -17.5q17.5 -17.5 17.5 -43.5q0 -25 -17.5 -43q-17.5 -18 -43.5 -18q-25 0 -43 18t-18 43z" />
<glyph unicode="&#47;" horiz-adv-x="295" d="M29 -9l206 734h74l-206 -734z" />
<glyph unicode="&#48;" horiz-adv-x="547" d="M243 -9q-94 0 -141.5 63q-47.5 63 -47.5 192q0 39 6 90q6 51 20 104.5q14 53.5 36 104.5q22 51 54 91q32 40 74.5 64.5q42.5 24.5 97.5 24.5q41 0 75 -15q34 -15 58 -46.5q24 -31.5 37.5 -80.5q13.5 -49 13.5 -117q0 -53 -7.5 -108.5q-7.5 -55.5 -23 -108.5q-15.5 -53 -39 -100q-23.5 -47 -55 -82q-31.5 -35 -71 -55.5q-39.5 -20.5 -87.5 -20.5zt0 0zM242 76q36 0 70 34q34 34 60 90q26 56 42 128.5q16 72.5 16 149.5q0 80 -22.5 121q-22.5 41 -69.5 41q-35 0 -68 -34q-33 -34 -59.5 -89.5q-26.5 -55.5 -42.5 -126q-16 -70.5 -16 -142.5q0 -83 22.5 -127.5t67.5 -44.5z" />
<glyph unicode="&#49;" horiz-adv-x="547" d="M300 725h93l-113 -725l-95 0z" />
<glyph unicode="&#50;" horiz-adv-x="547" d="M465 88l-12 -88h-435q108 132 178.5 224q70.5 92 112 155q41.5 63 57.5 102q16 39 16 66q0 42 -26 65.5q-26 23.5 -74 23.5q-72 0 -157 -62l14 102q45 26 82 37.5q37 11.5 80 11.5q39 0 71 -12q32 -12 54.5 -34.5q22.5 -22.5 35 -54q12.5 -31.5 12.5 -70.5q0 -38 -15 -80.5q-15 -42.5 -49 -97.5q-34 -55 -87.5 -125.5q-53.5 -70.5 -130.5 -162.5z" />
<glyph unicode="&#51;" horiz-adv-x="547" d="M38 115q35 -17 71 -28q36 -11 84 -11q69 0 111.5 35.5q42.5 35.5 42.5 95.5q0 33 -11.5 55.5q-11.5 22.5 -29.5 37q-18 14.5 -41.5 21q-23.5 6.5 -47.5 6.5l12 85q41 3 71.5 15q30.5 12 50.5 30q20 18 29.5 39.5q9.5 21.5 9.5 42.5q0 45 -30.5 73q-30.5 28 -81.5 28q-35 0 -73 -11.5q-38 -11.5 -70 -33.5l14 99q36 16 73.5 23.5q37.5 7.5 74.5 7.5q88 0 140 -50q52 -50 52 -135q0 -121 -140 -171q97 -42 97 -162q0 -30 -12.5 -67.5q-12.5 -37.5 -41.5 -70.5q-29 -33 -77 -55.5q-48 -22.5 -118 -22.5q-50 0 -93.5 11.5q-43.5 11.5 -78.5 27.5z" />
<glyph unicode="&#52;" horiz-adv-x="547" d="M41 261l380 464h57l-67 -428h103l-10 -77h-106l-35 -220h-91l38 220h-269zM162 297h159l41 241l-2 2z" />
<glyph unicode="&#53;" horiz-adv-x="547" d="M48 127q35 -26 69 -38.5q34 -12.5 75 -12.5q36 0 66.5 12q30.5 12 52 34q21.5 22 34 52.5q12.5 30.5 12.5 66.5q0 57 -40 90.5q-40 33.5 -109 33.5q-16 0 -30 -2q-14 -2 -33 -7l64 360h292l-16 -88h-206l-28 -178q95 -5 149.5 -61q54.5 -56 54.5 -147q0 -56 -19.5 -102q-19.5 -46 -55 -79q-35.5 -33 -85 -51.5q-49.5 -18.5 -108.5 -18.5q-51 0 -93.5 13.5q-42.5 13.5 -78.5 39.5z" />
<glyph unicode="&#54;" horiz-adv-x="547" d="M231 414q31 24 92 24q78 0 123.5 -48.5q45.5 -48.5 45.5 -130.5q0 -53 -20.5 -101q-20.5 -48 -54.5 -85.5q-34 -37.5 -78.5 -59.5q-44.5 -22 -92.5 -22q-89 0 -139 58q-50 58 -50 160q0 27 8 59q8 32 21.5 65.5q13.5 33.5 31 66q17.5 32.5 37.5 61.5l175 255h105l-206 -300zM248 80q29 0 56 14q27 14 48 37.5q21 23.5 34 54.5q13 31 13 65q0 45 -27 73.5q-27 28.5 -70 28.5q-31 0 -58.5 -12.5q-27.5 -12.5 -48.5 -33.5q-21 -21 -33 -49q-12 -28 -12 -59q0 -53 27 -86t71 -33z" />
<glyph unicode="&#55;" horiz-adv-x="547" d="M416 628h-289l13 88h414l-335 -725l-97 0z" />
<glyph unicode="&#56;" horiz-adv-x="547" d="M42 189q0 73 39.5 124q39.5 51 113.5 72q-44 27 -62.5 59.5q-18.5 32.5 -18.5 81.5q0 41 16.5 77q16.5 36 45 63q28.5 27 66.5 43q38 16 80 16q89 0 141.5 -49.5q52.5 -49.5 52.5 -133.5q0 -58 -32.5 -103q-32.5 -45 -89.5 -65q50 -22 72.5 -59q22.5 -37 22.5 -94q0 -49 -19 -91q-19 -42 -52 -73q-33 -31 -78 -48.5q-45 -17.5 -97 -17.5q-45 0 -82 14q-37 14 -63.5 40q-26.5 26 -41 62.5q-14.5 36.5 -14.5 81.5zt0 0zM135 188q0 -49 32 -80.5q32 -31.5 83 -31.5q30 0 56.5 11.5q26.5 11.5 46.5 31q20 19.5 31.5 45.5q11.5 26 11.5 55q0 54 -31.5 84.5q-31.5 30.5 -87.5 30.5q-29 0 -54.5 -12q-25.5 -12 -45 -32q-19.5 -20 -31 -46.5q-11.5 -26.5 -11.5 -55.5zt0 0zM305 419q24 0 45.5 10q21.5 10 37.5 26.5q16 16.5 25.5 38.5q9.5 22 9.5 47q0 44 -27 71.5q-27 27.5 -71 27.5q-24 0 -45.5 -9.5q-21.5 -9.5 -37.5 -26q-16 -16.5 -25 -38q-9 -21.5 -9 -46.5q0 -45 26 -73t71 -28z" />
<glyph unicode="&#57;" horiz-adv-x="547" d="M135 -9l212 308l-2 2q-23 -14 -44 -19.5q-21 -5.5 -47 -5.5q-38 0 -69.5 12.5q-31.5 12.5 -54.5 35q-23 22.5 -35.5 54q-12.5 31.5 -12.5 68.5q0 57 20 107.5q20 50.5 54.5 88.5q34.5 38 80 60.5q45.5 22.5 96.5 22.5q40 0 74 -15.5q34 -15.5 59 -43q25 -27.5 38.5 -66q13.5 -38.5 13.5 -83.5q0 -28 -4 -56q-4 -28 -15 -60q-11 -32 -30.5 -69.5q-19.5 -37.5 -51.5 -83.5l-177 -257zM277 361q28 0 54 13q26 13 46 34q20 21 32.5 48q12.5 27 12.5 56q0 56 -26.5 88.5q-26.5 32.5 -71.5 32.5q-29 0 -55.5 -14q-26.5 -14 -46.5 -37.5q-20 -23.5 -32 -54q-12 -30.5 -12 -64.5q0 -49 25.5 -75.5t73.5 -26.5z" />
<glyph unicode="&#58;" horiz-adv-x="208" d="M136 364q-25 0 -42.5 17.5q-17.5 17.5 -17.5 43.5q0 26 17.5 43.5q17.5 17.5 42.5 17.5q26 0 44 -17.5q18 -17.5 18 -43.5q0 -26 -18 -43.5q-18 -17.5 -44 -17.5zt0 0zM17 52q0 26 18 43.5q18 17.5 43 17.5q26 0 43.5 -17.5q17.5 -17.5 17.5 -43.5q0 -25 -17.5 -43q-17.5 -18 -43.5 -18q-25 0 -43 18t-18 43z" />
<glyph unicode="&#59;" horiz-adv-x="207" d="M75 425q0 26 18 43.5q18 17.5 43 17.5q26 0 43.5 -17.5q17.5 -17.5 17.5 -43.5q0 -25 -17.5 -43q-17.5 -18 -43.5 -18q-25 0 -43 18q-18 18 -18 43zt0 0zM-5 -105q70 23 70 90q-41 18 -41 54q0 28 18.5 45q18.5 17 47.5 17q29 0 47.5 -24q18.5 -24 18.5 -59q0 -30 -12 -57q-12 -27 -34 -49q-22 -22 -53 -38.5q-31 -16.5 -68 -24.5z" />
<glyph unicode="&#60;" horiz-adv-x="613" d="M571 208v-91l-498 212v86l498 212v-91l-395 -164z" />
<glyph unicode="&#61;" horiz-adv-x="613" d="M64 300h496l-12 -86h-496zM96 528h496l-12 -86l-496 0z" />
<glyph unicode="&#62;" horiz-adv-x="613" d="M73 117v91l395 164l-395 164v91l498 -212l0 -86z" />
<glyph unicode="&#63;" horiz-adv-x="371" d="M107 174q0 56 13.5 99.5q13.5 43.5 33 78.5q19.5 35 43 63q23.5 28 43 52.5q19.5 24.5 33 47.5q13.5 23 13.5 47q0 35 -20.5 57q-20.5 22 -57.5 22q-24 0 -54.5 -15q-30.5 -15 -61.5 -44l15 104q34 21 60.5 30.5q26.5 9.5 56.5 9.5q70 0 112 -44q42 -44 42 -118q0 -38 -14 -68q-14 -30 -35.5 -57q-21.5 -27 -47.5 -53.5q-26 -26.5 -49.5 -57.5q-23.5 -31 -42 -68q-18.5 -37 -25.5 -86zM62 46q0 26 18 43.5q18 17.5 43 17.5q26 0 43.5 -17.5q17.5 -17.5 17.5 -43.5q0 -25 -17.5 -43q-17.5 -18 -43.5 -18q-25 0 -43 18t-18 43z" />
<glyph unicode="&#64;" horiz-adv-x="1061" d="M691 541h92l-84 -388q-2 -5 -3.5 -16q-1.5 -11 -1.5 -17q1 -17 10 -27.5q9 -10.5 27 -10.5q16 0 48.5 17.5q32.5 17.5 65.5 53q33 35.5 57.5 89q24.5 53.5 24.5 124.5q0 70 -27.5 129.5q-27.5 59.5 -76.5 103q-49 43.5 -116.5 68q-67.5 24.5 -146.5 24.5q-92 0 -170 -33.5q-78 -33.5 -135 -92.5q-57 -59 -89 -140q-32 -81 -32 -176q0 -93 29.5 -166.5q29.5 -73.5 86.5 -124q57 -50.5 139.5 -77q82.5 -26.5 187.5 -26.5q132 0 222 44q90 44 137 110l94 0q-69 -113 -181 -171q-112 -58 -273 -58q-121 0 -217.5 31.5q-96.5 31.5 -163.5 91q-67 59.5 -102.5 145q-35.5 85.5 -35.5 193.5q0 55 12 115.5q12 60.5 37.5 119q25.5 58.5 65.5 111q40 52.5 96 92.5q56 40 129.5 63.5q73.5 23.5 166.5 23.5q96 0 176.5 -30q80.5 -30 139 -83.5q58.5 -53.5 91.5 -127q33 -73.5 33 -160.5q0 -70 -25.5 -135.5q-25.5 -65.5 -68.5 -116.5q-43 -51 -98 -82q-55 -31 -114 -31q-51 0 -77 20q-26 20 -26 64q-35 -40 -75.5 -62q-40.5 -22 -79.5 -22q-41 0 -75 17q-34 17 -59.5 48q-25.5 31 -39.5 73.5q-14 42.5 -14 92.5q0 61 22.5 119.5q22.5 58.5 60 104q37.5 45.5 85.5 73q48 27.5 99 27.5q48 0 87 -24q39 -24 67 -70zM461 74q34 0 67 22q33 22 58.5 58.5q25.5 36.5 41.5 83q16 46.5 16 94.5q0 69 -32 109.5q-32 40.5 -87 40.5q-34 0 -65.5 -22q-31.5 -22 -56 -58q-24.5 -36 -39.5 -82.5q-15 -46.5 -15 -95.5q0 -68 30.5 -109t81.5 -41z" />
<glyph unicode="&#65;" horiz-adv-x="564" d="M296 720h90l140 -720h-88l-43 225h-225l-94 -225h-96zM202 300h178l-55 294l-2 0z" />
<glyph unicode="&#66;" horiz-adv-x="554" d="M37 0l99 716h105q62 0 105.5 -15q43.5 -15 70.5 -40q27 -25 39 -58q12 -33 12 -69q0 -46 -24.5 -82q-24.5 -36 -74.5 -59q148 -51 148 -192q0 -46 -19 -83q-19 -37 -53.5 -63.5q-34.5 -26.5 -82 -40.5q-47.5 -14 -103.5 -14zM142 80h108q82 0 126.5 32q44.5 32 44.5 93q0 31 -14 57.5q-14 26.5 -38 46q-24 19.5 -55 30q-31 10.5 -65 10.5h-70zM191 429h51q60 0 95 29.5q35 29.5 35 77.5q0 44 -26.5 71q-26.5 27 -76.5 27l-50 0z" />
<glyph unicode="&#67;" horiz-adv-x="620" d="M542 53q-54 -30 -108.5 -46q-54.5 -16 -103.5 -16q-61 0 -112 22q-51 22 -87.5 61q-36.5 39 -56.5 94q-20 55 -20 121q0 94 33.5 173.5q33.5 79.5 97 138q63.5 58.5 154 91.5q90.5 33 204.5 33h68l-19 -90h-52q-111 0 -185 -34q-74 -34 -118.5 -85q-44.5 -51 -62.5 -110.5q-18 -59.5 -18 -110.5q0 -98 50.5 -156q50.5 -58 137.5 -58q22 0 49.5 6.5q27.5 6.5 56 18.5q28.5 12 56.5 28q28 16 52 35z" />
<glyph unicode="&#68;" horiz-adv-x="680" d="M37 0l101 716h85q94 0 171.5 -22.5q77.5 -22.5 133 -67.5q55.5 -45 85.5 -112q30 -67 30 -157q0 -70 -20.5 -134.5q-20.5 -64.5 -65.5 -114q-45 -49.5 -116 -79q-71 -29.5 -171 -29.5zM146 85h121q68 0 119 19.5q51 19.5 85.5 55.5q34.5 36 52 87.5q17.5 51.5 17.5 114.5q0 75 -28.5 126.5q-28.5 51.5 -71.5 83q-43 31.5 -93 45.5q-50 14 -93 14l-32 0z" />
<glyph unicode="&#69;" horiz-adv-x="544" d="M140 716h379l-11 -85h-287l-31 -225h253l-12 -85h-254l-34 -236h376l-12 -85l-470 0z" />
<glyph unicode="&#70;" horiz-adv-x="463" d="M141 716h342l-12 -85h-249l-31 -225h229l-13 -85h-229l-46 -321l-95 0z" />
<glyph unicode="&#71;" horiz-adv-x="660" d="M426 311h197l-36 -258q-53 -27 -106.5 -44.5q-53.5 -17.5 -124.5 -17.5q-76 0 -133 27q-57 27 -94.5 71q-37.5 44 -56 100.5q-18.5 56.5 -18.5 116.5q0 41 10.5 88q10.5 47 33.5 94q23 47 61 89.5q38 42.5 92.5 75.5q54.5 33 127.5 52.5q73 19.5 167 19.5q21 0 49.5 -2q28.5 -2 74.5 -7l-12 -86q-45 5 -73 7.5q-28 2.5 -54 2.5q-103 0 -174.5 -32.5q-71.5 -32.5 -116 -81.5q-44.5 -49 -64.5 -107.5q-20 -58.5 -20 -109.5q0 -52 15 -95q15 -43 42 -73.5q27 -30.5 65 -47.5q38 -17 84 -17q31 0 69 9q38 9 70 26l16 124l-101 0z" />
<glyph unicode="&#72;" horiz-adv-x="733" d="M138 716h97l-43 -309h388l43 309h98l-101 -716h-98l45 317h-387l-45 -317l-98 0z" />
<glyph unicode="&#73;" horiz-adv-x="255" d="M141 716h99l-101 -716l-99 0z" />
<glyph unicode="&#74;" horiz-adv-x="255" d="M-140 -147q22 -5 37.5 -7.5q15.5 -2.5 31.5 -2.5q51 0 78 25.5q27 25.5 35 84.5l107 763h94l-108 -769q-13 -91 -57.5 -140q-44.5 -49 -127.5 -49q-17 0 -34 1.5q-17 1.5 -34 5.5z" />
<glyph unicode="&#75;" horiz-adv-x="591" d="M137 716h97l-47 -307l2 -2l304 309h109l-329 -331l320 -385h-112l-295 375l-53 -375l-96 0z" />
<glyph unicode="&#76;" horiz-adv-x="452" d="M137 716h95l-94 -636h294l-11 -80l-384 0z" />
<glyph unicode="&#77;" horiz-adv-x="854" d="M236 716h82l111 -485l257 485h95v-716h-95v543h-2l-288 -543l-124 548h-2l-176 -548l-95 0z" />
<glyph unicode="&#78;" horiz-adv-x="720" d="M138 716h48l358 -527l75 527h89l-101 -716h-51l-356 523l-74 -523l-89 0z" />
<glyph unicode="&#79;" horiz-adv-x="689" d="M309 -9q-56 0 -103 22q-47 22 -81 62q-34 40 -52.5 95.5q-18.5 55.5 -18.5 122.5q0 47 10 97.5q10 50.5 29.5 98.5q19.5 48 48.5 90.5q29 42.5 67.5 75q38.5 32.5 86.5 51.5q48 19 105 19q57 0 103.5 -21.5q46.5 -21.5 80 -61q33.5 -39.5 51.5 -95q18 -55.5 18 -122.5q0 -96 -28 -176q-28 -80 -75.5 -137.5q-47.5 -57.5 -110 -89q-62.5 -31.5 -131.5 -31.5zt0 0zM312 76q50 0 94.5 28.5q44.5 28.5 78.5 78q34 49.5 53.5 116.5q19.5 67 19.5 143q0 95 -43 146.5q-43 51.5 -115 51.5q-42 0 -77 -16q-35 -16 -63 -43.5q-28 -27.5 -48.5 -63.5q-20.5 -36 -34 -76q-13.5 -40 -20.5 -82q-7 -42 -7 -80q0 -95 44 -149t118 -54z" />
<glyph unicode="&#80;" horiz-adv-x="502" d="M37 0l101 716h123q42 0 83 -8.5q41 -8.5 74 -31q33 -22.5 53.5 -61.5q20.5 -39 20.5 -100q0 -30 -11.5 -67q-11.5 -37 -38 -69.5q-26.5 -32.5 -70 -54.5q-43.5 -22 -108.5 -22h-86l-42 -302zM190 387h70q37 0 62.5 12q25.5 12 42 30.5q16.5 18.5 24 41.5q7.5 23 7.5 46q0 21 -7 41.5q-7 20.5 -22 36.5q-15 16 -40 26q-25 10 -61 10l-42 0z" />
<glyph unicode="&#81;" horiz-adv-x="689" d="M261 0q-45 7 -83 31q-38 24 -65.5 62q-27.5 38 -43 88.5q-15.5 50.5 -15.5 111.5q0 47 10 97.5q10 50.5 29 98.5q19 48 48 91q29 43 67.5 75q38.5 32 86 51q47.5 19 104.5 19q55 0 102 -20.5q47 -20.5 81 -59q34 -38.5 53 -94.5q19 -56 19 -126q0 -81 -20.5 -152.5q-20.5 -71.5 -58 -127.5q-37.5 -56 -90.5 -94q-53 -38 -118 -51q17 -58 59 -89q42 -31 91 -31q17 0 37 5.5q20 5.5 39 18q19 12.5 35.5 32q16.5 19.5 26.5 48.5l16 0q-2 -33 -12.5 -67q-10.5 -34 -31 -61q-20.5 -27 -52.5 -44q-32 -17 -77 -17q-34 0 -69 11q-35 11 -66.5 35q-31.5 24 -58 63q-26.5 39 -43.5 96zt0 0zM318 85q49 0 92.5 27q43.5 27 76.5 74q33 47 52 111q19 64 19 139q0 100 -42.5 152q-42.5 52 -113.5 52q-47 0 -84 -18q-37 -18 -65 -48q-28 -30 -47.5 -68q-19.5 -38 -32 -78q-12.5 -40 -18 -79q-5.5 -39 -5.5 -70q0 -100 45 -147t123 -47z" />
<glyph unicode="&#82;" horiz-adv-x="571" d="M37 0l101 716h151q45 0 85 -11q40 -11 70 -35q30 -24 48 -60.5q18 -36.5 18 -87.5q0 -65 -39 -111.5q-39 -46.5 -108 -64.5q17 -10 32.5 -31.5q15.5 -21.5 27.5 -46.5l128 -268h-103l-82 170q-22 46 -39 74.5q-17 28.5 -33.5 44.5q-16.5 16 -34.5 21.5q-18 5.5 -42 5.5h-37l-45 -316zM192 401h51q49 0 81 11.5q32 11.5 50.5 29.5q18.5 18 26 40.5q7.5 22.5 7.5 44.5q0 51 -32.5 77.5q-32.5 26.5 -96.5 26.5l-55 0z" />
<glyph unicode="&#83;" horiz-adv-x="481" d="M51 147q57 -40 96.5 -54q39.5 -14 71.5 -14q14 0 32.5 5q18.5 5 35 15.5q16.5 10.5 28 28q11.5 17.5 11.5 42.5q0 32 -18 58q-18 26 -45 50q-27 24 -59 49q-32 25 -59 54.5q-27 29.5 -45 65.5q-18 36 -18 83q0 44 19.5 80q19.5 36 52 61.5q32.5 25.5 74.5 39.5q42 14 86 14q22 0 58 -6q36 -6 73 -22l-14 -98q-33 22 -63 30q-30 8 -63 8q-58 0 -92.5 -29q-34.5 -29 -34.5 -78q0 -29 18 -53q18 -24 45 -47.5q27 -23.5 59 -48q32 -24.5 59 -54q27 -29.5 45 -65.5q18 -36 18 -82q0 -34 -13 -67.5q-13 -33.5 -39.5 -60.5q-26.5 -27 -66.5 -44q-40 -17 -93 -17q-36 0 -81.5 11.5q-45.5 11.5 -92.5 39.5z" />
<glyph unicode="&#84;" horiz-adv-x="536" d="M267 626h-202l12 90h503l-12 -90h-202l-88 -626l-99 0z" />
<glyph unicode="&#85;" horiz-adv-x="679" d="M569 716h98l-62 -442q-10 -74 -35.5 -127.5q-25.5 -53.5 -63.5 -88q-38 -34.5 -88.5 -51q-50.5 -16.5 -110.5 -16.5q-56 0 -101 15.5q-45 15.5 -77 45q-32 29.5 -49.5 70.5q-17.5 41 -17.5 92q0 5 0.5 12q0.5 7 3 25.5q2.5 18.5 6.5 50.5q4 32 11.5 86.5q7.5 54.5 19 134.5q11.5 80 27.5 193l94 0q-17 -116 -28 -196.5q-11 -80.5 -19 -134.5q-8 -54 -12 -85.5q-4 -31.5 -6 -48q-2 -16.5 -2.5 -22.5q-0.5 -6 -0.5 -10q0 -36 12.5 -62.5q12.5 -26.5 34 -44q21.5 -17.5 50 -26.5q28.5 -9 60.5 -9q76 0 127 44.5q51 44.5 64 136.5z" />
<glyph unicode="&#86;" horiz-adv-x="536" d="M65 716h92l93 -500h2l240 500h99l-350 -722l-37 0z" />
<glyph unicode="&#87;" horiz-adv-x="973" d="M63 716h90l117 -507h2l241 507h37l140 -515l245 515h100l-346 -722h-37l-139 508l-243 -508l-38 0z" />
<glyph unicode="&#88;" horiz-adv-x="700" d="M313 379l-212 337h108l170 -264l233 264h125l-307 -347l234 -369h-113l-186 295l-256 -295l-129 0z" />
<glyph unicode="&#89;" horiz-adv-x="515" d="M233 357l-168 359h100l121 -262l183 262h109l-251 -359l-50 -357l-95 0z" />
<glyph unicode="&#90;" horiz-adv-x="612" d="M479 626h-407l13 90h588l-521 -626h423l-12 -90l-603 0z" />
<glyph unicode="&#91;" horiz-adv-x="349" d="M173 716h221l-9 -70h-135l-114 -809h135l-10 -70l-221 0z" />
<glyph unicode="&#92;" horiz-adv-x="295" d="M219 -9l-206 734h74l206 -734z" />
<glyph unicode="&#93;" horiz-adv-x="350" d="M-41 -163h135l114 809h-135l10 70h221l-133 -949l-221 0z" />
<glyph unicode="&#94;" horiz-adv-x="493" d="M46 305l181 411h75l181 -411h-93l-126 307l-124 -307z" />
<glyph unicode="&#95;" horiz-adv-x="538" d="M0 -79h538v-52l-538 0z" />
<glyph unicode="&#96;" horiz-adv-x="349" d="M105 704h106l71 -154l-59 0z" />
<glyph unicode="&#97;" horiz-adv-x="500" d="M321 54l-2 2q-28 -30 -60.5 -47.5q-32.5 -17.5 -66.5 -17.5q-33 0 -61 14.5q-28 14.5 -49 40q-21 25.5 -33 59q-12 33.5 -12 72.5q0 56 17.5 111.5q17.5 55.5 56 99.5q38.5 44 99.5 71q61 27 147 27q26 0 58.5 -4.5q32.5 -4.5 52.5 -10.5l-66 -471h-89zM222 66q13 0 28 5.5q15 5.5 29.5 15.5q14.5 10 28 22.5q13.5 12.5 24.5 26.5l39 272q-12 3 -26 3q-49 0 -89 -17q-40 -17 -68.5 -46.5q-28.5 -29.5 -44 -69.5q-15.5 -40 -15.5 -85q0 -57 26 -92t68 -35z" />
<glyph unicode="&#98;" horiz-adv-x="495" d="M129 716h92l-40 -280l2 -2q29 29 55 40.5q26 11.5 59 11.5q37 0 67.5 -15.5q30.5 -15.5 52.5 -44q22 -28.5 34 -68q12 -39.5 12 -87.5q0 -47 -14.5 -97q-14.5 -50 -49.5 -90.5q-35 -40.5 -94 -66.5q-59 -26 -148 -26q-34 0 -69.5 2q-35.5 2 -55.5 5zM129 66h54q90 0 139.5 56.5q49.5 56.5 49.5 152.5q0 65 -27 100.5q-27 35.5 -75 35.5q-11 0 -27 -3.5q-16 -3.5 -32 -11q-16 -7.5 -28 -19q-12 -11.5 -14 -26.5z" />
<glyph unicode="&#99;" horiz-adv-x="433" d="M376 25q-34 -18 -64.5 -26q-30.5 -8 -66.5 -8q-48 0 -86.5 15.5q-38.5 15.5 -65.5 43.5q-27 28 -41.5 68q-14.5 40 -14.5 90q0 58 21.5 108.5q21.5 50.5 61 88q39.5 37.5 96 59.5q56.5 22 126.5 22q35 0 81 -8l-11 -79q-34 7 -69 7q-49 0 -89 -16q-40 -16 -68 -43q-28 -27 -43 -61.5q-15 -34.5 -15 -71.5q0 -68 34.5 -105.5q34.5 -37.5 94.5 -37.5q36 0 66 10q30 10 63 30z" />
<glyph unicode="&#100;" horiz-adv-x="493" d="M384 486l33 230h89l-101 -711q-28 -8 -56.5 -11q-28.5 -3 -63.5 -3q-120 0 -184 53.5q-64 53.5 -64 159.5q0 38 17 86.5q17 48.5 54 92q37 43.5 96 73.5q59 30 143 30zM374 411h-23q-55 0 -96.5 -18q-41.5 -18 -69.5 -47q-28 -29 -42.5 -65.5q-14.5 -36.5 -14.5 -74.5q0 -140 153 -140q10 0 22.5 0.5q12.5 0.5 23.5 2.5z" />
<glyph unicode="&#101;" horiz-adv-x="460" d="M392 44q-73 -53 -158 -53q-45 0 -81.5 15.5q-36.5 15.5 -62 44q-25.5 28.5 -39.5 69.5q-14 41 -14 93q0 58 17 107.5q17 49.5 47 86.5q30 37 71 58q41 21 88 21q35 0 65.5 -14q30.5 -14 53 -39.5q22.5 -25.5 35.5 -61.5q13 -36 13 -79q0 -23 -3 -48l-294 0q-2 -14 -3 -25.5q-1 -11.5 -1 -22.5q0 -35 10.5 -59.5q10.5 -24.5 27.5 -40q17 -15.5 39.5 -23q22.5 -7.5 46.5 -7.5q33 0 71 15.5q38 15.5 83 47.5zM256 411q-39 0 -66.5 -25.5q-27.5 -25.5 -45.5 -79.5l197 0q0 45 -20 75t-65 30z" />
<glyph unicode="&#102;" horiz-adv-x="312" d="M107 392h-75l11 80h75q3 54 18.5 100q15.5 46 43 80q27.5 34 68.5 53.5q41 19.5 97 19.5q30 0 57.5 -5.5q27.5 -5.5 56.5 -16.5l-12 -88q-23 13 -47.5 19.5q-24.5 6.5 -45.5 6.5q-66 0 -103 -43q-37 -43 -45 -126l96 0l-12 -80h-95l-76 -591l-87 0z" />
<glyph unicode="&#103;" horiz-adv-x="448" d="M125 -23q-45 17 -63.5 36.5q-18.5 19.5 -18.5 46.5q0 29 26.5 53q26.5 24 67.5 35q-42 20 -63.5 54q-21.5 34 -21.5 81q0 40 14 74.5q14 34.5 37.5 60q23.5 25.5 55.5 39.5q32 14 68 14h241l-9 -69h-91q18 -26 24.5 -47.5q6.5 -21.5 6.5 -46.5q0 -60 -28 -104q-28 -44 -82 -67q-21 -9 -49 -13.5q-28 -4.5 -52.5 -10q-24.5 -5.5 -42 -14q-17.5 -8.5 -17.5 -25.5q0 -15 19 -23q19 -8 48 -15.5q29 -7.5 62 -16q33 -8.5 62 -23.5q29 -15 48 -40q19 -25 19 -64q0 -29 -14.5 -53.5q-14.5 -24.5 -40 -42.5q-25.5 -18 -60.5 -28q-35 -10 -77 -10q-44 0 -81.5 9q-37.5 9 -64.5 25.5q-27 16.5 -42.5 38.5q-15.5 22 -15.5 49q0 21 11 36.5q11 15.5 30 26.5q19 11 43 19q24 8 51 13zM222 194q22 0 39 10q17 10 29 25.5q12 15.5 18 35q6 19.5 6 39.5q0 42 -24 68.5q-24 26.5 -60 26.5q-18 0 -35 -9q-17 -9 -29.5 -24.5q-12.5 -15.5 -20.5 -35.5q-8 -20 -8 -41q0 -42 23.5 -68.5q23.5 -26.5 61.5 -26.5zt0 0zM75 -118q0 -26 33.5 -41.5q33.5 -15.5 93.5 -15.5q46 0 72.5 16.5q26.5 16.5 26.5 42.5q0 22 -31.5 40q-31.5 18 -73.5 27q-23 -4 -44.5 -11q-21.5 -7 -38.5 -16q-17 -9 -27.5 -19.5t-10.5 -22.5z" />
<glyph unicode="&#104;" horiz-adv-x="492" d="M133 716h89l-45 -320l2 -2q78 92 164 92q55 0 82 -37.5q27 -37.5 27 -93.5q0 -8 -1 -22q-1 -14 -3 -24l-43 -309h-90l44 314q2 10 3 21q1 11 1 17q-1 32 -16 49.5q-15 17.5 -40 17.5q-16 0 -34 -9q-18 -9 -36.5 -24q-18.5 -15 -37 -35.5q-18.5 -20.5 -35.5 -43.5l-43 -307l-89 0z" />
<glyph unicode="&#105;" horiz-adv-x="210" d="M98 471h89l-66 -471h-89zM107 620q0 21 15 36q15 15 37 15q21 0 36 -15q15 -15 15 -36q0 -22 -15 -37q-15 -15 -36 -15q-22 0 -37 15t-15 37z" />
<glyph unicode="&#106;" horiz-adv-x="201" d="M-97 -153q11 -3 21 -4q10 -1 19 -1q32 0 52 20q20 20 26 67l69 542h89l-72 -567q-5 -40 -20.5 -68q-15.5 -28 -37.5 -45q-22 -17 -49 -25q-27 -8 -56 -8q-13 0 -27 2.5q-14 2.5 -25 7.5zM98 620q0 21 15 36q15 15 37 15q21 0 36 -15q15 -15 15 -36q0 -22 -15 -37q-15 -15 -36 -15q-22 0 -37 15t-15 37z" />
<glyph unicode="&#107;" horiz-adv-x="500" d="M132 716h89l-64 -447l2 -2l198 204h113l-216 -222l231 -249h-114l-217 239l-34 -239l-88 0z" />
<glyph unicode="&#108;" horiz-adv-x="209" d="M132 716h90l-101 -716l-89 0z" />
<glyph unicode="&#109;" horiz-adv-x="776" d="M99 471h90l-13 -82l2 -2q44 49 83.5 70q39.5 21 79.5 21q15 0 31.5 -4.5q16.5 -4.5 31.5 -16.5q15 -12 27 -32.5q12 -20.5 17 -52.5q51 63 96 84.5q45 21.5 80 21.5q22 0 42.5 -7.5q20.5 -7.5 36 -23.5q15.5 -16 24.5 -41q9 -25 9 -59q0 -10 -1.5 -28q-1.5 -18 -3.5 -29l-41 -290h-90l42 296q2 9 3.5 23q1.5 14 1.5 20q0 33 -13.5 51q-13.5 18 -37.5 18q-12 0 -27.5 -5q-15.5 -5 -34 -17.5q-18.5 -12.5 -40.5 -33.5q-22 -21 -46 -53l-43 -299h-89l42 298q3 22 3 40q0 33 -13 51.5q-13 18.5 -43 18.5q-26 0 -65 -29.5q-39 -29.5 -76 -79.5l-43 -299l-89 0z" />
<glyph unicode="&#110;" horiz-adv-x="489" d="M98 471h89l-11 -83l2 -2q38 48 77.5 70q39.5 22 78.5 22q32 0 54 -13q22 -13 35.5 -34q13.5 -21 19.5 -47.5q6 -26.5 6 -53.5q0 -8 -1.5 -25q-1.5 -17 -3.5 -27l-42 -278h-89l41 284q2 14 3 26q1 12 1 19q0 22 -5 36.5q-5 14.5 -13 23q-8 8.5 -17 11.5q-9 3 -18 3q-9 0 -23 -4q-14 -4 -32 -15q-18 -11 -40 -31q-22 -20 -47 -53l-43 -300l-88 0z" />
<glyph unicode="&#111;" horiz-adv-x="470" d="M215 -9q-84 0 -131 52.5q-47 52.5 -47 152.5q0 62 17.5 115q17.5 53 47.5 92q30 39 71.5 61q41.5 22 89.5 22q40 0 72.5 -15q32.5 -15 55 -42q22.5 -27 35 -65q12.5 -38 12.5 -84q0 -66 -17.5 -119.5q-17.5 -53.5 -47.5 -91q-30 -37.5 -71 -58q-41 -20.5 -87 -20.5zt0 0zM212 66q28 0 52.5 16q24.5 16 43 45q18.5 29 29 69q10.5 40 10.5 89q0 60 -22.5 95.5q-22.5 35.5 -61.5 35.5q-29 0 -53.5 -19q-24.5 -19 -42.5 -50.5q-18 -31.5 -28.5 -72.5q-10.5 -41 -10.5 -86q0 -57 24.5 -89.5t59.5 -32.5z" />
<glyph unicode="&#112;" horiz-adv-x="494" d="M115 591h89l-17 -120q21 9 39 12q18 3 41 3q42 0 77.5 -16.5q35.5 -16.5 61.5 -46q26 -29.5 41 -70q15 -40.5 15 -87.5q0 -42 -14.5 -90.5q-14.5 -48.5 -47.5 -89.5q-33 -41 -86 -68q-53 -27 -129 -27h-65l-33 -233h-89zM129 61h43q52 0 89.5 19q37.5 19 62 49q24.5 30 36 66q11.5 36 11.5 71q0 40 -11.5 68.5q-11.5 28.5 -30 47.5q-18.5 19 -43 28q-24.5 9 -50.5 9q-17 0 -28 -2.5q-11 -2.5 -30 -11.5z" />
<glyph unicode="&#113;" horiz-adv-x="493" d="M315 14q-27 -14 -52 -18.5q-25 -4.5 -46 -4.5q-41 0 -74 14.5q-33 14.5 -56.5 41.5q-23.5 27 -36.5 65.5q-13 38.5 -13 85.5q0 49 17.5 100q17.5 51 56.5 93q39 42 103 68.5q64 26.5 157 26.5h99l-102 -727h-89zM251 61q15 0 31.5 3.5q16.5 3.5 41.5 15.5l47 333q-63 0 -108.5 -16q-45.5 -16 -75.5 -45q-30 -29 -44.5 -69.5q-14.5 -40.5 -14.5 -90.5q0 -60 33 -95.5t90 -35.5z" />
<glyph unicode="&#114;" horiz-adv-x="327" d="M98 471h89l-14 -89l3 -2q21 30 36.5 49q15.5 19 29.5 30q14 11 27.5 15q13.5 4 30.5 4q11 0 19.5 -1q8.5 -1 19.5 -6l0 -101q-16 9 -28 12.5q-12 3.5 -26 3.5q-17 0 -32 -6q-15 -6 -30 -20q-15 -14 -31 -37q-16 -23 -34 -58l-37 -265l-89 0z" />
<glyph unicode="&#115;" horiz-adv-x="375" d="M31 133q47 -37 81.5 -53.5q34.5 -16.5 63.5 -16.5q27 0 44 14.5q17 14.5 17 37.5q0 20 -13.5 36q-13.5 16 -34.5 31.5q-21 15.5 -44.5 31.5q-23.5 16 -44.5 35.5q-21 19.5 -34.5 44q-13.5 24.5 -13.5 56.5q0 61 40 98.5q40 37.5 108 37.5q37 0 73.5 -13q36.5 -13 69.5 -36l0 -94q-82 62 -142 62q-28 0 -46 -14.5q-18 -14.5 -18 -34.5q0 -17 14 -31.5q14 -14.5 35 -29q21 -14.5 45 -31q24 -16.5 45 -36q21 -19.5 35 -45q14 -25.5 14 -57.5q0 -32 -11 -58q-11 -26 -30.5 -44.5q-19.5 -18.5 -46.5 -28.5q-27 -10 -58 -10q-22 0 -41 3q-19 3 -38 10.5q-19 7.5 -39.5 19q-20.5 11.5 -45.5 29.5z" />
<glyph unicode="&#116;" horiz-adv-x="336" d="M120 402h-83l11 69h86l18 97h88l-17 -97h91l-10 -69h-94l-43 -246q-2 -12 -3.5 -24.5q-1.5 -12.5 -1.5 -19.5q0 -26 12 -36q12 -10 38 -10q20 0 38.5 5.5q18.5 5.5 47.5 22.5l-5 -82q-29 -12 -50.5 -16.5q-21.5 -4.5 -47.5 -4.5q-61 0 -93 30.5q-32 30.5 -32 76.5q0 6 1.5 19.5q1.5 13.5 3.5 21.5z" />
<glyph unicode="&#117;" horiz-adv-x="480" d="M87 471h90l-42 -297q-2 -10 -3 -22q-1 -12 -1 -20q0 -22 5 -36q5 -14 13 -21.5q8 -7.5 17 -10.5q9 -3 17 -3q26 0 60 23q34 23 82 81l43 306h89l-67 -471h-88l10 78l-2 2q-14 -15 -31 -30.5q-17 -15.5 -36.5 -28.5q-19.5 -13 -41.5 -21.5q-22 -8.5 -46 -8.5q-18 0 -38 6.5q-20 6.5 -37 22q-17 15.5 -28.5 41q-11.5 25.5 -11.5 62.5q0 9 2 25q2 16 4 32z" />
<glyph unicode="&#118;" horiz-adv-x="395" d="M37 471h88l62 -299h2l151 299h90l-242 -480l-44 0z" />
<glyph unicode="&#119;" horiz-adv-x="647" d="M37 471h87l57 -317h2l153 317h44l59 -317h2l154 317h87l-242 -480h-42l-61 308h-2l-160 -308l-41 0z" />
<glyph unicode="&#120;" horiz-adv-x="448" d="M179 250l-111 221h95l75 -158l123 158h110l-190 -233l119 -238h-95l-86 176l-137 -176l-109 0z" />
<glyph unicode="&#121;" horiz-adv-x="426" d="M145 28l-92 443h90l63 -324h2l148 324h93l-338 -713l-94 0z" />
<glyph unicode="&#122;" horiz-adv-x="475" d="M297 396h-240l10 75h403l-315 -396h276l-16 -75l-427 0z" />
<glyph unicode="&#123;" horiz-adv-x="349" d="M135 59q0 40 -4.5 72q-4.5 32 -16.5 54q-12 22 -32.5 33.5q-20.5 11.5 -52.5 11.5l0 84q32 0 52.5 11.5q20.5 11.5 32.5 33.5q12 22 16.5 54q4.5 32 4.5 72v93q0 91 32.5 138.5q32.5 47.5 116.5 47.5h41v-79h-16q-27 0 -44.5 -4.5q-17.5 -4.5 -27.5 -16q-10 -11.5 -13.5 -32q-3.5 -20.5 -3.5 -53.5v-76q0 -53 -5.5 -91q-5.5 -38 -18 -65q-12.5 -27 -32.5 -44.5q-20 -17.5 -50 -30.5q30 -13 50 -30.5q20 -17.5 32.5 -44.5q12.5 -27 18 -65q5.5 -38 5.5 -91v-76q0 -33 3.5 -53.5q3.5 -20.5 13.5 -32q10 -11.5 27.5 -16q17.5 -4.5 44.5 -4.5h16v-79h-41q-84 0 -116.5 47.5q-32.5 47.5 -32.5 138.5z" />
<glyph unicode="&#124;" horiz-adv-x="273" d="M113 -263v1050h80l0 -1050z" />
<glyph unicode="&#125;" horiz-adv-x="349" d="M24 -141h16q27 0 44.5 4.5q17.5 4.5 27.5 16q10 11.5 13.5 32q3.5 20.5 3.5 53.5v76q0 53 5.5 91q5.5 38 18 65q12.5 27 32.5 44.5q20 17.5 50 30.5q-30 13 -50 30.5q-20 17.5 -32.5 44.5q-12.5 27 -18 65q-5.5 38 -5.5 91v76q0 33 -3.5 53.5q-3.5 20.5 -13.5 32q-10 11.5 -27.5 16q-17.5 4.5 -44.5 4.5h-16v79h41q84 0 116.5 -47.5q32.5 -47.5 32.5 -138.5v-93q0 -40 4.5 -72q4.5 -32 16.5 -54q12 -22 32.5 -33.5q20.5 -11.5 52.5 -11.5l0 -84q-32 0 -52.5 -11.5q-20.5 -11.5 -32.5 -33.5q-12 -22 -16.5 -54q-4.5 -32 -4.5 -72v-93q0 -91 -32.5 -138.5q-32.5 -47.5 -116.5 -47.5l-41 0z" />
<glyph unicode="&#126;" horiz-adv-x="613" d="M602 265q-32 -27 -71.5 -47q-39.5 -20 -81.5 -20q-30 0 -63.5 12.5q-33.5 12.5 -67 27.5q-33.5 15 -66 27.5q-32.5 12.5 -62.5 12.5q-39 0 -75 -20.5q-36 -20.5 -74 -49.5l0 87q34 28 73.5 47.5q39.5 19.5 82.5 19.5q31 0 64 -12.5q33 -12.5 66 -27.5q33 -15 65.5 -27.5q32.5 -12.5 62.5 -12.5q35 0 74 21.5q39 21.5 73 48.5z" />
<glyph unicode="&#163;" horiz-adv-x="493" d="M148 309h-92l25 85h94q30 89 62.5 152q32.5 63 68.5 102.5q36 39.5 75.5 58q39.5 18.5 83.5 18.5q17 0 31 -2.5q14 -2.5 36 -9.5l-13 -88q-29 11 -53 11q-57 0 -103.5 -57.5q-46.5 -57.5 -90.5 -184.5l115 0l-25 -85h-116l-71 -210q5 1 13.5 1.5q8.5 0.5 15.5 0.5q20 0 38 -3q18 -3 36.5 -6q18.5 -3 38.5 -6q20 -3 45 -3q32 0 60.5 7q28.5 7 57.5 21l-13 -97q-49 -23 -117 -23q-40 0 -86 8.5q-46 8.5 -100 8.5q-33 0 -64.5 -4.5q-31.5 -4.5 -55.5 -12.5l-6 0z" />
<glyph unicode="&#164;" horiz-adv-x="584" d="M126 237q-16 23 -26.5 54.5q-10.5 31.5 -10.5 67.5q0 36 11.5 67.5q11.5 31.5 25.5 52.5l-71 71l61 59l69 -69q21 14 53.5 24.5q32.5 10.5 68.5 10.5q35 0 64.5 -9.5q29.5 -9.5 55.5 -25.5l71 69l59 -59l-69 -71q9 -13 16 -28.5q7 -15.5 11 -32q4 -16.5 6 -32q2 -15.5 2 -27.5q0 -32 -9.5 -65.5q-9.5 -33.5 -25.5 -56.5l69 -69l-59 -61l-71 71q-23 -16 -54 -26.5q-31 -10.5 -66 -10.5q-38 0 -68.5 10.5q-30.5 10.5 -53.5 26.5l-69 -71l-61 61zM307 225q28 0 52 10.5q24 10.5 42 29q18 18.5 28 43q10 24.5 10 51.5q0 28 -10 52q-10 24 -28 42q-18 18 -42 28q-24 10 -52 10q-27 0 -51.5 -10q-24.5 -10 -43 -28q-18.5 -18 -29 -42q-10.5 -24 -10.5 -52q0 -27 10.5 -51.5q10.5 -24.5 29 -43q18.5 -18.5 43 -29t51.5 -10.5z" />
<glyph unicode="&#166;" horiz-adv-x="281" d="M113 359v357h80v-357zM113 -242v427h80l0 -427z" />
<glyph unicode="&#167;" horiz-adv-x="516" d="M27 -92l80 46q-1 -5 -1.5 -13.5q-0.5 -8.5 -0.5 -13.5q0 -43 23 -69q23 -26 69 -26q40 0 68.5 21q28.5 21 28.5 59q0 29 -18 55.5q-18 26.5 -45 51.5q-27 25 -59 51q-32 26 -59 55q-27 29 -45 62q-18 33 -18 74q0 30 11.5 57.5q11.5 27.5 32.5 50q21 22.5 50 39q29 16.5 64 23.5q-30 32 -43.5 60q-13.5 28 -13.5 64q0 38 14.5 69.5q14.5 31.5 41 54.5q26.5 23 63 35.5q36.5 12.5 80.5 12.5q33 0 58.5 -10q25.5 -10 43 -27q17.5 -17 26.5 -40q9 -23 9 -49q0 -3 -0.5 -12.5q-0.5 -9.5 -2.5 -16.5l-83 -30q6 11 8 20q2 9 2 22q0 30 -18.5 50q-18.5 20 -50.5 20q-20 0 -37.5 -6.5q-17.5 -6.5 -31.5 -18q-14 -11.5 -22 -28q-8 -16.5 -8 -36.5q0 -28 17 -51.5q17 -23.5 42.5 -46q25.5 -22.5 55 -46.5q29.5 -24 55 -52.5q25.5 -28.5 42.5 -64q17 -35.5 17 -81.5q0 -26 -10.5 -51.5q-10.5 -25.5 -29 -49q-18.5 -23.5 -44 -42.5q-25.5 -19 -56.5 -31q29 -40 40.5 -68q11.5 -28 11.5 -60q0 -36 -14 -65.5q-14 -29.5 -38.5 -51q-24.5 -21.5 -59 -33.5q-34.5 -12 -75.5 -12q-29 0 -59.5 7.5q-30.5 7.5 -55.5 24.5q-25 17 -41 45q-16 28 -16 70zM143 263q0 -21 11.5 -40.5q11.5 -19.5 29 -38q17.5 -18.5 39.5 -37.5q22 -19 43 -39q54 12 85 43q31 31 31 66q0 35 -27 72q-27 37 -78 79q-29 0 -53.5 -8q-24.5 -8 -42.5 -22q-18 -14 -28 -33t-10 -42z" />
<glyph unicode="&#169;" horiz-adv-x="787" d="M388 -9q-80 0 -150.5 30.5q-70.5 30.5 -123 83q-52.5 52.5 -82.5 123q-30 70.5 -30 150.5q0 80 30 150.5q30 70.5 82.5 123q52.5 52.5 123 83q70.5 30.5 150.5 30.5q80 0 150.5 -30.5q70.5 -30.5 123 -83q52.5 -52.5 82.5 -123q30 -70.5 30 -150.5q0 -80 -30 -150.5q-30 -70.5 -82.5 -123q-52.5 -52.5 -123 -83q-70.5 -30.5 -150.5 -30.5zt0 0zM388 55q67 0 125.5 25.5q58.5 25.5 102.5 69.5q44 44 69.5 102.5q25.5 58.5 25.5 125.5q0 67 -25.5 126q-25.5 59 -69.5 102.5q-44 43.5 -102.5 69q-58.5 25.5 -125.5 25.5q-67 0 -125.5 -25.5q-58.5 -25.5 -102.5 -69q-44 -43.5 -69.5 -102.5q-25.5 -59 -25.5 -126q0 -67 25.5 -125.5q25.5 -58.5 69.5 -102.5q44 -44 102.5 -69.5q58.5 -25.5 125.5 -25.5zt0 0zM508 460q-32 78 -120 78q-60 0 -96 -44.5q-36 -44.5 -36 -119.5q0 -75 35 -116q35 -41 97 -41q46 0 79.5 26.5q33.5 26.5 44.5 71.5l63 -19q-16 -66 -65 -102.5q-49 -36.5 -125 -36.5q-46 0 -82.5 16q-36.5 16 -62.5 45q-26 29 -40 71q-14 42 -14 95q0 48 14.5 87q14.5 39 41.5 66q27 27 65 42q38 15 85 15q68 0 114 -30.5q46 -30.5 63 -88.5z" />
<glyph unicode="&#171;" horiz-adv-x="472" d="M8 235l176 237h80l-180 -248l88 -224h-72zM212 235l176 237h80l-180 -248l88 -224l-72 0z" />
<glyph unicode="&#172;" horiz-adv-x="581" d="M57 339h476v-283h-85v194l-391 0z" />
<glyph unicode="&#174;" horiz-adv-x="777" d="M387 -9q-80 0 -150.5 30.5q-70.5 30.5 -123 83q-52.5 52.5 -82.5 123q-30 70.5 -30 150.5q0 80 30 150.5q30 70.5 82.5 123q52.5 52.5 123 82.5q70.5 30 150.5 30q80 0 150.5 -30q70.5 -30 123 -82.5q52.5 -52.5 83 -123q30.5 -70.5 30.5 -150.5q0 -80 -30.5 -150.5q-30.5 -70.5 -83 -123q-52.5 -52.5 -123 -83q-70.5 -30.5 -150.5 -30.5zt0 0zM387 55q67 0 125.5 25.5q58.5 25.5 102.5 69.5q44 44 69.5 102.5q25.5 58.5 25.5 125.5q0 67 -25.5 126q-25.5 59 -69.5 102.5q-44 43.5 -102.5 68.5q-58.5 25 -125.5 25q-67 0 -125.5 -25q-58.5 -25 -102 -68.5q-43.5 -43.5 -69 -102.5q-25.5 -59 -25.5 -126q0 -67 25.5 -125.5q25.5 -58.5 69 -102.5q43.5 -44 102 -69.5q58.5 -25.5 125.5 -25.5zt0 0zM218 164v416h184q39 0 65 -10.5q26 -10.5 42 -27q16 -16.5 23 -36q7 -19.5 7 -36.5q0 -51 -32.5 -83.5q-32.5 -32.5 -85.5 -35.5l0 -2q26 -10 48 -36q22 -26 48 -68l51 -81h-82l-37 65q-20 35 -34.5 56.5q-14.5 21.5 -28 33.5q-13.5 12 -28 16.5q-14.5 4.5 -33.5 4.5h-40v-176zM285 398h97q38 0 62 15.5q24 15.5 24 47.5q0 29 -21 45.5q-21 16.5 -54 16.5l-108 0z" />
<glyph unicode="&#176;" horiz-adv-x="429" d="M65 624q0 29 11 55q11 26 30.5 45q19.5 19 45.5 30q26 11 56 11q29 0 55 -11q26 -11 45 -30q19 -19 30 -45q11 -26 11 -55q0 -30 -11 -56q-11 -26 -30 -45.5q-19 -19.5 -45 -30.5q-26 -11 -55 -11q-30 0 -56 11q-26 11 -45.5 30.5q-19.5 19.5 -30.5 45.5q-11 26 -11 56zt0 0zM208 536q36 0 61 26q25 26 25 62q0 36 -25 61q-25 25 -61 25q-36 0 -61 -25q-25 -25 -25 -61q0 -36 25 -62t61 -26z" />
<glyph unicode="&#177;" horiz-adv-x="617" d="M43 86h496l-12 -86h-496zM283 329h-205l11 89h205l29 205h86l-29 -205h205l-11 -89h-205l-29 -205l-86 0z" />
<glyph unicode="&#181;" horiz-adv-x="584" d="M143 473h88l-61 -290q-2 -8 -3 -20q-1 -12 -1 -20q0 -43 23.5 -63.5q23.5 -20.5 61.5 -20.5q59 0 90 32q31 32 43 92l59 290h90l-98 -473h-80l4 34q-19 -15 -33.5 -23.5q-14.5 -8.5 -28 -13q-13.5 -4.5 -26 -5.5q-12.5 -1 -27.5 -1q-33 0 -58.5 12q-25.5 12 -44.5 39l-44 -225l-88 0z" />
<glyph unicode="&#182;" horiz-adv-x="574" d="M229 328q-97 5 -151 61.5q-54 56.5 -54 150.5q0 103 62 157.5q62 54.5 179 54.5h323v-85h-73v-877h-86v877h-114v-877l-86 0z" />
<glyph unicode="&#183;" horiz-adv-x="282" d="M95 363q0 27 19 45q19 18 46 18q26 0 44.5 -18q18.5 -18 18.5 -45q0 -26 -18.5 -44.5q-18.5 -18.5 -44.5 -18.5q-27 0 -46 18.5t-19 44.5z" />
<glyph unicode="&#187;" horiz-adv-x="473" d="M-27 0l183 248l-89 224h72l92 -235l-176 -237zM179 0l183 248l-89 224h72l92 -235l-176 -237z" />
<glyph unicode="&#1025;" horiz-adv-x="544" d="M209 851q0 20 14 34q14 14 34 14q20 0 34 -14q14 -14 14 -34q0 -20 -14 -34q-14 -14 -34 -14q-20 0 -34 14q-14 14 -14 34zt0 0zM397 851q0 20 14 34q14 14 34 14q20 0 34 -14q14 -14 14 -34q0 -20 -14 -34q-14 -14 -34 -14q-20 0 -34 14q-14 14 -14 34zt0 0zM140 716h379l-11 -85h-287l-31 -225h253l-12 -85h-254l-34 -236h376l-12 -85l-470 0z" />
<glyph unicode="&#1026;" horiz-adv-x="757" d="M272 626h-202l12 90h503l-12 -90h-202l-27 -196h46q49 0 99 -13q50 -13 90.5 -42q40.5 -29 66 -75q25.5 -46 25.5 -111q0 -40 -19.5 -74.5q-19.5 -34.5 -52.5 -60q-33 -25.5 -75.5 -40q-42.5 -14.5 -87.5 -14.5h-82l10 80h65q22 0 48.5 7.5q26.5 7.5 49 23.5q22.5 16 37.5 41q15 25 15 59q0 38 -18 64.5q-18 26.5 -44 43q-26 16.5 -54 24q-28 7.5 -48 7.5h-82l-50 -350l-99 0z" />
<glyph unicode="&#1027;" horiz-adv-x="463" d="M347 961h106l-118 -154h-59zM141 716h342l-12 -85h-249l-89 -631l-96 0z" />
<glyph unicode="&#1028;" horiz-adv-x="620" d="M414 406l-15 -85h-241q-2 -8 -2 -26q0 -98 50.5 -156q50.5 -58 137.5 -58q22 0 49.5 6.5q27.5 6.5 56 18.5q28.5 12 56.5 28q28 16 52 35l-16 -116q-54 -30 -108.5 -46q-54.5 -16 -103.5 -16q-61 0 -112 22q-51 22 -87.5 61q-36.5 39 -56.5 94q-20 55 -20 121q0 94 33.5 173.5q33.5 79.5 97 138q63.5 58.5 154 91.5q90.5 33 204.5 33h68l-19 -90h-52q-84 0 -146 -19.5q-62 -19.5 -106.5 -52q-44.5 -32.5 -72 -73.5q-27.5 -41 -42.5 -84z" />
<glyph unicode="&#1029;" horiz-adv-x="481" d="M51 147q57 -40 96.5 -54q39.5 -14 71.5 -14q14 0 32.5 5q18.5 5 35 15.5q16.5 10.5 28 28q11.5 17.5 11.5 42.5q0 32 -18 58q-18 26 -45 50q-27 24 -59 49q-32 25 -59 54.5q-27 29.5 -45 65.5q-18 36 -18 83q0 44 19.5 80q19.5 36 52 61.5q32.5 25.5 74.5 39.5q42 14 86 14q22 0 58 -6q36 -6 73 -22l-14 -98q-33 22 -63 30q-30 8 -63 8q-58 0 -92.5 -29q-34.5 -29 -34.5 -78q0 -29 18 -53q18 -24 45 -47.5q27 -23.5 59 -48q32 -24.5 59 -54q27 -29.5 45 -65.5q18 -36 18 -82q0 -34 -13 -67.5q-13 -33.5 -39.5 -60.5q-26.5 -27 -66.5 -44q-40 -17 -93 -17q-36 0 -81.5 11.5q-45.5 11.5 -92.5 39.5z" />
<glyph unicode="&#1030;" horiz-adv-x="255" d="M141 716h99l-101 -716l-99 0z" />
<glyph unicode="&#1031;" horiz-adv-x="255" d="M81 853q0 20 14 34q14 14 34 14q20 0 34 -14q14 -14 14 -34q0 -20 -14 -34q-14 -14 -34 -14q-20 0 -34 14q-14 14 -14 34zt0 0zM228 853q0 20 14 34q14 14 34 14q20 0 34 -14q14 -14 14 -34q0 -20 -14 -34q-14 -14 -34 -14q-20 0 -34 14q-14 14 -14 34zt0 0zM141 716h99l-101 -716l-99 0z" />
<glyph unicode="&#1032;" horiz-adv-x="255" d="M-140 -147q22 -5 37.5 -7.5q15.5 -2.5 31.5 -2.5q51 0 78 25.5q27 25.5 35 84.5l107 763h94l-108 -769q-13 -91 -57.5 -140q-44.5 -49 -127.5 -49q-17 0 -34 1.5q-17 1.5 -34 5.5z" />
<glyph unicode="&#1033;" horiz-adv-x="1013" d="M-36 86h18q42 0 81 27q39 27 73.5 97.5q34.5 70.5 63 193q28.5 122.5 49.5 312.5l442 0l-40 -286h30q71 0 126.5 -18.5q55.5 -18.5 93.5 -50q38 -31.5 57.5 -73q19.5 -41.5 19.5 -87.5q0 -48 -19 -85q-19 -37 -53.5 -63q-34.5 -26 -82 -39.5q-47.5 -13.5 -104.5 -13.5h-227l88 624h-247q-28 -182 -61.5 -303q-33.5 -121 -76 -193.5q-42.5 -72.5 -95.5 -103q-53 -30.5 -119 -30.5h-31zM602 80h107q78 0 125.5 29.5q47.5 29.5 47.5 95.5q0 30 -13.5 56.5q-13.5 26.5 -37 46q-23.5 19.5 -55 31q-31.5 11.5 -67.5 11.5l-68 0z" />
<glyph unicode="&#1034;" horiz-adv-x="1004" d="M138 716h97l-40 -286h349l40 286h98l-40 -286h43q66 0 118.5 -19q52.5 -19 89 -50.5q36.5 -31.5 56.5 -73q20 -41.5 20 -86.5q0 -43 -18.5 -80q-18.5 -37 -52.5 -64q-34 -27 -82 -42q-48 -15 -106 -15h-226l48 350h-347l-50 -350h-98zM593 80h107q78 0 125.5 29.5q47.5 29.5 47.5 95.5q0 30 -13.5 56.5q-13.5 26.5 -37 46q-23.5 19.5 -55 31q-31.5 11.5 -67.5 11.5l-68 0z" />
<glyph unicode="&#1035;" horiz-adv-x="752" d="M267 626h-202l12 90h503l-12 -90h-202l-34 -238q20 19 40.5 35q20.5 16 44.5 27.5q24 11.5 52.5 18q28.5 6.5 64.5 6.5q75 0 118.5 -39q43.5 -39 43.5 -119q0 -17 -3 -46.5q-3 -29.5 -7 -59.5l-27 -211h-100l31 222q5 31 7.5 56.5q2.5 25.5 2.5 37.5q0 22 -9 37q-9 15 -22.5 24.5q-13.5 9.5 -29 13.5q-15.5 4 -29.5 4q-23 0 -48.5 -4.5q-25.5 -4.5 -50.5 -14.5q-25 -10 -48 -27q-23 -17 -41 -42l-44 -307l-99 0z" />
<glyph unicode="&#1036;" horiz-adv-x="626" d="M404 955h106l-118 -154h-59zM136 716h100l-44 -314h40q24 0 44 8q20 8 37.5 25q17.5 17 34.5 43.5q17 26.5 35 63.5q44 88 88.5 135.5q44.5 47.5 98.5 47.5q21 0 39 -3q18 -3 29 -6v-88q-16 2 -30.5 4.5q-14.5 2.5 -26.5 2.5q-37 0 -60 -32q-23 -32 -51 -86q-27 -51 -58.5 -94.5q-31.5 -43.5 -69.5 -61.5q27 -9 50.5 -32.5q23.5 -23.5 44.5 -54q21 -30.5 39 -65q18 -34.5 34 -67.5q9 -19 16 -34q7 -15 15 -30.5q8 -15.5 18 -34q10 -18.5 25 -43.5l-119 0l-74 147q-28 56 -51 88.5q-23 32.5 -43 49.5q-20 17 -39 22q-19 5 -39 5h-40l-43 -312l-99 0z" />
<glyph unicode="&#1038;" horiz-adv-x="550" d="M252 904q11 -39 32.5 -60q21.5 -21 59.5 -21q36 0 62 18.5q26 18.5 52 62.5l0 6l58 -53q-33 -44 -78 -68q-45 -24 -101 -24q-36 0 -62 8.5q-26 8.5 -44 22q-18 13.5 -29.5 30q-11.5 16.5 -18.5 32.5zM72 83q28 0 47.5 3.5q19.5 3.5 34 12.5q14.5 9 26.5 23.5q12 14.5 26 36.5l-132 557h97l102 -431l218 431h97l-277 -537q-18 -34 -39 -67.5q-21 -33.5 -47 -60.5q-26 -27 -56.5 -43.5q-30.5 -16.5 -67.5 -16.5q-10 0 -21 0.5q-11 0.5 -20 2.5z" />
<glyph unicode="&#1039;" horiz-adv-x="733" d="M284 0h-247l102 716h96l-84 -626h375l96 626h99l-105 -716h-246l-23 -142l-86 0z" />
<glyph unicode="&#1040;" horiz-adv-x="564" d="M296 720h90l140 -720h-88l-43 225h-225l-94 -225h-96zM202 300h178l-55 294l-2 0z" />
<glyph unicode="&#1041;" horiz-adv-x="560" d="M37 0l101 716h338l-12 -82h-239l-28 -204h29q72 0 127.5 -18.5q55.5 -18.5 93 -50q37.5 -31.5 57 -73q19.5 -41.5 19.5 -87.5q0 -48 -20 -85.5q-20 -37.5 -55 -63q-35 -25.5 -82.5 -39q-47.5 -13.5 -103.5 -13.5zM148 80h104q82 0 128.5 30q46.5 30 46.5 95q0 28 -12.5 54q-12.5 26 -35.5 46.5q-23 20.5 -56 32.5q-33 12 -74 12l-63 0z" />
<glyph unicode="&#1042;" horiz-adv-x="554" d="M37 0l99 716h105q62 0 105.5 -15q43.5 -15 70.5 -40q27 -25 39 -58q12 -33 12 -69q0 -46 -24.5 -82q-24.5 -36 -74.5 -59q148 -51 148 -192q0 -46 -19 -83q-19 -37 -53.5 -63.5q-34.5 -26.5 -82 -40.5q-47.5 -14 -103.5 -14zM142 80h108q82 0 126.5 32q44.5 32 44.5 93q0 31 -14 57.5q-14 26.5 -38 46q-24 19.5 -55 30q-31 10.5 -65 10.5h-70zM191 429h51q60 0 95 29.5q35 29.5 35 77.5q0 44 -26.5 71q-26.5 27 -76.5 27l-50 0z" />
<glyph unicode="&#1043;" horiz-adv-x="463" d="M141 716h342l-12 -85h-249l-89 -631l-96 0z" />
<glyph unicode="&#1044;" horiz-adv-x="807" d="M18 92h47q43 34 78 78q35 44 62.5 107q27.5 63 48.5 150q21 87 38 207l11 82h459l-87 -624h81l-39 -266h-92l25 174h-551l-25 -174h-94zM577 92l74 532h-266q-16 -111 -38.5 -201.5q-22.5 -90.5 -49 -158q-26.5 -67.5 -54 -111.5q-27.5 -44 -52.5 -61z" />
<glyph unicode="&#1045;" horiz-adv-x="544" d="M140 716h379l-11 -85h-287l-31 -225h253l-12 -85h-254l-34 -236h376l-12 -85l-470 0z" />
<glyph unicode="&#1046;" horiz-adv-x="970" d="M-25 0q22 25 38 45q16 20 28.5 36.5q12.5 16.5 23 31q10.5 14.5 21.5 29.5q22 30 51 65.5q29 35.5 60 67q31 31.5 62 55q31 23.5 58 31.5q-32 18 -52 61.5q-20 43.5 -32 94.5q-6 27 -12 49q-6 22 -14.5 37.5q-8.5 15.5 -20 23.5q-11.5 8 -29.5 8q-13 0 -28.5 -2.5q-15.5 -2.5 -20.5 -4.5l12 88q14 3 32.5 6q18.5 3 39.5 3q55 0 85.5 -47.5q30.5 -47.5 49.5 -135.5q8 -38 17.5 -64.5q9.5 -26.5 22 -43.5q12.5 -17 30 -24.5q17.5 -7.5 41.5 -7.5h20l44 314h99l-44 -314h19q24 0 44 7.5q20 7.5 37.5 24.5q17.5 17 34 43.5q16.5 26.5 35.5 64.5q45 88 88.5 135.5q43.5 47.5 98.5 47.5q21 0 38.5 -3q17.5 -3 29.5 -6v-88q-17 2 -31 4.5q-14 2.5 -27 2.5q-36 0 -59 -31.5q-23 -31.5 -51 -86.5q-26 -50 -58.5 -94q-32.5 -44 -69.5 -62q27 -9 50.5 -32.5q23.5 -23.5 44.5 -54q21 -30.5 39 -65q18 -34.5 34 -67.5q9 -19 16 -34q7 -15 15 -30.5q8 -15.5 18 -34q10 -18.5 24 -43.5l-118 0l-75 147q-27 54 -50 86q-23 32 -43 49q-20 17 -39 22.5q-19 5.5 -39 5.5h-19l-44 -310h-98l43 310h-19q-20 0 -40 -4.5q-20 -4.5 -45 -21q-25 -16.5 -57.5 -49q-32.5 -32.5 -75.5 -88.5l-114 -147z" />
<glyph unicode="&#1047;" horiz-adv-x="533" d="M34 133q26 -15 48 -26q22 -11 43 -17.5q21 -6.5 41.5 -10q20.5 -3.5 43.5 -3.5q49 0 84.5 9.5q35.5 9.5 59 26q23.5 16.5 35 38.5q11.5 22 11.5 47q0 37 -14.5 65.5q-14.5 28.5 -39 48q-24.5 19.5 -58 29q-33.5 9.5 -71.5 9.5h-76l12 80h60q68 0 102.5 29q34.5 29 34.5 78q0 20 -6 38.5q-6 18.5 -20.5 33q-14.5 14.5 -38 23.5q-23.5 9 -58.5 9q-42 0 -73 -16.5q-31 -16.5 -58 -40.5l14 96q13 14 30 23q17 9 35 14q18 5 36 7q18 2 33 2q40 0 76.5 -13q36.5 -13 64.5 -37.5q28 -24.5 44.5 -60q16.5 -35.5 16.5 -80.5q0 -18 -4 -36.5q-4 -18.5 -15 -36.5q-11 -18 -29.5 -35.5q-18.5 -17.5 -47.5 -32.5q75 -29 110.5 -76q35.5 -47 35.5 -116q0 -53 -24.5 -92.5q-24.5 -39.5 -65 -65.5q-40.5 -26 -93.5 -39q-53 -13 -110 -13q-41 0 -84.5 8q-43.5 8 -98.5 34z" />
<glyph unicode="&#1048;" horiz-adv-x="719" d="M138 716h98l-80 -531l509 531h42l-101 -716h-98l75 525l-504 -525l-42 0z" />
<glyph unicode="&#1049;" horiz-adv-x="719" d="M373 915q11 -39 32.5 -60q21.5 -21 59.5 -21q36 0 62 18.5q26 18.5 52 62.5l0 6l58 -53q-33 -44 -78 -68q-45 -24 -101 -24q-36 0 -62 8.5q-26 8.5 -44 22q-18 13.5 -29.5 30q-11.5 16.5 -18.5 32.5zM138 716h98l-80 -531l509 531h42l-101 -716h-98l75 525l-504 -525l-42 0z" />
<glyph unicode="&#1050;" horiz-adv-x="626" d="M136 716h100l-44 -314h40q24 0 44 8q20 8 37.5 25q17.5 17 34.5 43.5q17 26.5 35 63.5q44 88 88.5 135.5q44.5 47.5 98.5 47.5q21 0 39 -3q18 -3 29 -6v-88q-16 2 -30.5 4.5q-14.5 2.5 -26.5 2.5q-37 0 -60 -32q-23 -32 -51 -86q-27 -51 -58.5 -94.5q-31.5 -43.5 -69.5 -61.5q27 -9 50.5 -32.5q23.5 -23.5 44.5 -54q21 -30.5 39 -65q18 -34.5 34 -67.5q9 -19 16 -34q7 -15 15 -30.5q8 -15.5 18 -34q10 -18.5 25 -43.5l-119 0l-74 147q-28 56 -51 88.5q-23 32.5 -43 49.5q-20 17 -39 22q-19 5 -39 5h-40l-43 -312l-99 0z" />
<glyph unicode="&#1051;" horiz-adv-x="737" d="M-36 86h18q42 0 81 27q39 27 73.5 97.5q34.5 70.5 63 193q28.5 122.5 49.5 312.5l476 0l-102 -716h-103l88 624h-275q-28 -182 -61.5 -303q-33.5 -121 -76 -193.5q-42.5 -72.5 -95.5 -103q-53 -30.5 -119 -30.5l-31 0z" />
<glyph unicode="&#1052;" horiz-adv-x="854" d="M236 716h82l111 -485l257 485h95v-716h-95v543h-2l-288 -543l-124 548h-2l-176 -548l-95 0z" />
<glyph unicode="&#1053;" horiz-adv-x="733" d="M138 716h97l-43 -309h388l43 309h98l-101 -716h-98l45 317h-387l-45 -317l-98 0z" />
<glyph unicode="&#1054;" horiz-adv-x="689" d="M309 -9q-56 0 -103 22q-47 22 -81 62q-34 40 -52.5 95.5q-18.5 55.5 -18.5 122.5q0 47 10 97.5q10 50.5 29.5 98.5q19.5 48 48.5 90.5q29 42.5 67.5 75q38.5 32.5 86.5 51.5q48 19 105 19q57 0 103.5 -21.5q46.5 -21.5 80 -61q33.5 -39.5 51.5 -95q18 -55.5 18 -122.5q0 -96 -28 -176q-28 -80 -75.5 -137.5q-47.5 -57.5 -110 -89q-62.5 -31.5 -131.5 -31.5zt0 0zM312 76q50 0 94.5 28.5q44.5 28.5 78.5 78q34 49.5 53.5 116.5q19.5 67 19.5 143q0 95 -43 146.5q-43 51.5 -115 51.5q-42 0 -77 -16q-35 -16 -63 -43.5q-28 -27.5 -48.5 -63.5q-20.5 -36 -34 -76q-13.5 -40 -20.5 -82q-7 -42 -7 -80q0 -95 44 -149t118 -54z" />
<glyph unicode="&#1055;" horiz-adv-x="715" d="M138 716h565l-101 -716h-98l88 626h-368l-89 -626l-98 0z" />
<glyph unicode="&#1056;" horiz-adv-x="502" d="M37 0l101 716h123q42 0 83 -8.5q41 -8.5 74 -31q33 -22.5 53.5 -61.5q20.5 -39 20.5 -100q0 -30 -11.5 -67q-11.5 -37 -38 -69.5q-26.5 -32.5 -70 -54.5q-43.5 -22 -108.5 -22h-86l-42 -302zM190 387h70q37 0 62.5 12q25.5 12 42 30.5q16.5 18.5 24 41.5q7.5 23 7.5 46q0 21 -7 41.5q-7 20.5 -22 36.5q-15 16 -40 26q-25 10 -61 10l-42 0z" />
<glyph unicode="&#1057;" horiz-adv-x="620" d="M542 53q-54 -30 -108.5 -46q-54.5 -16 -103.5 -16q-61 0 -112 22q-51 22 -87.5 61q-36.5 39 -56.5 94q-20 55 -20 121q0 94 33.5 173.5q33.5 79.5 97 138q63.5 58.5 154 91.5q90.5 33 204.5 33h68l-19 -90h-52q-111 0 -185 -34q-74 -34 -118.5 -85q-44.5 -51 -62.5 -110.5q-18 -59.5 -18 -110.5q0 -98 50.5 -156q50.5 -58 137.5 -58q22 0 49.5 6.5q27.5 6.5 56 18.5q28.5 12 56.5 28q28 16 52 35z" />
<glyph unicode="&#1058;" horiz-adv-x="536" d="M267 626h-202l12 90h503l-12 -90h-202l-88 -626l-99 0z" />
<glyph unicode="&#1059;" horiz-adv-x="550" d="M72 83q28 0 47.5 3.5q19.5 3.5 34 12.5q14.5 9 26.5 23.5q12 14.5 26 36.5l-132 557h97l102 -431l218 431h97l-277 -537q-18 -34 -39 -67.5q-21 -33.5 -47 -60.5q-26 -27 -56.5 -43.5q-30.5 -16.5 -67.5 -16.5q-10 0 -21 0.5q-11 0.5 -20 2.5z" />
<glyph unicode="&#1060;" horiz-adv-x="808" d="M326 108h-13q-58 0 -105.5 18q-47.5 18 -81.5 52q-34 34 -53 83.5q-19 49.5 -19 113.5q0 73 26 135.5q26 62.5 70 107.5q44 45 103 70.5q59 25.5 125 25.5h33l8 66h98l-9 -66q74 0 126 -20.5q52 -20.5 85 -56q33 -35.5 48.5 -84.5q15.5 -49 15.5 -106q0 -66 -22 -127.5q-22 -61.5 -65.5 -108.5q-43.5 -47 -107.5 -75q-64 -28 -148 -28h-13l-19 -108h-98zM338 193l61 434h-30q-34 0 -72.5 -16.5q-38.5 -16.5 -71 -48.5q-32.5 -32 -54 -79.5q-21.5 -47.5 -21.5 -109.5q0 -39 12.5 -72q12.5 -33 33.5 -57q21 -24 48 -37.5q27 -13.5 56 -13.5zM438 194h30q34 0 72.5 16.5q38.5 16.5 71 48.5q32.5 32 54 79q21.5 47 21.5 109q0 39 -12.5 72q-12.5 33 -33.5 57q-21 24 -49 37.5q-28 13.5 -59 13.5l-34 0z" />
<glyph unicode="&#1061;" horiz-adv-x="700" d="M313 379l-212 337h108l170 -264l233 264h125l-307 -347l234 -369h-113l-186 295l-256 -295l-129 0z" />
<glyph unicode="&#1062;" horiz-adv-x="746" d="M138 716h98l-88 -626h366l88 626h99l-88 -626h85l-38 -256h-98l25 166l-550 0z" />
<glyph unicode="&#1063;" horiz-adv-x="594" d="M441 401q-53 -53 -104 -70q-51 -17 -105 -17q-44 0 -73.5 13.5q-29.5 13.5 -47.5 36q-18 22.5 -26 50.5q-8 28 -8 58q0 9 1 22.5q1 13.5 4 40q3 26.5 8.5 70q5.5 43.5 14.5 111.5l99 0q-11 -73 -17 -119.5q-6 -46.5 -9 -73.5q-3 -27 -4 -37.5q-1 -10.5 -1 -12.5q0 -32 22.5 -55.5q22.5 -23.5 67.5 -23.5q18 0 41 2.5q23 2.5 48 11.5q25 9 50.5 26.5q25.5 17.5 48.5 47.5l34 234h97l-99 -716l-99 0z" />
<glyph unicode="&#1064;" horiz-adv-x="1022" d="M138 716h98l-88 -626h288l88 626h99l-88 -626h288l88 626h99l-99 -716l-874 0z" />
<glyph unicode="&#1065;" horiz-adv-x="1055" d="M138 716h98l-88 -626h288l88 626h99l-88 -626h288l88 626h99l-88 -626h85l-36 -256h-99l24 166l-859 0z" />
<glyph unicode="&#1066;" horiz-adv-x="598" d="M167 636h-143l9 80h243l-39 -286h29q59 0 112.5 -15q53.5 -15 94.5 -44q41 -29 65.5 -71.5q24.5 -42.5 24.5 -98.5q0 -45 -18.5 -82.5q-18.5 -37.5 -52.5 -63.5q-34 -26 -81.5 -40.5q-47.5 -14.5 -105.5 -14.5h-228zM188 80h104q38 0 70 6.5q32 6.5 55.5 21.5q23.5 15 36.5 38.5q13 23.5 13 58.5q0 32 -14 58.5q-14 26.5 -38.5 46q-24.5 19.5 -57 30q-32.5 10.5 -68.5 10.5l-63 0z" />
<glyph unicode="&#1067;" horiz-adv-x="796" d="M138 716h99l-40 -286h29q54 0 107.5 -13.5q53.5 -13.5 95.5 -41q42 -27.5 68.5 -71q26.5 -43.5 26.5 -103.5q0 -45 -19 -82q-19 -37 -53 -63.5q-34 -26.5 -81.5 -41q-47.5 -14.5 -105.5 -14.5h-228zM148 80h108q75 0 123 29.5q48 29.5 48 95.5q0 30 -13.5 56.5q-13.5 26.5 -36.5 46q-23 19.5 -54 31q-31 11.5 -67 11.5h-70zM685 716h99l-101 -716l-99 0z" />
<glyph unicode="&#1068;" horiz-adv-x="558" d="M138 716h99l-40 -286h29q54 0 107.5 -13.5q53.5 -13.5 95.5 -41q42 -27.5 68.5 -71q26.5 -43.5 26.5 -103.5q0 -45 -19 -82q-19 -37 -53 -63.5q-34 -26.5 -81.5 -41q-47.5 -14.5 -105.5 -14.5h-228zM148 80h108q75 0 123 29.5q48 29.5 48 95.5q0 30 -13.5 56.5q-13.5 26.5 -36.5 46q-23 19.5 -54 31q-31 11.5 -67 11.5l-70 0z" />
<glyph unicode="&#1069;" horiz-adv-x="621" d="M15 81h86q89 0 155 25.5q66 25.5 111.5 62q45.5 36.5 72 78q26.5 41.5 35.5 74.5l-233 0l17 85h224v23q0 49 -14.5 87.5q-14.5 38.5 -39.5 64.5q-25 26 -59.5 40q-34.5 14 -73.5 14q-23 0 -50 -6.5q-27 -6.5 -55.5 -18q-28.5 -11.5 -56.5 -28q-28 -16.5 -52 -35.5l17 116q54 31 108.5 46.5q54.5 15.5 103.5 15.5q61 0 111.5 -21.5q50.5 -21.5 87 -61q36.5 -39.5 56.5 -94.5q20 -55 20 -121q0 -94 -33.5 -173.5q-33.5 -79.5 -97 -138q-63.5 -58.5 -154 -91.5q-90.5 -33 -204.5 -33l-103 0z" />
<glyph unicode="&#1070;" horiz-adv-x="942" d="M138 716h99l-42 -298h128q15 59 43 114.5q28 55.5 69 98q41 42.5 95.5 68.5q54.5 26 122.5 26q57 0 104 -21.5q47 -21.5 80.5 -61q33.5 -39.5 51.5 -94.5q18 -55 18 -122q0 -97 -28 -177q-28 -80 -76 -137.5q-48 -57.5 -111 -89q-63 -31.5 -132 -31.5q-56 0 -102.5 22q-46.5 22 -80 62q-33.5 40 -52 95.5q-18.5 55.5 -18.5 123.5q0 10 0.5 22q0.5 12 1.5 17l-126 0l-47 -333h-99zM562 76q51 0 96 28.5q45 28.5 79 78.5q34 50 54 116.5q20 66.5 20 143.5q0 95 -43.5 146q-43.5 51 -114.5 51q-64 0 -111 -35q-47 -35 -78 -88q-31 -53 -46 -116.5q-15 -63.5 -15 -121.5q0 -95 43.5 -149t115.5 -54z" />
<glyph unicode="&#1071;" horiz-adv-x="621" d="M133 223q32 48 56.5 76q24.5 28 41.5 40q-17 7 -35.5 19.5q-18.5 12.5 -33.5 30q-15 17.5 -25 41q-10 23.5 -10 53.5q0 54 19.5 97.5q19.5 43.5 54.5 73.5q35 30 83.5 46q48.5 16 107.5 16h217l-101 -716h-103l44 311h-64q-30 0 -53 -10.5q-23 -10.5 -43 -29.5q-20 -19 -39 -46.5q-19 -27.5 -40 -60.5l-104 -164h-118zM462 403l31 225h-102q-75 0 -116 -32.5q-41 -32.5 -41 -101.5q0 -14 5 -30q5 -16 18.5 -29.5q13.5 -13.5 38.5 -22.5q25 -9 64 -9z" />
<glyph unicode="&#1072;" horiz-adv-x="500" d="M321 54l-2 2q-28 -30 -60.5 -47.5q-32.5 -17.5 -66.5 -17.5q-33 0 -61 14.5q-28 14.5 -49 40q-21 25.5 -33 59q-12 33.5 -12 72.5q0 56 17.5 111.5q17.5 55.5 56 99.5q38.5 44 99.5 71q61 27 147 27q26 0 58.5 -4.5q32.5 -4.5 52.5 -10.5l-66 -471h-89zM222 66q13 0 28 5.5q15 5.5 29.5 15.5q14.5 10 28 22.5q13.5 12.5 24.5 26.5l39 272q-12 3 -26 3q-49 0 -89 -17q-40 -17 -68.5 -46.5q-28.5 -29.5 -44 -69.5q-15.5 -40 -15.5 -85q0 -57 26 -92t68 -35z" />
<glyph unicode="&#1073;" horiz-adv-x="466" d="M206 -9q-50 0 -82.5 20q-32.5 20 -51.5 50q-19 30 -26.5 66q-7.5 36 -7.5 69q0 55 7.5 121.5q7.5 66.5 28 130.5q20.5 64 57 119q36.5 55 95.5 87q18 10 39 18.5q21 8.5 50 16q29 7.5 69 16q40 8.5 97 18.5l-22 -97q-19 -2 -41.5 -6q-22.5 -4 -44.5 -8.5q-22 -4.5 -42 -9.5q-20 -5 -33 -10q-64 -25 -102.5 -70.5q-38.5 -45.5 -58.5 -125.5q10 14 24 30q14 16 31.5 29.5q17.5 13.5 38.5 22q21 8.5 46 8.5q39 0 68.5 -15.5q29.5 -15.5 49 -43q19.5 -27.5 29.5 -65q10 -37.5 10 -81.5q0 -53 -16 -105q-16 -52 -46 -93q-30 -41 -72 -66.5q-42 -25.5 -94 -25.5zt0 0zM208 66q37 0 63.5 20.5q26.5 20.5 43.5 53q17 32.5 24.5 73.5q7.5 41 7.5 82q0 36 -8.5 59q-8.5 23 -21 37q-12.5 14 -27 19.5q-14.5 5.5 -27.5 5.5q-22 0 -46 -16q-24 -16 -43.5 -45.5q-19.5 -29.5 -32 -72q-12.5 -42.5 -12.5 -94.5q0 -20 4.5 -41.5q4.5 -21.5 14 -39.5q9.5 -18 24.5 -29.5t36 -11.5z" />
<glyph unicode="&#1074;" horiz-adv-x="452" d="M213 -9q-35 0 -67 11.5q-32 11.5 -56 36q-24 24.5 -38.5 62q-14.5 37.5 -14.5 89.5q0 48 17 100q17 52 49.5 95.5q32.5 43.5 80 72q47.5 28.5 108.5 28.5q20 0 42 -5.5q22 -5.5 40.5 -17.5q18.5 -12 30.5 -31q12 -19 12 -46q0 -30 -12 -52q-12 -22 -29.5 -37.5q-17.5 -15.5 -37.5 -24.5q-20 -9 -36 -12q56 -13 77.5 -45q21.5 -32 21.5 -68q0 -34 -12.5 -62.5q-12.5 -28.5 -36.5 -49.5q-24 -21 -59 -32.5q-35 -11.5 -80 -11.5zt0 0zM129 216q-3 -17 -3 -35q0 -19 5.5 -39q5.5 -20 16.5 -37q11 -17 29 -28q18 -11 42 -11q42 0 66.5 21q24.5 21 24.5 61q0 19 -8.5 32.5q-8.5 13.5 -21.5 21q-13 7.5 -29.5 11q-16.5 3.5 -32.5 3.5zM218 286q19 0 38.5 4.5q19.5 4.5 35.5 14q16 9.5 26.5 25q10.5 15.5 10.5 36.5q0 23 -16 36.5q-16 13.5 -48 13.5q-22 0 -42 -11.5q-20 -11.5 -36.5 -30q-16.5 -18.5 -28.5 -41.5q-12 -23 -17 -47z" />
<glyph unicode="&#1075;" horiz-adv-x="417" d="M336 21q-34 -27 -72.5 -33.5q-38.5 -6.5 -81.5 -6.5q-66 0 -105.5 34.5q-39.5 34.5 -39.5 92.5q0 36 14 61q14 25 37 44q23 19 52 32.5q29 13.5 60 25.5q43 16 71 33.5q28 17.5 28 50.5q0 32 -20 43q-20 11 -45 11q-26 0 -58.5 -9.5q-32.5 -9.5 -84.5 -41.5l13 86q20 9 36.5 16q16.5 7 34 11.5q17.5 4.5 36.5 6.5q19 2 44 2q28 0 52 -9q24 -9 41 -24q17 -15 27 -34q10 -19 10 -38q0 -28 -6.5 -50q-6.5 -22 -21 -40q-14.5 -18 -37 -33.5q-22.5 -15.5 -53.5 -30.5q-26 -12 -50.5 -22.5q-24.5 -10.5 -44.5 -22q-20 -11.5 -32 -26.5q-12 -15 -12 -36q0 -22 17 -38.5q17 -16.5 43 -16.5q21 0 39.5 1q18.5 1 37.5 6.5q19 5.5 39.5 16q20.5 10.5 44.5 28.5z" />
<glyph unicode="&#1076;" horiz-adv-x="512" d="M187 701q33 11 62.5 17q29.5 6 58.5 6q49 0 83 -19.5q34 -19.5 55 -53.5q21 -34 30 -81q9 -47 9 -102q0 -48 -7 -102.5q-7 -54.5 -21.5 -107.5q-14.5 -53 -37 -101.5q-22.5 -48.5 -54 -85q-31.5 -36.5 -71.5 -58.5q-40 -22 -89 -22q-81 0 -124.5 56q-43.5 56 -43.5 162q0 51 16.5 101q16.5 50 46 89q29.5 39 71 63q41.5 24 92.5 24q18 0 36 -4q18 -4 34.5 -14.5q16.5 -10.5 30.5 -28q14 -17.5 25 -43.5q4 20 5.5 41.5q1.5 21.5 1.5 39.5q0 36 -7 65.5q-7 29.5 -21 51.5q-14 22 -35.5 34q-21.5 12 -49.5 12q-24 0 -50 -5.5q-26 -5.5 -59 -21.5zM212 66q38 0 64 23.5q26 23.5 41.5 57.5q15.5 34 22.5 72.5q7 38.5 7 67.5q0 22 -4 44.5q-4 22.5 -14 41.5q-10 19 -26 31q-16 12 -40 12q-33 0 -58.5 -23q-25.5 -23 -42.5 -56.5q-17 -33.5 -25.5 -71q-8.5 -37.5 -8.5 -66.5q0 -36 7 -61.5q7 -25.5 19 -41q12 -15.5 27 -23t31 -7.5z" />
<glyph unicode="&#1077;" horiz-adv-x="460" d="M392 44q-73 -53 -158 -53q-45 0 -81.5 15.5q-36.5 15.5 -62 44q-25.5 28.5 -39.5 69.5q-14 41 -14 93q0 58 17 107.5q17 49.5 47 86.5q30 37 71 58q41 21 88 21q35 0 65.5 -14q30.5 -14 53 -39.5q22.5 -25.5 35.5 -61.5q13 -36 13 -79q0 -23 -3 -48l-294 0q-2 -14 -3 -25.5q-1 -11.5 -1 -22.5q0 -35 10.5 -59.5q10.5 -24.5 27.5 -40q17 -15.5 39.5 -23q22.5 -7.5 46.5 -7.5q33 0 71 15.5q38 15.5 83 47.5zM256 411q-39 0 -66.5 -25.5q-27.5 -25.5 -45.5 -79.5l197 0q0 45 -20 75t-65 30z" />
<glyph unicode="&#1078;" horiz-adv-x="691" d="M93 163q28 36 51 59q23 23 53 31q-22 14 -32.5 37q-10.5 23 -18.5 57q-6 29 -18.5 41q-12.5 12 -35.5 12q-17 0 -26 -3.5q-9 -3.5 -15 -7.5l11 81q11 4 24.5 7q13.5 3 28.5 3q30 0 50 -9.5q20 -9.5 32 -25q12 -15.5 19 -35.5q7 -20 12 -40q11 -45 26.5 -63q15.5 -18 38.5 -18h12l25 182h89l-25 -182h12q23 0 44.5 19q21.5 19 42.5 62q12 24 24.5 44q12.5 20 29 35q16.5 15 38.5 23q22 8 52 8q15 0 27 -3q12 -3 23 -7v-81q-16 4 -24 7.5q-8 3.5 -25 3.5q-24 0 -40.5 -12.5q-16.5 -12.5 -33.5 -41.5q-20 -33 -34 -55.5q-14 -22.5 -39 -37.5q27 -8 44 -30q17 -22 36 -60l79 -163h-99l-60 120q-13 26 -23.5 43.5q-10.5 17.5 -20.5 28q-10 10.5 -21 15q-11 4.5 -24 4.5h-19l-30 -211h-89l29 211h-18q-14 0 -26 -4.5q-12 -4.5 -25 -15q-13 -10.5 -28.5 -28q-15.5 -17.5 -35.5 -43.5l-93 -120l-100 0z" />
<glyph unicode="&#1079;" horiz-adv-x="406" d="M16 109q46 -26 83.5 -34.5q37.5 -8.5 77.5 -8.5q17 0 33.5 5q16.5 5 29 14.5q12.5 9.5 20.5 25q8 15.5 8 36.5q0 25 -19.5 46q-19.5 21 -66.5 21h-45l9 70h30q50 0 80 22q30 22 30 51q0 27 -17 43q-17 16 -55 16q-22 0 -41 -5.5q-19 -5.5 -36 -13.5q-17 -8 -33 -17.5q-16 -9.5 -31 -16.5l13 86q35 19 72.5 28q37.5 9 83.5 9q58 0 94 -28q36 -28 36 -78q0 -43 -31 -76.5q-31 -33.5 -81 -46.5q20 -5 38 -13.5q18 -8.5 31.5 -21.5q13.5 -13 21.5 -31.5q8 -18.5 8 -43.5q0 -36 -13.5 -64.5q-13.5 -28.5 -38.5 -49q-25 -20.5 -59 -31.5q-34 -11 -76 -11q-19 0 -40.5 2.5q-21.5 2.5 -44 7.5q-22.5 5 -43.5 11.5q-21 6.5 -39 15.5z" />
<glyph unicode="&#1080;" horiz-adv-x="480" d="M87 471h90l-42 -297q-2 -10 -3 -22q-1 -12 -1 -20q0 -22 5 -36q5 -14 13 -21.5q8 -7.5 17 -10.5q9 -3 17 -3q26 0 60 23q34 23 82 81l43 306h89l-67 -471h-88l10 78l-2 2q-14 -15 -31 -30.5q-17 -15.5 -36.5 -28.5q-19.5 -13 -41.5 -21.5q-22 -8.5 -46 -8.5q-18 0 -38 6.5q-20 6.5 -37 22q-17 15.5 -28.5 41q-11.5 25.5 -11.5 62.5q0 9 2 25q2 16 4 32z" />
<glyph unicode="&#1081;" horiz-adv-x="480" d="M222 640q8 -28 23 -43q15 -15 42 -15q26 0 44.5 13.5q18.5 13.5 36.5 44.5l0 4l38 -47q-23 -31 -55 -48q-32 -17 -72 -17q-26 0 -44 6q-18 6 -31 15.5q-13 9.5 -21 21.5q-8 12 -13 23zM87 471h90l-42 -297q-2 -10 -3 -22q-1 -12 -1 -20q0 -22 5 -36q5 -14 13 -21.5q8 -7.5 17 -10.5q9 -3 17 -3q26 0 60 23q34 23 82 81l43 306h89l-67 -471h-88l10 78l-2 2q-14 -15 -31 -30.5q-17 -15.5 -36.5 -28.5q-19.5 -13 -41.5 -21.5q-22 -8.5 -46 -8.5q-18 0 -38 6.5q-20 6.5 -37 22q-17 15.5 -28.5 41q-11.5 25.5 -11.5 62.5q0 9 2 25q2 16 4 32z" />
<glyph unicode="&#1082;" horiz-adv-x="484" d="M98 471h93l-25 -182h22q24 0 44.5 18q20.5 18 43.5 63q12 23 24.5 43q12.5 20 28.5 35q16 15 38 23.5q22 8.5 52 8.5q15 0 27 -3q12 -3 23 -7v-81q-16 4 -23.5 7.5q-7.5 3.5 -24.5 3.5q-23 0 -40.5 -13q-17.5 -13 -35.5 -45q-19 -33 -33.5 -53.5q-14.5 -20.5 -37.5 -35.5q27 -8 44 -30q17 -22 35 -60l80 -163h-100l-59 121q-13 26 -23.5 43.5q-10.5 17.5 -20.5 28q-10 10.5 -21 14.5q-11 4 -25 4h-30l-29 -211l-93 0z" />
<glyph unicode="&#1083;" horiz-adv-x="512" d="M-12 78q12 -4 31 -4q19 0 36 9.5q17 9.5 30.5 31.5q13.5 22 24 57.5q10.5 35.5 17.5 86.5l29 212h333l-66 -471h-89l55 396h-159l-20 -138q-9 -60 -25 -109q-16 -49 -39 -83.5q-23 -34.5 -53.5 -53q-30.5 -18.5 -67.5 -18.5q-18 0 -31 3z" />
<glyph unicode="&#1084;" horiz-adv-x="620" d="M154 476h69l81 -311h8l167 311h69l29 -476h-91l-9 325l-173 -325h-38l-83 325l-99 -325l-91 0z" />
<glyph unicode="&#1085;" horiz-adv-x="500" d="M99 471h89l-25 -180h199l25 180h90l-67 -471h-89l31 216h-200l-30 -216l-90 0z" />
<glyph unicode="&#1086;" horiz-adv-x="470" d="M215 -9q-84 0 -131 52.5q-47 52.5 -47 152.5q0 62 17.5 115q17.5 53 47.5 92q30 39 71.5 61q41.5 22 89.5 22q40 0 72.5 -15q32.5 -15 55 -42q22.5 -27 35 -65q12.5 -38 12.5 -84q0 -66 -17.5 -119.5q-17.5 -53.5 -47.5 -91q-30 -37.5 -71 -58q-41 -20.5 -87 -20.5zt0 0zM212 66q28 0 52.5 16q24.5 16 43 45q18.5 29 29 69q10.5 40 10.5 89q0 60 -22.5 95.5q-22.5 35.5 -61.5 35.5q-29 0 -53.5 -19q-24.5 -19 -42.5 -50.5q-18 -31.5 -28.5 -72.5q-10.5 -41 -10.5 -86q0 -57 24.5 -89.5t59.5 -32.5z" />
<glyph unicode="&#1087;" horiz-adv-x="489" d="M98 471h89l-11 -83l2 -2q38 48 77.5 70q39.5 22 78.5 22q32 0 54 -13q22 -13 35.5 -34q13.5 -21 19.5 -47.5q6 -26.5 6 -53.5q0 -8 -1.5 -25q-1.5 -17 -3.5 -27l-42 -278h-89l41 284q2 14 3 26q1 12 1 19q0 22 -5 36.5q-5 14.5 -13 23q-8 8.5 -17 11.5q-9 3 -18 3q-9 0 -23 -4q-14 -4 -32 -15q-18 -11 -40 -31q-22 -20 -47 -53l-43 -300l-88 0z" />
<glyph unicode="&#1088;" horiz-adv-x="494" d="M115 591h89l-17 -120q21 9 39 12q18 3 41 3q42 0 77.5 -16.5q35.5 -16.5 61.5 -46q26 -29.5 41 -70q15 -40.5 15 -87.5q0 -42 -14.5 -90.5q-14.5 -48.5 -47.5 -89.5q-33 -41 -86 -68q-53 -27 -129 -27h-65l-33 -233h-89zM129 61h43q52 0 89.5 19q37.5 19 62 49q24.5 30 36 66q11.5 36 11.5 71q0 40 -11.5 68.5q-11.5 28.5 -30 47.5q-18.5 19 -43 28q-24.5 9 -50.5 9q-17 0 -28 -2.5q-11 -2.5 -30 -11.5z" />
<glyph unicode="&#1089;" horiz-adv-x="433" d="M376 25q-34 -18 -64.5 -26q-30.5 -8 -66.5 -8q-48 0 -86.5 15.5q-38.5 15.5 -65.5 43.5q-27 28 -41.5 68q-14.5 40 -14.5 90q0 58 21.5 108.5q21.5 50.5 61 88q39.5 37.5 96 59.5q56.5 22 126.5 22q35 0 81 -8l-11 -79q-34 7 -69 7q-49 0 -89 -16q-40 -16 -68 -43q-28 -27 -43 -61.5q-15 -34.5 -15 -71.5q0 -68 34.5 -105.5q34.5 -37.5 94.5 -37.5q36 0 66 10q30 10 63 30z" />
<glyph unicode="&#1090;" horiz-adv-x="776" d="M99 471h90l-13 -82l2 -2q44 49 83.5 70q39.5 21 79.5 21q15 0 31.5 -4.5q16.5 -4.5 31.5 -16.5q15 -12 27 -32.5q12 -20.5 17 -52.5q51 63 96 84.5q45 21.5 80 21.5q22 0 42.5 -7.5q20.5 -7.5 36 -23.5q15.5 -16 24.5 -41q9 -25 9 -59q0 -10 -1.5 -28q-1.5 -18 -3.5 -29l-41 -290h-90l42 296q2 9 3.5 23q1.5 14 1.5 20q0 33 -13.5 51q-13.5 18 -37.5 18q-12 0 -27.5 -5q-15.5 -5 -34 -17.5q-18.5 -12.5 -40.5 -33.5q-22 -21 -46 -53l-43 -299h-89l42 298q3 22 3 40q0 33 -13 51.5q-13 18.5 -43 18.5q-26 0 -65 -29.5q-39 -29.5 -76 -79.5l-43 -299l-89 0z" />
<glyph unicode="&#1091;" horiz-adv-x="426" d="M145 28l-92 443h90l63 -324h2l148 324h93l-338 -713l-94 0z" />
<glyph unicode="&#1092;" horiz-adv-x="755" d="M308 34q-25 -25 -57 -34q-32 -9 -68 -9q-40 0 -68 16q-28 16 -45 43q-17 27 -25 62.5q-8 35.5 -8 73.5q0 55 20 109q20 54 56 96.5q36 42.5 86 68.5q50 26 111 26q32 0 61 -13l35 238h88l-42 -280q23 24 50 39.5q27 15.5 63 15.5q41 0 70.5 -17q29.5 -17 49 -45q19.5 -28 29 -63.5q9.5 -35.5 9.5 -72.5q0 -77 -27 -132.5q-27 -55.5 -67.5 -92.5q-40.5 -37 -87 -54.5q-46.5 -17.5 -85.5 -17.5q-13 0 -27 1q-14 1 -40 3l-31 -237h-90zM228 66q26 0 45 7.5q19 7.5 46 28.5l41 299q-14 5 -27 7.5q-13 2.5 -25 2.5q-38 0 -71 -18.5q-33 -18.5 -58 -48q-25 -29.5 -39 -66q-14 -36.5 -14 -72.5q0 -31 5 -56.5q5 -25.5 16.5 -44q11.5 -18.5 31 -29q19.5 -10.5 49.5 -10.5zt0 0zM402 70q19 -4 39 -4q48 0 84 19.5q36 19.5 60.5 49q24.5 29.5 36.5 65q12 35.5 12 67.5q0 49 -10.5 77.5q-10.5 28.5 -25.5 43.5q-15 15 -32.5 19q-17.5 4 -31.5 4q-26 0 -45.5 -11q-19.5 -11 -42.5 -34z" />
<glyph unicode="&#1093;" horiz-adv-x="448" d="M179 250l-111 221h95l75 -158l123 158h110l-190 -233l119 -238h-95l-86 176l-137 -176l-109 0z" />
<glyph unicode="&#1094;" horiz-adv-x="533" d="M87 471h90l-42 -297q-2 -10 -3 -22q-1 -12 -1 -20q0 -23 5.5 -36.5q5.5 -13.5 13.5 -21.5q8 -8 17 -10.5q9 -2.5 16 -2.5q26 0 60 23q34 23 82 81l43 306h89l-49 -344q-1 -5 -2.5 -19.5q-1.5 -14.5 -1.5 -25.5q0 -14 3.5 -17.5q3.5 -3.5 9.5 -3.5q6 0 10.5 1q4.5 1 9.5 4q5 3 12 9.5q7 6.5 18 18.5l34 -16l-27 -197h-84l48 146q-17 -16 -36 -26q-19 -10 -56 -10q-38 0 -38 37q0 12 1 25.5q1 13.5 3 24.5v2q-16 -15 -33 -30.5q-17 -15.5 -36.5 -28.5q-19.5 -13 -41.5 -21.5q-22 -8.5 -46 -8.5q-19 0 -39.5 7q-20.5 7 -37 23q-16.5 16 -27.5 41q-11 25 -11 60q0 11 2 25.5q2 14.5 4 31.5z" />
<glyph unicode="&#1095;" horiz-adv-x="458" d="M315 253q-23 -29 -63.5 -53q-40.5 -24 -89.5 -24q-43 0 -75 31q-32 31 -32 92q0 13 5.5 56.5q5.5 43.5 16.5 115.5l89 0q-11 -72 -17.5 -119q-6.5 -47 -6.5 -58q0 -31 15.5 -42q15.5 -11 31.5 -11q13 0 27.5 3q14.5 3 31.5 12q17 9 36.5 25q19.5 16 40.5 42l21 148h89l-66 -471l-89 0z" />
<glyph unicode="&#1096;" horiz-adv-x="760" d="M87 471h90l-41 -290q-2 -14 -3.5 -26.5q-1.5 -12.5 -1.5 -22.5q0 -38 14.5 -54.5q14.5 -16.5 37.5 -16.5q12 0 25.5 4.5q13.5 4.5 31 16q17.5 11.5 38.5 31.5q21 20 47 52l43 306h89l-40 -283q-1 -4 -2 -11.5q-1 -7.5 -2 -16q-1 -8.5 -1.5 -16.5q-0.5 -8 -0.5 -12q1 -33 13.5 -52q12.5 -19 38.5 -19q26 0 61.5 25q35.5 25 80.5 79l43 306h89l-67 -471h-88l10 78l-2 2q-44 -49 -79.5 -69q-35.5 -20 -75.5 -20q-15 0 -31.5 5q-16.5 5 -31.5 17q-15 12 -26.5 33q-11.5 21 -16.5 53q-51 -63 -95 -85.5q-44 -22.5 -79 -22.5q-20 0 -40 7.5q-20 7.5 -37 23.5q-17 16 -27.5 41q-10.5 25 -10.5 60q0 10 2 28.5q2 18.5 4 28.5z" />
<glyph unicode="&#1097;" horiz-adv-x="813" d="M87 471h90l-41 -290q-2 -14 -3.5 -26.5q-1.5 -12.5 -1.5 -22.5q0 -38 14.5 -54.5q14.5 -16.5 37.5 -16.5q12 0 25.5 4.5q13.5 4.5 31 16q17.5 11.5 38.5 31.5q21 20 47 52l43 306h89l-40 -283q-1 -4 -2 -12q-1 -8 -2 -16q-1 -8 -1.5 -16q-0.5 -8 -0.5 -12q0 -29 12 -50q12 -21 40 -21q13 0 28 5.5q15 5.5 32 17.5q17 12 37 32q20 20 45 49l43 306h89l-46 -323q-1 -7 -2.5 -16.5q-1.5 -9.5 -2.5 -19q-1 -9.5 -1.5 -17.5q-0.5 -8 -0.5 -13q0 -15 3.5 -18q3.5 -3 8.5 -3q7 0 12 1q5 1 10 4.5q5 3.5 12 10q7 6.5 17 17.5l34 -16l-27 -197h-84l48 146q-18 -19 -39 -27.5q-21 -8.5 -53 -8.5q-18 0 -28 8.5q-10 8.5 -10 32.5q0 11 1 23q1 12 3 23v2q-44 -44 -80.5 -66.5q-36.5 -22.5 -76.5 -22.5q-15 0 -31.5 5q-16.5 5 -31.5 17q-15 12 -26.5 33q-11.5 21 -16.5 53q-51 -63 -95 -85.5q-44 -22.5 -79 -22.5q-19 0 -39.5 7.5q-20.5 7.5 -37 23.5q-16.5 16 -27.5 41q-11 25 -11 60q0 10 2 28.5q2 18.5 4 28.5z" />
<glyph unicode="&#1098;" horiz-adv-x="471" d="M110 406h-93l8 65h184l-29 -202q20 5 42 6.5q22 1.5 58 1.5q19 0 46.5 -7q27.5 -7 52.5 -23.5q25 -16.5 42.5 -43.5q17.5 -27 17.5 -68q0 -42 -22.5 -69.5q-22.5 -27.5 -57.5 -44q-35 -16.5 -76.5 -23.5q-41.5 -7 -80.5 -7q-35 0 -72.5 4q-37.5 4 -75.5 11zM153 73q17 -4 36.5 -5.5q19.5 -1.5 37.5 -1.5q35 0 58 7q23 7 37 18q14 11 20 24q6 13 6 24q0 22 -7 35.5q-7 13.5 -18 21.5q-11 8 -26 11q-15 3 -31 3q-63 0 -95 -7z" />
<glyph unicode="&#1099;" horiz-adv-x="661" d="M549 471h89l-66 -471h-89zM97 471h90l-29 -202q20 5 42 6.5q22 1.5 58 1.5q19 0 46.5 -7q27.5 -7 52.5 -23.5q25 -16.5 42.5 -43.5q17.5 -27 17.5 -68q0 -42 -22.5 -69.5q-22.5 -27.5 -57.5 -44q-35 -16.5 -76.5 -23.5q-41.5 -7 -80.5 -7q-35 0 -72.5 4q-37.5 4 -75.5 11zM131 73q17 -4 36.5 -5.5q19.5 -1.5 37.5 -1.5q35 0 58 7q23 7 37 18q14 11 20 24q6 13 6 24q0 22 -7 35.5q-7 13.5 -18 21.5q-11 8 -26 11q-15 3 -31 3q-63 0 -95 -7z" />
<glyph unicode="&#1100;" horiz-adv-x="440" d="M97 471h90l-29 -202q20 5 42 6.5q22 1.5 58 1.5q19 0 46.5 -7q27.5 -7 52.5 -23.5q25 -16.5 42.5 -43.5q17.5 -27 17.5 -68q0 -42 -22.5 -69.5q-22.5 -27.5 -57.5 -44q-35 -16.5 -76.5 -23.5q-41.5 -7 -80.5 -7q-35 0 -72.5 4q-37.5 4 -75.5 11zM131 73q17 -4 36.5 -5.5q19.5 -1.5 37.5 -1.5q35 0 58 7q23 7 37 18q14 11 20 24q6 13 6 24q0 22 -7 35.5q-7 13.5 -18 21.5q-11 8 -26 11q-15 3 -31 3q-63 0 -95 -7z" />
<glyph unicode="&#1101;" horiz-adv-x="431" d="M23 79q19 -5 36 -6.5q17 -1.5 34 -1.5q42 0 77.5 13q35.5 13 63 33.5q27.5 20.5 44.5 45.5q17 25 22 49l-182 0l10 75h177q-7 56 -39.5 87.5q-32.5 31.5 -86.5 31.5q-37 0 -67 -10q-30 -10 -64 -29l11 86q35 20 65.5 26.5q30.5 6.5 66.5 6.5q47 0 85.5 -15.5q38.5 -15.5 65.5 -43.5q27 -28 42 -68.5q15 -40.5 15 -89.5q0 -58 -21.5 -108.5q-21.5 -50.5 -61.5 -88q-40 -37.5 -96.5 -59.5q-56.5 -22 -126.5 -22q-17 0 -38.5 2q-21.5 2 -41.5 6z" />
<glyph unicode="&#1102;" horiz-adv-x="675" d="M99 471h89l-26 -185h90q10 44 30.5 81q20.5 37 49 63.5q28.5 26.5 63 41q34.5 14.5 72.5 14.5q40 0 72.5 -15q32.5 -15 55.5 -42q23 -27 35.5 -65q12.5 -38 12.5 -84q0 -66 -17.5 -119.5q-17.5 -53.5 -48 -91q-30.5 -37.5 -71.5 -58q-41 -20.5 -87 -20.5q-83 0 -130.5 54q-47.5 54 -47.5 168l-90 0l-29 -213h-90zM417 66q28 0 52.5 16q24.5 16 42.5 45q18 29 28.5 69q10.5 40 10.5 89q0 60 -23 95.5q-23 35.5 -61 35.5q-29 0 -53.5 -19q-24.5 -19 -42.5 -51q-18 -32 -28 -73q-10 -41 -10 -86q0 -57 24.5 -89t59.5 -32z" />
<glyph unicode="&#1103;" horiz-adv-x="451" d="M34 80q26 41 51.5 79q25.5 38 60.5 58q-34 13 -52 40.5q-18 27.5 -18 62.5q0 33 14.5 61q14.5 28 40 48q25.5 20 60.5 31q35 11 76 11h163l-66 -471h-90l29 196h-41q-38 0 -63 -24q-25 -24 -49 -61l-72 -111h-96zM312 268l17 123h-62q-47 0 -71.5 -18.5q-24.5 -18.5 -24.5 -51.5q0 -11 3.5 -20.5q3.5 -9.5 12.5 -16.5q9 -7 25.5 -11.5q16.5 -4.5 42.5 -4.5z" />
<glyph unicode="&#1105;" horiz-adv-x="460" d="M141 622q0 20 14 34q14 14 34 14q20 0 34 -14q14 -14 14 -34q0 -20 -14 -34q-14 -14 -34 -14q-20 0 -34 14q-14 14 -14 34zt0 0zM329 622q0 20 14 34q14 14 34 14q20 0 34 -14q14 -14 14 -34q0 -20 -14 -34q-14 -14 -34 -14q-20 0 -34 14q-14 14 -14 34zt0 0zM392 44q-73 -53 -158 -53q-45 0 -81.5 15.5q-36.5 15.5 -62 44q-25.5 28.5 -39.5 69.5q-14 41 -14 93q0 58 17 107.5q17 49.5 47 86.5q30 37 71 58q41 21 88 21q35 0 65.5 -14q30.5 -14 53 -39.5q22.5 -25.5 35.5 -61.5q13 -36 13 -79q0 -23 -3 -48l-294 0q-2 -14 -3 -25.5q-1 -11.5 -1 -22.5q0 -35 10.5 -59.5q10.5 -24.5 27.5 -40q17 -15.5 39.5 -23q22.5 -7.5 46.5 -7.5q33 0 71 15.5q38 15.5 83 47.5zM256 411q-39 0 -66.5 -25.5q-27.5 -25.5 -45.5 -79.5l197 0q0 45 -20 75t-65 30z" />
<glyph unicode="&#1106;" horiz-adv-x="492" d="M114 584h-56l12 76h55l8 56h89l-8 -56h183l-10 -76h-184l-26 -188l2 -2q78 92 164 92q55 0 82 -37.5q27 -37.5 27 -93.5q0 -8 -1 -22q-1 -14 -3 -24l-35 -256q-7 -50 -20 -83.5q-13 -33.5 -32 -53.5q-19 -20 -42.5 -28q-23.5 -8 -51.5 -8q-23 0 -48 3q-25 3 -49 10l5 79q26 -7 48 -9.5q22 -2.5 34 -2.5q27 0 42.5 22q15.5 22 20.5 54l38 271q2 14 3.5 25.5q1.5 11.5 1.5 19.5q0 32 -15.5 49.5q-15.5 17.5 -40.5 17.5q-16 0 -34 -9q-18 -9 -36.5 -24q-18.5 -15 -37 -35.5q-18.5 -20.5 -35.5 -43.5l-43 -307l-89 0z" />
<glyph unicode="&#1107;" horiz-adv-x="417" d="M286 686h106l-118 -154h-59zM336 27q-34 -27 -72.5 -33.5q-38.5 -6.5 -81.5 -6.5q-66 0 -105.5 34.5q-39.5 34.5 -39.5 92.5q0 36 14 61q14 25 37 44q23 19 52 32.5q29 13.5 60 25.5q43 16 71 33.5q28 17.5 28 50.5q0 32 -20 43q-20 11 -45 11q-26 0 -58.5 -9.5q-32.5 -9.5 -84.5 -41.5l13 86q20 9 36.5 16q16.5 7 34 11.5q17.5 4.5 36.5 6.5q19 2 44 2q28 0 52 -9q24 -9 41 -24q17 -15 27 -34q10 -19 10 -38q0 -28 -6.5 -50q-6.5 -22 -21 -40q-14.5 -18 -37 -33.5q-22.5 -15.5 -53.5 -30.5q-26 -12 -50.5 -22.5q-24.5 -10.5 -44.5 -22q-20 -11.5 -32 -26.5q-12 -15 -12 -36q0 -22 17 -38.5q17 -16.5 43 -16.5q21 0 39.5 1q18.5 1 37.5 6.5q19 5.5 39.5 16q20.5 10.5 44.5 28.5z" />
<glyph unicode="&#1108;" horiz-adv-x="450" d="M314 287l-14 -75h-171q0 -70 34 -105.5q34 -35.5 94 -35.5q37 0 67 10.5q30 10.5 64 29.5l-11 -86q-35 -20 -65.5 -27q-30.5 -7 -66.5 -7q-95 0 -151.5 56q-56.5 56 -56.5 156q0 58 21.5 109.5q21.5 51.5 61.5 90q40 38.5 96.5 61q56.5 22.5 126.5 22.5q13 0 36.5 -2q23.5 -2 43.5 -6l-10 -80q-19 5 -36 6.5q-17 1.5 -34 1.5q-71 0 -121.5 -34q-50.5 -34 -74.5 -85z" />
<glyph unicode="&#1109;" horiz-adv-x="375" d="M31 133q47 -37 81.5 -53.5q34.5 -16.5 63.5 -16.5q27 0 44 14.5q17 14.5 17 37.5q0 20 -13.5 36q-13.5 16 -34.5 31.5q-21 15.5 -44.5 31.5q-23.5 16 -44.5 35.5q-21 19.5 -34.5 44q-13.5 24.5 -13.5 56.5q0 61 40 98.5q40 37.5 108 37.5q37 0 73.5 -13q36.5 -13 69.5 -36l0 -94q-82 62 -142 62q-28 0 -46 -14.5q-18 -14.5 -18 -34.5q0 -17 14 -31.5q14 -14.5 35 -29q21 -14.5 45 -31q24 -16.5 45 -36q21 -19.5 35 -45q14 -25.5 14 -57.5q0 -32 -11 -58q-11 -26 -30.5 -44.5q-19.5 -18.5 -46.5 -28.5q-27 -10 -58 -10q-22 0 -41 3q-19 3 -38 10.5q-19 7.5 -39.5 19q-20.5 11.5 -45.5 29.5z" />
<glyph unicode="&#1110;" horiz-adv-x="210" d="M98 471h89l-66 -471h-89zM107 620q0 21 15 36q15 15 37 15q21 0 36 -15q15 -15 15 -36q0 -22 -15 -37q-15 -15 -36 -15q-22 0 -37 15t-15 37z" />
<glyph unicode="&#1111;" horiz-adv-x="210" d="M98 471h89l-66 -471h-89zM36 616q0 20 14 34q14 14 34 14q20 0 34 -14q14 -14 14 -34q0 -20 -14 -34q-14 -14 -34 -14q-20 0 -34 14q-14 14 -14 34zt0 0zM183 616q0 20 14 34q14 14 34 14q20 0 34 -14q14 -14 14 -34q0 -20 -14 -34q-14 -14 -34 -14q-20 0 -34 14t-14 34z" />
<glyph unicode="&#1112;" horiz-adv-x="201" d="M-97 -153q11 -3 21 -4q10 -1 19 -1q32 0 52 20q20 20 26 67l69 542h89l-72 -567q-5 -40 -20.5 -68q-15.5 -28 -37.5 -45q-22 -17 -49 -25q-27 -8 -56 -8q-13 0 -27 2.5q-14 2.5 -25 7.5zM98 620q0 21 15 36q15 15 37 15q21 0 36 -15q15 -15 15 -36q0 -22 -15 -37q-15 -15 -36 -15q-22 0 -37 15t-15 37z" />
<glyph unicode="&#1113;" horiz-adv-x="742" d="M-12 78q12 -4 31 -4q39 0 66.5 42q27.5 42 41.5 143l29 212h333l-29 -202q21 5 44.5 6.5q23.5 1.5 55.5 1.5q19 0 46.5 -7q27.5 -7 52.5 -23.5q25 -16.5 42.5 -43.5q17.5 -27 17.5 -68q0 -42 -22.5 -69.5q-22.5 -27.5 -57.5 -44q-35 -16.5 -76.5 -23.5q-41.5 -7 -80.5 -7q-35 0 -72.5 4q-37.5 4 -75.5 11l55 390h-159l-20 -138q-9 -60 -25 -109q-16 -49 -39 -83.5q-23 -34.5 -53.5 -53q-30.5 -18.5 -67.5 -18.5q-18 0 -31 3zM433 73q17 -4 36.5 -5.5q19.5 -1.5 37.5 -1.5q35 0 58 7q23 7 37 18q14 11 20 24q6 13 6 24q0 22 -7 35.5q-7 13.5 -18 21.5q-11 8 -26 11q-15 3 -31 3q-30 0 -55.5 -1.5q-25.5 -1.5 -39.5 -5.5z" />
<glyph unicode="&#1114;" horiz-adv-x="730" d="M99 471h89l-25 -180h199l25 180h90l-28 -194q20 6 47 10q27 4 52 4q37 0 67 -14q30 -14 50 -36.5q20 -22.5 31 -50q11 -27.5 11 -55.5q0 -39 -20.5 -66q-20.5 -27 -54 -44.5q-33.5 -17.5 -76 -25.5q-42.5 -8 -86.5 -8q-33 0 -73 4q-40 4 -75 11l30 210h-200l-30 -216h-90zM421 73q17 -4 36.5 -5.5q19.5 -1.5 37.5 -1.5q35 0 58 7q23 7 37 18q14 11 20 24q6 13 6 24q0 22 -7 36.5q-7 14.5 -18 23.5q-11 9 -26 13q-15 4 -31 4q-22 0 -48 -3.5q-26 -3.5 -47 -9.5z" />
<glyph unicode="&#1115;" horiz-adv-x="492" d="M114 584h-56l12 76h55l8 56h89l-8 -56h183l-10 -76h-184l-26 -188l2 -2q78 92 164 92q55 0 82 -37.5q27 -37.5 27 -93.5q0 -8 -1 -22q-1 -14 -3 -24l-43 -309h-90l44 314q2 10 3 21q1 11 1 17q-1 32 -16 49.5q-15 17.5 -40 17.5q-16 0 -34 -9q-18 -9 -36.5 -24q-18.5 -15 -37 -35.5q-18.5 -20.5 -35.5 -43.5l-43 -307l-89 0z" />
<glyph unicode="&#1116;" horiz-adv-x="484" d="M302 686h106l-118 -154h-59zM98 471h93l-25 -182h22q24 0 44.5 18q20.5 18 43.5 63q12 23 24.5 43q12.5 20 28.5 35q16 15 38 23.5q22 8.5 52 8.5q15 0 27 -3q12 -3 23 -7v-81q-16 4 -23.5 7.5q-7.5 3.5 -24.5 3.5q-23 0 -40.5 -13q-17.5 -13 -35.5 -45q-19 -33 -33.5 -53.5q-14.5 -20.5 -37.5 -35.5q27 -8 44 -30q17 -22 35 -60l80 -163h-100l-59 121q-13 26 -23.5 43.5q-10.5 17.5 -20.5 28q-10 10.5 -21 14.5q-11 4 -25 4h-30l-29 -211l-93 0z" />
<glyph unicode="&#1118;" horiz-adv-x="426" d="M203 634q8 -28 23 -43q15 -15 42 -15q26 0 44.5 13.5q18.5 13.5 36.5 44.5l0 4l38 -47q-23 -31 -55 -48q-32 -17 -72 -17q-26 0 -44 6q-18 6 -31 15.5q-13 9.5 -21 21.5q-8 12 -13 23zM145 28l-92 443h90l63 -324h2l148 324h93l-338 -713l-94 0z" />
<glyph unicode="&#1119;" horiz-adv-x="480" d="M89 -207l118 154h59l-71 -154zM87 471h90l-42 -297q-2 -10 -3 -22q-1 -12 -1 -20q0 -22 5 -36q5 -14 13 -21.5q8 -7.5 17 -10.5q9 -3 17 -3q26 0 60 23q34 23 82 81l43 306h89l-67 -471h-88l10 78l-2 2q-14 -15 -31 -30.5q-17 -15.5 -36.5 -28.5q-19.5 -13 -41.5 -21.5q-22 -8.5 -46 -8.5q-18 0 -38 6.5q-20 6.5 -37 22q-17 15.5 -28.5 41q-11.5 25.5 -11.5 62.5q0 9 2 25q2 16 4 32z" />
<glyph unicode="&#1168;" horiz-adv-x="463" d="M141 716h268l10 74h74l-22 -159h-249l-89 -631l-96 0z" />
<glyph unicode="&#1169;" horiz-adv-x="374" d="M97 472h179l9 55h68l-21 -135h-158l-54 -392l-88 0z" />
<glyph unicode="&#8211;" horiz-adv-x="546" d="M10 339h547l-14 -89l-546 0z" />
<glyph unicode="&#8212;" horiz-adv-x="1072" d="M12 339h1070l-12 -89l-1072 0z" />
<glyph unicode="&#8216;" horiz-adv-x="214" d="M147 472q-29 0 -47 24q-18 24 -18 60q0 30 12 57q12 27 34 49q22 22 52.5 38q30.5 16 67.5 24l-6 -46q-70 -22 -70 -90q42 -17 42 -53q0 -29 -18.5 -46t-48.5 -17z" />
<glyph unicode="&#8217;" horiz-adv-x="214" d="M69 521q70 23 70 90q-41 18 -41 54q0 28 18.5 45q18.5 17 47.5 17q29 0 47.5 -24q18.5 -24 18.5 -59q0 -30 -12 -57q-12 -27 -34 -49q-22 -22 -53 -38.5q-31 -16.5 -68 -24.5z" />
<glyph unicode="&#8218;" horiz-adv-x="208" d="M-19 -105q70 23 70 90q-41 18 -41 54q0 28 18.5 45q18.5 17 47.5 17q29 0 47.5 -24q18.5 -24 18.5 -59q0 -30 -12 -57q-12 -27 -34 -49q-22 -22 -53 -38.5q-31 -16.5 -68 -24.5z" />
<glyph unicode="&#8220;" horiz-adv-x="439" d="M362 472q-29 0 -48.5 24q-19.5 24 -19.5 60q0 30 12 57q12 27 34.5 49q22.5 22 53 38q30.5 16 68.5 24l-6 -46q-36 -11 -52.5 -33q-16.5 -22 -16.5 -57q19 -8 29.5 -22q10.5 -14 10.5 -31q0 -29 -18.5 -46q-18.5 -17 -46.5 -17zt0 0zM135 472q-29 0 -47 24q-18 24 -18 60q0 30 12 57q12 27 34 49q22 22 52.5 38q30.5 16 67.5 24l-6 -46q-70 -22 -70 -90q42 -17 42 -53q0 -29 -18.5 -46t-48.5 -17z" />
<glyph unicode="&#8221;" horiz-adv-x="438" d="M71 521q70 23 70 90q-41 18 -41 54q0 28 18.5 45q18.5 17 47.5 17q29 0 47.5 -24q18.5 -24 18.5 -59q0 -30 -12 -57q-12 -27 -34 -49q-22 -22 -53 -38.5q-31 -16.5 -68 -24.5zM297 521q70 23 70 90q-41 18 -41 54q0 28 18.5 45q18.5 17 47.5 17q29 0 47.5 -24q18.5 -24 18.5 -59q0 -30 -12 -57q-12 -27 -34 -49q-22 -22 -53 -38.5q-31 -16.5 -68 -24.5z" />
<glyph unicode="&#8222;" horiz-adv-x="426" d="M-19 -105q70 23 70 90q-41 18 -41 54q0 28 18.5 45q18.5 17 47.5 17q29 0 47.5 -24q18.5 -24 18.5 -59q0 -30 -12 -57q-12 -27 -34 -49q-22 -22 -53 -38.5q-31 -16.5 -68 -24.5zM206 -105q70 23 70 90q-41 18 -41 54q0 28 18.5 45q18.5 17 47.5 17q29 0 47.5 -24q18.5 -24 18.5 -59q0 -30 -12 -57q-12 -27 -34 -49q-22 -22 -53 -38.5q-31 -16.5 -68 -24.5z" />
<glyph unicode="&#8224;" horiz-adv-x="503" d="M138 -168q0 27 6 68.5q6 41.5 15.5 91.5q9.5 50 21.5 105q12 55 25.5 109q13.5 54 26.5 104q13 50 24 90q-13 -5 -31.5 -10.5q-18.5 -5.5 -38 -10q-19.5 -4.5 -38.5 -7.5q-19 -3 -34 -3q-28 0 -45 12q-17 12 -17 32q0 18 19.5 30q19.5 12 49.5 12q22 0 59.5 -8.5q37.5 -8.5 75.5 -21.5q-2 31 -3.5 64q-1.5 33 -1.5 71q0 31 3 60.5q3 29.5 10.5 53q7.5 23.5 20 37.5q12.5 14 32.5 14q18 0 28 -18q10 -18 10 -51q0 -23 -7 -53q-7 -30 -17 -62.5q-10 -32.5 -22.5 -63q-12.5 -30.5 -22.5 -52.5q16 6 35.5 11q19.5 5 40 9.5q20.5 4.5 39 7q18.5 2.5 32.5 2.5q27 0 44 -12q17 -12 17 -32q0 -17 -19.5 -29.5q-19.5 -12.5 -46.5 -12.5q-32 0 -71.5 10q-39.5 10 -70.5 21q0 -44 -3 -105q-3 -61 -7.5 -125.5q-4.5 -64.5 -9.5 -125.5q-5 -61 -10 -104q-5 -39 -10.5 -72.5q-5.5 -33.5 -14 -57.5q-8.5 -24 -21 -38q-12.5 -14 -29.5 -14q-21 0 -32.5 19.5t-11.5 54.5z" />
<glyph unicode="&#8226;" horiz-adv-x="383" d="M72 359q0 27 10.5 50.5q10.5 23.5 28 41q17.5 17.5 41 28q23.5 10.5 50.5 10.5q27 0 50.5 -10.5q23.5 -10.5 41 -28q17.5 -17.5 28 -41q10.5 -23.5 10.5 -50.5q0 -27 -10.5 -50.5q-10.5 -23.5 -28 -41q-17.5 -17.5 -41 -28q-23.5 -10.5 -50.5 -10.5q-27 0 -50.5 10.5q-23.5 10.5 -41 28q-17.5 17.5 -28 41t-10.5 50.5z" />
<glyph unicode="&#8230;" horiz-adv-x="1049" d="M81 52q0 26 18 43.5q18 17.5 43 17.5q26 0 43.5 -17.5q17.5 -17.5 17.5 -43.5q0 -25 -17.5 -43q-17.5 -18 -43.5 -18q-25 0 -43 18q-18 18 -18 43zt0 0zM432 52q0 26 18 43.5q18 17.5 43 17.5q26 0 43.5 -17.5q17.5 -17.5 17.5 -43.5q0 -25 -17.5 -43q-17.5 -18 -43.5 -18q-25 0 -43 18q-18 18 -18 43zt0 0zM783 52q0 26 18 43.5q18 17.5 43 17.5q26 0 43.5 -17.5q17.5 -17.5 17.5 -43.5q0 -25 -17.5 -43q-17.5 -18 -43.5 -18q-25 0 -43 18t-18 43z" />
<glyph unicode="&#8240;" horiz-adv-x="1061" d="M363 152q0 34 12.5 63q12.5 29 34 50.5q21.5 21.5 50.5 34q29 12.5 63 12.5q33 0 62 -12.5q29 -12.5 50.5 -34q21.5 -21.5 34.5 -50.5q13 -29 13 -63q0 -32 -13 -61q-13 -29 -35 -51q-22 -22 -51 -35q-29 -13 -61 -13q-34 0 -63 13q-29 13 -50.5 35q-21.5 22 -34 51q-12.5 29 -12.5 61zt0 0zM523 69q18 0 33 7q15 7 26 18q11 11 17.5 26q6.5 15 6.5 32q0 18 -6.5 33q-6.5 15 -18 26q-11.5 11 -26.5 17.5q-15 6.5 -32 6.5q-35 0 -59 -23.5q-24 -23.5 -24 -59.5q0 -16 7 -31q7 -15 18 -26.5q11 -11.5 26 -18.5q15 -7 32 -7zt0 0zM737 152q0 34 12.5 63q12.5 29 34 50.5q21.5 21.5 50.5 34q29 12.5 63 12.5q33 0 62 -12.5q29 -12.5 50.5 -34q21.5 -21.5 34.5 -50.5q13 -29 13 -63q0 -32 -13 -61q-13 -29 -35 -51q-22 -22 -51 -35q-29 -13 -61 -13q-34 0 -63 13q-29 13 -50.5 35q-21.5 22 -34 51q-12.5 29 -12.5 61zt0 0zM897 69q18 0 33 7q15 7 26 18q11 11 17.5 26q6.5 15 6.5 32q0 18 -6.5 33q-6.5 15 -18 26q-11.5 11 -26.5 17.5q-15 6.5 -32 6.5q-35 0 -59 -23.5q-24 -23.5 -24 -59.5q0 -16 7 -31q7 -15 18 -26.5q11 -11.5 26 -18.5q15 -7 32 -7zt0 0zM553 726h79l-471 -735h-80zM189 406q-34 0 -63 13q-29 13 -50.5 35q-21.5 22 -33.5 51q-12 29 -12 61q0 34 12 63q12 29 33.5 50.5q21.5 21.5 50.5 34q29 12.5 63 12.5q33 0 62 -12.5q29 -12.5 50.5 -34q21.5 -21.5 34.5 -50.5q13 -29 13 -63q0 -32 -13 -61q-13 -29 -35 -51q-22 -22 -51 -35q-29 -13 -61 -13zt0 0zM189 483q18 0 33 7q15 7 26 18q11 11 17.5 26q6.5 15 6.5 32q0 18 -6.5 33q-6.5 15 -18 26q-11.5 11 -26.5 17.5q-15 6.5 -32 6.5q-35 0 -59 -23.5q-24 -23.5 -24 -59.5q0 -16 7 -31q7 -15 18 -26.5q11 -11.5 26 -18.5t32 -7z" />
<glyph unicode="&#8249;" horiz-adv-x="268" d="M8 235l176 237h80l-180 -248l88 -224l-72 0z" />
<glyph unicode="&#8250;" horiz-adv-x="267" d="M-27 0l183 248l-89 224h72l92 -235l-176 -237z" />
<glyph unicode="&#8470;" horiz-adv-x="940" d="M138 716h48l259 -527l74 527h89l-100 -716h-52l-256 523l-74 -523h-89zM661 239h202l-15 -58h-199zM764 301q-56 0 -88 34q-32 34 -32 94q0 37 11.5 68.5q11.5 31.5 31.5 55q20 23.5 48 37q28 13.5 60 13.5q56 0 87 -34.5q31 -34.5 31 -91.5q0 -39 -11 -71q-11 -32 -30.5 -55.5q-19.5 -23.5 -47 -36.5q-27.5 -13 -60.5 -13zt0 0zM764 349q16 0 30.5 10.5q14.5 10.5 25.5 28q11 17.5 17.5 41q6.5 23.5 6.5 50.5q0 42 -13 59q-13 17 -36 17q-35 0 -57.5 -38q-22.5 -38 -22.5 -103q0 -27 14 -46t35 -19z" />
<glyph unicode="&#8482;" horiz-adv-x="1049" d="M179 334l50 356h-135l8 62h341l-8 -62h-136l-50 -356zM433 334l58 418h102l57 -334h2l148 334h101l-58 -418h-64l49 351h-2l-154 -351h-63l-60 356h-2l-50 -356z" />
<glyph unicode="&#65279;" horiz-adv-x="0" />
</font>
</defs>
</svg>
